<?xml version="1.0" encoding="UTF-8" standalone="no"?>
<!DOCTYPE svg PUBLIC "-//W3C//DTD SVG 1.1//EN"
 "http://www.w3.org/Graphics/SVG/1.1/DTD/svg11.dtd">
<!-- Generated by graphviz version 2.43.0 (0)
 -->
<!-- Title: CXXIter::IterApi::max Pages: 1 -->
<svg width="449pt" height="53pt"
 viewBox="0.00 0.00 449.00 52.50" xmlns="http://www.w3.org/2000/svg" xmlns:xlink="http://www.w3.org/1999/xlink">
<g id="graph0" class="graph" transform="scale(1 1) rotate(0) translate(4 48.5)">
<title>CXXIter::IterApi::max</title>
<!-- Node1 -->
<g id="node1" class="node">
<title>Node1</title>
<g id="a_node1"><a xlink:title="Consumer that yields the largest element from this iterator.">
<polygon fill="#bfbfbf" stroke="black" points="0,-6 0,-25 119,-25 119,-6 0,-6"/>
<text text-anchor="middle" x="59.5" y="-13" font-family="Helvetica,sans-Serif" font-size="10.00">CXXIter::IterApi::max</text>
</a>
</g>
</g>
<!-- Node2 -->
<g id="node2" class="node">
<title>Node2</title>
<g id="a_node2"><a xlink:href="classCXXIter_1_1IterApi.html#aad1cbb262290264fc2e12d80492ad066" target="_top" xlink:title="Consumer that calls the given function useFn for each of the elements in this iterator.">
<polygon fill="none" stroke="black" points="155,-25 155,-44 289,-44 289,-25 155,-25"/>
<text text-anchor="middle" x="222" y="-32" font-family="Helvetica,sans-Serif" font-size="10.00">CXXIter::IterApi::forEach</text>
</a>
</g>
</g>
<!-- Node1&#45;&gt;Node2 -->
<g id="edge1" class="edge">
<title>Node1&#45;&gt;Node2</title>
<path fill="none" stroke="midnightblue" d="M119.35,-22.47C127.65,-23.45 136.27,-24.47 144.83,-25.48"/>
<polygon fill="midnightblue" stroke="midnightblue" points="144.49,-28.97 154.83,-26.67 145.31,-22.02 144.49,-28.97"/>
</g>
<!-- Node3 -->
<g id="node3" class="node">
<title>Node3</title>
<g id="a_node3"><a xlink:href="structCXXIter_1_1IteratorTrait.html#a6981855188842adf93100c490475143c" target="_top" xlink:title="Pull one element from the iterator pipeline previous to this pipeline&#45;element.">
<polygon fill="none" stroke="black" points="325,-0.5 325,-30.5 441,-30.5 441,-0.5 325,-0.5"/>
<text text-anchor="start" x="333" y="-18.5" font-family="Helvetica,sans-Serif" font-size="10.00">CXXIter::IteratorTrait</text>
<text text-anchor="middle" x="383" y="-7.5" font-family="Helvetica,sans-Serif" font-size="10.00">::next</text>
</a>
</g>
</g>
<!-- Node1&#45;&gt;Node3 -->
<g id="edge3" class="edge">
<title>Node1&#45;&gt;Node3</title>
<path fill="none" stroke="midnightblue" d="M119.09,-15.5C174.28,-15.5 256.9,-15.5 314.75,-15.5"/>
<polygon fill="midnightblue" stroke="midnightblue" points="314.89,-19 324.89,-15.5 314.89,-12 314.89,-19"/>
</g>
<!-- Node2&#45;&gt;Node3 -->
<g id="edge2" class="edge">
<title>Node2&#45;&gt;Node3</title>
<path fill="none" stroke="midnightblue" d="M289.05,-26.61C297.48,-25.6 306.12,-24.57 314.57,-23.56"/>
<polygon fill="midnightblue" stroke="midnightblue" points="315.25,-27 324.76,-22.34 314.42,-20.05 315.25,-27"/>
</g>
</g>
</svg>
