<?xml version="1.0" encoding="UTF-8" standalone="no"?>
<!DOCTYPE svg PUBLIC "-//W3C//DTD SVG 1.1//EN"
 "http://www.w3.org/Graphics/SVG/1.1/DTD/svg11.dtd">
<!-- Generated by graphviz version 2.43.0 (0)
 -->
<!-- Title: CXXIter::range Pages: 1 -->
<svg width="214pt" height="46pt"
 viewBox="0.00 0.00 214.00 46.00" xmlns="http://www.w3.org/2000/svg" xmlns:xlink="http://www.w3.org/1999/xlink">
<g id="graph0" class="graph" transform="scale(1 1) rotate(0) translate(4 42)">
<title>CXXIter::range</title>
<!-- Node1 -->
<g id="node1" class="node">
<title>Node1</title>
<g id="a_node1"><a xlink:title="Construct a CXXIter iterator that yields all elements in the range between [from, to] (inclusive both...">
<polygon fill="#bfbfbf" stroke="black" points="0,-0.5 0,-19.5 87,-19.5 87,-0.5 0,-0.5"/>
<text text-anchor="middle" x="43.5" y="-7.5" font-family="Helvetica,sans-Serif" font-size="10.00">CXXIter::range</text>
</a>
</g>
</g>
<!-- Node1&#45;&gt;Node1 -->
<g id="edge3" class="edge">
<title>Node1&#45;&gt;Node1</title>
<path fill="none" stroke="midnightblue" d="M25,-19.76C16.01,-28.57 22.17,-38 43.5,-38 57.16,-38 64.6,-34.13 65.82,-29.03"/>
<polygon fill="midnightblue" stroke="midnightblue" points="69.05,-27.67 62,-19.76 62.57,-30.34 69.05,-27.67"/>
</g>
<!-- Node2 -->
<g id="node2" class="node">
<title>Node2</title>
<g id="a_node2"><a xlink:href="namespaceCXXIter.html#abf8a6e7833d1a5ee280619f29eeee310" target="_top" xlink:title="Construct a CXXIter move source from the given container.">
<polygon fill="none" stroke="black" points="123,-0.5 123,-19.5 206,-19.5 206,-0.5 123,-0.5"/>
<text text-anchor="middle" x="164.5" y="-7.5" font-family="Helvetica,sans-Serif" font-size="10.00">CXXIter::from</text>
</a>
</g>
</g>
<!-- Node1&#45;&gt;Node2 -->
<g id="edge1" class="edge">
<title>Node1&#45;&gt;Node2</title>
<path fill="none" stroke="midnightblue" d="M87.13,-10C95.38,-10 104.1,-10 112.58,-10"/>
<polygon fill="midnightblue" stroke="midnightblue" points="112.76,-13.5 122.76,-10 112.76,-6.5 112.76,-13.5"/>
</g>
<!-- Node2&#45;&gt;Node2 -->
<g id="edge2" class="edge">
<title>Node2&#45;&gt;Node2</title>
<path fill="none" stroke="midnightblue" d="M146,-19.76C137.01,-28.57 143.17,-38 164.5,-38 178.16,-38 185.6,-34.13 186.82,-29.03"/>
<polygon fill="midnightblue" stroke="midnightblue" points="190.05,-27.67 183,-19.76 183.57,-30.34 190.05,-27.67"/>
</g>
</g>
</svg>
