<?xml version="1.0" encoding="UTF-8" standalone="no"?>
<!DOCTYPE svg PUBLIC "-//W3C//DTD SVG 1.1//EN"
 "http://www.w3.org/Graphics/SVG/1.1/DTD/svg11.dtd">
<!-- Generated by graphviz version 2.43.0 (0)
 -->
<!-- Title: CXXIter::from Pages: 1 -->
<svg width="210pt" height="46pt"
 viewBox="0.00 0.00 210.00 46.00" xmlns="http://www.w3.org/2000/svg" xmlns:xlink="http://www.w3.org/1999/xlink">
<g id="graph0" class="graph" transform="scale(1 1) rotate(0) translate(4 42)">
<title>CXXIter::from</title>
<!-- Node1 -->
<g id="node1" class="node">
<title>Node1</title>
<g id="a_node1"><a xlink:title="Construct a CXXIter const&#45;reference source from the given container.">
<polygon fill="#bfbfbf" stroke="black" points="0,-0.5 0,-19.5 83,-19.5 83,-0.5 0,-0.5"/>
<text text-anchor="middle" x="41.5" y="-7.5" font-family="Helvetica,sans-Serif" font-size="10.00">CXXIter::from</text>
</a>
</g>
</g>
<!-- Node2 -->
<g id="node2" class="node">
<title>Node2</title>
<g id="a_node2"><a xlink:href="namespaceCXXIter.html#abf8a6e7833d1a5ee280619f29eeee310" target="_top" xlink:title="Construct a CXXIter move source from the given container.">
<polygon fill="none" stroke="black" points="119,-0.5 119,-19.5 202,-19.5 202,-0.5 119,-0.5"/>
<text text-anchor="middle" x="160.5" y="-7.5" font-family="Helvetica,sans-Serif" font-size="10.00">CXXIter::from</text>
</a>
</g>
</g>
<!-- Node1&#45;&gt;Node2 -->
<g id="edge1" class="edge">
<title>Node1&#45;&gt;Node2</title>
<path fill="none" stroke="midnightblue" d="M83.09,-10C91.35,-10 100.14,-10 108.7,-10"/>
<polygon fill="midnightblue" stroke="midnightblue" points="108.98,-13.5 118.98,-10 108.98,-6.5 108.98,-13.5"/>
</g>
<!-- Node2&#45;&gt;Node2 -->
<g id="edge2" class="edge">
<title>Node2&#45;&gt;Node2</title>
<path fill="none" stroke="midnightblue" d="M142.31,-19.76C133.46,-28.57 139.53,-38 160.5,-38 173.94,-38 181.25,-34.13 182.45,-29.03"/>
<polygon fill="midnightblue" stroke="midnightblue" points="185.69,-27.71 178.69,-19.76 179.2,-30.34 185.69,-27.71"/>
</g>
</g>
</svg>
