<?xml version="1.0" encoding="UTF-8" standalone="no"?>
<!DOCTYPE svg PUBLIC "-//W3C//DTD SVG 1.1//EN"
 "http://www.w3.org/Graphics/SVG/1.1/DTD/svg11.dtd">
<!-- Generated by graphviz version 2.43.0 (0)
 -->
<!-- Title: CXXIter::IterApi::variance Pages: 1 -->
<svg width="780pt" height="65pt"
 viewBox="0.00 0.00 780.00 65.00" xmlns="http://www.w3.org/2000/svg" xmlns:xlink="http://www.w3.org/1999/xlink">
<g id="graph0" class="graph" transform="scale(1 1) rotate(0) translate(4 61)">
<title>CXXIter::IterApi::variance</title>
<!-- Node1 -->
<g id="node1" class="node">
<title>Node1</title>
<g id="a_node1"><a xlink:title="Consumer that calculates the variance of all elements of this iterator.">
<polygon fill="#bfbfbf" stroke="black" points="0,-19.5 0,-38.5 140,-38.5 140,-19.5 0,-19.5"/>
<text text-anchor="middle" x="70" y="-26.5" font-family="Helvetica,sans-Serif" font-size="10.00">CXXIter::IterApi::variance</text>
</a>
</g>
</g>
<!-- Node2 -->
<g id="node2" class="node">
<title>Node2</title>
<g id="a_node2"><a xlink:href="classCXXIter_1_1IterApi.html#aad1cbb262290264fc2e12d80492ad066" target="_top" xlink:title="Consumer that calls the given function useFn for each of the elements in this iterator.">
<polygon fill="none" stroke="black" points="483,-19.5 483,-38.5 617,-38.5 617,-19.5 483,-19.5"/>
<text text-anchor="middle" x="550" y="-26.5" font-family="Helvetica,sans-Serif" font-size="10.00">CXXIter::IterApi::forEach</text>
</a>
</g>
</g>
<!-- Node1&#45;&gt;Node2 -->
<g id="edge1" class="edge">
<title>Node1&#45;&gt;Node2</title>
<path fill="none" stroke="midnightblue" d="M140.25,-29C228.66,-29 381.11,-29 472.75,-29"/>
<polygon fill="midnightblue" stroke="midnightblue" points="472.8,-32.5 482.8,-29 472.8,-25.5 472.8,-32.5"/>
</g>
<!-- Node4 -->
<g id="node4" class="node">
<title>Node4</title>
<g id="a_node4"><a xlink:href="classCXXIter_1_1IterApi.html#a69c182f266a918168975a3764a1fc8eb" target="_top" xlink:title="Consumer that calculates the sum of all elements from this iterator.">
<polygon fill="none" stroke="black" points="176,-0.5 176,-19.5 295,-19.5 295,-0.5 176,-0.5"/>
<text text-anchor="middle" x="235.5" y="-7.5" font-family="Helvetica,sans-Serif" font-size="10.00">CXXIter::IterApi::sum</text>
</a>
</g>
</g>
<!-- Node1&#45;&gt;Node4 -->
<g id="edge4" class="edge">
<title>Node1&#45;&gt;Node4</title>
<path fill="none" stroke="midnightblue" d="M140.34,-20.94C148.75,-19.96 157.35,-18.97 165.76,-17.99"/>
<polygon fill="midnightblue" stroke="midnightblue" points="166.36,-21.44 175.89,-16.81 165.55,-14.49 166.36,-21.44"/>
</g>
<!-- Node3 -->
<g id="node3" class="node">
<title>Node3</title>
<g id="a_node3"><a xlink:href="classCXXIter_1_1IterApi.html#a1a805fbdc20f9eb42e8162d5eb0a1b3e" target="_top" xlink:title="Get the next element from this iterator (if any), wrapped in a CXXIter::IterValue&lt;&gt;.">
<polygon fill="none" stroke="black" points="653,-19.5 653,-38.5 772,-38.5 772,-19.5 653,-19.5"/>
<text text-anchor="middle" x="712.5" y="-26.5" font-family="Helvetica,sans-Serif" font-size="10.00">CXXIter::IterApi::next</text>
</a>
</g>
</g>
<!-- Node2&#45;&gt;Node3 -->
<g id="edge2" class="edge">
<title>Node2&#45;&gt;Node3</title>
<path fill="none" stroke="midnightblue" d="M617.21,-29C625.62,-29 634.24,-29 642.69,-29"/>
<polygon fill="midnightblue" stroke="midnightblue" points="642.89,-32.5 652.89,-29 642.89,-25.5 642.89,-32.5"/>
</g>
<!-- Node3&#45;&gt;Node3 -->
<g id="edge3" class="edge">
<title>Node3&#45;&gt;Node3</title>
<path fill="none" stroke="midnightblue" d="M687.53,-38.76C675.38,-47.57 683.71,-57 712.5,-57 731.85,-57 741.95,-52.74 742.81,-47.27"/>
<polygon fill="midnightblue" stroke="midnightblue" points="745.75,-45.37 737.47,-38.76 739.82,-49.09 745.75,-45.37"/>
</g>
<!-- Node5 -->
<g id="node5" class="node">
<title>Node5</title>
<g id="a_node5"><a xlink:href="classCXXIter_1_1IterApi.html#a16bc04471483e7ce71726036befa551e" target="_top" xlink:title="Consumer that executes the given foldFn for each item in this iterator, to apply to a working value,...">
<polygon fill="none" stroke="black" points="331,-0.5 331,-19.5 447,-19.5 447,-0.5 331,-0.5"/>
<text text-anchor="middle" x="389" y="-7.5" font-family="Helvetica,sans-Serif" font-size="10.00">CXXIter::IterApi::fold</text>
</a>
</g>
</g>
<!-- Node4&#45;&gt;Node5 -->
<g id="edge5" class="edge">
<title>Node4&#45;&gt;Node5</title>
<path fill="none" stroke="midnightblue" d="M295.07,-10C303.36,-10 311.94,-10 320.38,-10"/>
<polygon fill="midnightblue" stroke="midnightblue" points="320.58,-13.5 330.58,-10 320.58,-6.5 320.58,-13.5"/>
</g>
<!-- Node5&#45;&gt;Node2 -->
<g id="edge6" class="edge">
<title>Node5&#45;&gt;Node2</title>
<path fill="none" stroke="midnightblue" d="M447.4,-16.86C455.65,-17.84 464.24,-18.87 472.78,-19.89"/>
<polygon fill="midnightblue" stroke="midnightblue" points="472.42,-23.37 482.76,-21.09 473.25,-16.42 472.42,-23.37"/>
</g>
</g>
</svg>
