<?xml version="1.0" encoding="UTF-8" standalone="no"?>
<!DOCTYPE svg PUBLIC "-//W3C//DTD SVG 1.1//EN"
 "http://www.w3.org/Graphics/SVG/1.1/DTD/svg11.dtd">
<!-- Generated by graphviz version 2.43.0 (0)
 -->
<!-- Title: CXXIter::IterApi::variance Pages: 1 -->
<svg width="780pt" height="64pt"
 viewBox="0.00 0.00 780.00 64.00" xmlns="http://www.w3.org/2000/svg" xmlns:xlink="http://www.w3.org/1999/xlink">
<g id="graph0" class="graph" transform="scale(1 1) rotate(0) translate(4 60)">
<title>CXXIter::IterApi::variance</title>
<!-- Node1 -->
<g id="node1" class="node">
<title>Node1</title>
<g id="a_node1"><a xlink:title="Consumer that calculates the variance of all elements of this iterator.">
<polygon fill="#bfbfbf" stroke="black" points="140,-38 0,-38 0,-19 140,-19 140,-38"/>
<text text-anchor="middle" x="70" y="-26" font-family="Helvetica,sans-Serif" font-size="10.00">CXXIter::IterApi::variance</text>
</a>
</g>
</g>
<!-- Node2 -->
<g id="node2" class="node">
<title>Node2</title>
<g id="a_node2"><a xlink:href="classCXXIter_1_1IterApi.html#aad1cbb262290264fc2e12d80492ad066" target="_top" xlink:title="Consumer that calls the given function useFn for each of the elements in this iterator.">
<polygon fill="none" stroke="black" points="617,-38 483,-38 483,-19 617,-19 617,-38"/>
<text text-anchor="middle" x="550" y="-26" font-family="Helvetica,sans-Serif" font-size="10.00">CXXIter::IterApi::forEach</text>
</a>
</g>
</g>
<!-- Node1&#45;&gt;Node2 -->
<g id="edge1" class="edge">
<title>Node1&#45;&gt;Node2</title>
<path fill="none" stroke="midnightblue" d="M140.25,-28.5C228.66,-28.5 381.11,-28.5 472.75,-28.5"/>
<polygon fill="midnightblue" stroke="midnightblue" points="472.8,-32 482.8,-28.5 472.8,-25 472.8,-32"/>
</g>
<!-- Node4 -->
<g id="node4" class="node">
<title>Node4</title>
<g id="a_node4"><a xlink:href="classCXXIter_1_1IterApi.html#a69c182f266a918168975a3764a1fc8eb" target="_top" xlink:title="Consumer that calculates the sum of all elements from this iterator.">
<polygon fill="none" stroke="black" points="295,-19 176,-19 176,0 295,0 295,-19"/>
<text text-anchor="middle" x="235.5" y="-7" font-family="Helvetica,sans-Serif" font-size="10.00">CXXIter::IterApi::sum</text>
</a>
</g>
</g>
<!-- Node1&#45;&gt;Node4 -->
<g id="edge4" class="edge">
<title>Node1&#45;&gt;Node4</title>
<path fill="none" stroke="midnightblue" d="M140.34,-20.44C148.75,-19.46 157.35,-18.47 165.76,-17.49"/>
<polygon fill="midnightblue" stroke="midnightblue" points="166.36,-20.94 175.89,-16.31 165.55,-13.99 166.36,-20.94"/>
</g>
<!-- Node3 -->
<g id="node3" class="node">
<title>Node3</title>
<g id="a_node3"><a xlink:href="classCXXIter_1_1IterApi.html#a1a805fbdc20f9eb42e8162d5eb0a1b3e" target="_top" xlink:title="Get the next element from this iterator (if any), wrapped in a CXXIter::IterValue&lt;&gt;.">
<polygon fill="none" stroke="black" points="772,-38 653,-38 653,-19 772,-19 772,-38"/>
<text text-anchor="middle" x="712.5" y="-26" font-family="Helvetica,sans-Serif" font-size="10.00">CXXIter::IterApi::next</text>
</a>
</g>
</g>
<!-- Node2&#45;&gt;Node3 -->
<g id="edge2" class="edge">
<title>Node2&#45;&gt;Node3</title>
<path fill="none" stroke="midnightblue" d="M617.21,-28.5C625.62,-28.5 634.24,-28.5 642.69,-28.5"/>
<polygon fill="midnightblue" stroke="midnightblue" points="642.89,-32 652.89,-28.5 642.89,-25 642.89,-32"/>
</g>
<!-- Node3&#45;&gt;Node3 -->
<g id="edge3" class="edge">
<title>Node3&#45;&gt;Node3</title>
<path fill="none" stroke="midnightblue" d="M687.53,-38.08C675.38,-46.73 683.71,-56 712.5,-56 731.4,-56 741.48,-52.01 742.74,-46.82"/>
<polygon fill="midnightblue" stroke="midnightblue" points="745.63,-44.84 737.47,-38.08 739.64,-48.45 745.63,-44.84"/>
</g>
<!-- Node5 -->
<g id="node5" class="node">
<title>Node5</title>
<g id="a_node5"><a xlink:href="classCXXIter_1_1IterApi.html#a16bc04471483e7ce71726036befa551e" target="_top" xlink:title="Consumer that executes the given foldFn for each item in this iterator, to apply to a working value,...">
<polygon fill="none" stroke="black" points="447,-19 331,-19 331,0 447,0 447,-19"/>
<text text-anchor="middle" x="389" y="-7" font-family="Helvetica,sans-Serif" font-size="10.00">CXXIter::IterApi::fold</text>
</a>
</g>
</g>
<!-- Node4&#45;&gt;Node5 -->
<g id="edge5" class="edge">
<title>Node4&#45;&gt;Node5</title>
<path fill="none" stroke="midnightblue" d="M295.07,-9.5C303.36,-9.5 311.94,-9.5 320.38,-9.5"/>
<polygon fill="midnightblue" stroke="midnightblue" points="320.58,-13 330.58,-9.5 320.58,-6 320.58,-13"/>
</g>
<!-- Node5&#45;&gt;Node2 -->
<g id="edge6" class="edge">
<title>Node5&#45;&gt;Node2</title>
<path fill="none" stroke="midnightblue" d="M447.4,-16.36C455.65,-17.34 464.24,-18.37 472.78,-19.39"/>
<polygon fill="midnightblue" stroke="midnightblue" points="472.42,-22.87 482.76,-20.59 473.25,-15.92 472.42,-22.87"/>
</g>
</g>
</svg>
