<?xml version="1.0" encoding="UTF-8" standalone="no"?>
<!DOCTYPE svg PUBLIC "-//W3C//DTD SVG 1.1//EN"
 "http://www.w3.org/Graphics/SVG/1.1/DTD/svg11.dtd">
<!-- Generated by graphviz version 2.43.0 (0)
 -->
<!-- Title: CXXIter::IterApi::maxBy Pages: 1 -->
<svg width="465pt" height="162pt"
 viewBox="0.00 0.00 465.00 161.50" xmlns="http://www.w3.org/2000/svg" xmlns:xlink="http://www.w3.org/1999/xlink">
<g id="graph0" class="graph" transform="scale(1 1) rotate(0) translate(4 157.5)">
<title>CXXIter::IterApi::maxBy</title>
<!-- Node1 -->
<g id="node1" class="node">
<title>Node1</title>
<g id="a_node1"><a xlink:title="Consumer that yields the largest element from this iterator. Comparison of items is done using the co...">
<polygon fill="#bfbfbf" stroke="black" points="132,-93.5 0,-93.5 0,-74.5 132,-74.5 132,-93.5"/>
<text text-anchor="middle" x="66" y="-81.5" font-family="Helvetica,sans-Serif" font-size="10.00">CXXIter::IterApi::maxBy</text>
</a>
</g>
</g>
<!-- Node2 -->
<g id="node2" class="node">
<title>Node2</title>
<g id="a_node2"><a xlink:href="classCXXIter_1_1IterApi.html#aad1cbb262290264fc2e12d80492ad066" target="_top" xlink:title="Consumer that calls the given function useFn for each of the elements in this iterator.">
<polygon fill="none" stroke="black" points="302,-153.5 168,-153.5 168,-134.5 302,-134.5 302,-153.5"/>
<text text-anchor="middle" x="235" y="-141.5" font-family="Helvetica,sans-Serif" font-size="10.00">CXXIter::IterApi::forEach</text>
</a>
</g>
</g>
<!-- Node1&#45;&gt;Node2 -->
<g id="edge1" class="edge">
<title>Node1&#45;&gt;Node2</title>
<path fill="none" stroke="midnightblue" d="M93.46,-93.51C121.6,-103.62 166.28,-119.67 197.69,-130.95"/>
<polygon fill="midnightblue" stroke="midnightblue" points="196.79,-134.35 207.39,-134.44 199.16,-127.76 196.79,-134.35"/>
</g>
<!-- Node3 -->
<g id="node3" class="node">
<title>Node3</title>
<g id="a_node3"><a xlink:href="classCXXIter_1_1IterApi.html#a1a805fbdc20f9eb42e8162d5eb0a1b3e" target="_top" xlink:title="Get the next element from this iterator (if any), wrapped in a CXXIter::IterValue&lt;&gt;.">
<polygon fill="none" stroke="black" points="457,-134.5 338,-134.5 338,-115.5 457,-115.5 457,-134.5"/>
<text text-anchor="middle" x="397.5" y="-122.5" font-family="Helvetica,sans-Serif" font-size="10.00">CXXIter::IterApi::next</text>
</a>
</g>
</g>
<!-- Node1&#45;&gt;Node3 -->
<g id="edge5" class="edge">
<title>Node1&#45;&gt;Node3</title>
<path fill="none" stroke="midnightblue" d="M132.1,-92.1C188.63,-99.13 270.23,-109.29 327.79,-116.45"/>
<polygon fill="midnightblue" stroke="midnightblue" points="327.53,-119.95 337.89,-117.71 328.4,-113 327.53,-119.95"/>
</g>
<!-- Node4 -->
<g id="node4" class="node">
<title>Node4</title>
<g id="a_node4"><a xlink:href="classCXXIter_1_1IterValue.html#a152e5d33392c8437ab8a72707f8acdf2" target="_top" xlink:title="Get whether this optional IteratorValue contains a value.">
<polygon fill="none" stroke="black" points="286.5,-78 183.5,-78 183.5,-48 286.5,-48 286.5,-78"/>
<text text-anchor="start" x="191.5" y="-66" font-family="Helvetica,sans-Serif" font-size="10.00">CXXIter::IterValue</text>
<text text-anchor="middle" x="235" y="-55" font-family="Helvetica,sans-Serif" font-size="10.00">::has_value</text>
</a>
</g>
</g>
<!-- Node1&#45;&gt;Node4 -->
<g id="edge4" class="edge">
<title>Node1&#45;&gt;Node4</title>
<path fill="none" stroke="midnightblue" d="M132.04,-75.82C145.62,-74.11 159.88,-72.32 173.29,-70.63"/>
<polygon fill="midnightblue" stroke="midnightblue" points="173.87,-74.09 183.35,-69.37 172.99,-67.14 173.87,-74.09"/>
</g>
<!-- Node5 -->
<g id="node5" class="node">
<title>Node5</title>
<g id="a_node5"><a xlink:href="classCXXIter_1_1IterValue.html#a10232ef74599e80b16cafe0b0a0dcc6a" target="_top" xlink:title="Get the contained value (if any).">
<polygon fill="none" stroke="black" points="286.5,-30 183.5,-30 183.5,0 286.5,0 286.5,-30"/>
<text text-anchor="start" x="191.5" y="-18" font-family="Helvetica,sans-Serif" font-size="10.00">CXXIter::IterValue</text>
<text text-anchor="middle" x="235" y="-7" font-family="Helvetica,sans-Serif" font-size="10.00">::value</text>
</a>
</g>
</g>
<!-- Node1&#45;&gt;Node5 -->
<g id="edge6" class="edge">
<title>Node1&#45;&gt;Node5</title>
<path fill="none" stroke="midnightblue" d="M87.32,-74.44C107.59,-65.02 139.7,-50.43 168,-39 172.43,-37.21 177.05,-35.41 181.7,-33.63"/>
<polygon fill="midnightblue" stroke="midnightblue" points="183.1,-36.85 191.23,-30.06 180.64,-30.29 183.1,-36.85"/>
</g>
<!-- Node2&#45;&gt;Node3 -->
<g id="edge2" class="edge">
<title>Node2&#45;&gt;Node3</title>
<path fill="none" stroke="midnightblue" d="M302.21,-136.16C310.62,-135.17 319.24,-134.15 327.69,-133.15"/>
<polygon fill="midnightblue" stroke="midnightblue" points="328.37,-136.59 337.89,-131.94 327.54,-129.64 328.37,-136.59"/>
</g>
<!-- Node3&#45;&gt;Node3 -->
<g id="edge3" class="edge">
<title>Node3&#45;&gt;Node3</title>
<path fill="none" stroke="midnightblue" d="M372.53,-134.58C360.38,-143.23 368.71,-152.5 397.5,-152.5 416.4,-152.5 426.48,-148.51 427.74,-143.32"/>
<polygon fill="midnightblue" stroke="midnightblue" points="430.63,-141.34 422.47,-134.58 424.64,-144.95 430.63,-141.34"/>
</g>
</g>
</svg>
