<?xml version="1.0" encoding="UTF-8" standalone="no"?>
<!DOCTYPE svg PUBLIC "-//W3C//DTD SVG 1.1//EN"
 "http://www.w3.org/Graphics/SVG/1.1/DTD/svg11.dtd">
<!-- Generated by graphviz version 2.43.0 (0)
 -->
<!-- Title: CXXIter::IterApi::begin Pages: 1 -->
<svg width="288pt" height="45pt"
 viewBox="0.00 0.00 288.00 45.00" xmlns="http://www.w3.org/2000/svg" xmlns:xlink="http://www.w3.org/1999/xlink">
<g id="graph0" class="graph" transform="scale(1 1) rotate(0) translate(4 41)">
<title>CXXIter::IterApi::begin</title>
<!-- Node1 -->
<g id="node1" class="node">
<title>Node1</title>
<g id="a_node1"><a xlink:title="begin() method, part of C++&#39;s iterator interface">
<polygon fill="#bfbfbf" stroke="black" points="125,-19 0,-19 0,0 125,0 125,-19"/>
<text text-anchor="middle" x="62.5" y="-7" font-family="Helvetica,sans-Serif" font-size="10.00">CXXIter::IterApi::begin</text>
</a>
</g>
</g>
<!-- Node2 -->
<g id="node2" class="node">
<title>Node2</title>
<g id="a_node2"><a xlink:href="classCXXIter_1_1IterApi.html#aef0152922ffea88c63e62a31bd2415d1" target="_top" xlink:title="Get the next element from this iterator (if any), wrapped in a CXXIter::IterValue&lt;&gt;.">
<polygon fill="none" stroke="black" points="280,-19 161,-19 161,0 280,0 280,-19"/>
<text text-anchor="middle" x="220.5" y="-7" font-family="Helvetica,sans-Serif" font-size="10.00">CXXIter::IterApi::next</text>
</a>
</g>
</g>
<!-- Node1&#45;&gt;Node2 -->
<g id="edge1" class="edge">
<title>Node1&#45;&gt;Node2</title>
<path fill="none" stroke="midnightblue" d="M125.16,-9.5C133.51,-9.5 142.13,-9.5 150.6,-9.5"/>
<polygon fill="midnightblue" stroke="midnightblue" points="150.84,-13 160.84,-9.5 150.84,-6 150.84,-13"/>
</g>
<!-- Node2&#45;&gt;Node2 -->
<g id="edge2" class="edge">
<title>Node2&#45;&gt;Node2</title>
<path fill="none" stroke="midnightblue" d="M196.15,-19.08C184.3,-27.73 192.42,-37 220.5,-37 238.93,-37 248.76,-33.01 249.99,-27.82"/>
<polygon fill="midnightblue" stroke="midnightblue" points="252.94,-25.93 244.85,-19.08 246.91,-29.48 252.94,-25.93"/>
</g>
</g>
</svg>
