<?xml version="1.0" encoding="UTF-8" standalone="no"?>
<!DOCTYPE svg PUBLIC "-//W3C//DTD SVG 1.1//EN"
 "http://www.w3.org/Graphics/SVG/1.1/DTD/svg11.dtd">
<!-- Generated by graphviz version 2.43.0 (0)
 -->
<!-- Title: CXXIter::IterApi::maxIdxBy Pages: 1 -->
<svg width="480pt" height="200pt"
 viewBox="0.00 0.00 480.00 199.50" xmlns="http://www.w3.org/2000/svg" xmlns:xlink="http://www.w3.org/1999/xlink">
<g id="graph0" class="graph" transform="scale(1 1) rotate(0) translate(4 195.5)">
<title>CXXIter::IterApi::maxIdxBy</title>
<!-- Node1 -->
<g id="node1" class="node">
<title>Node1</title>
<g id="a_node1"><a xlink:title="Consumer that yields the index of the largest element from this iterator. Comparison of items is done...">
<polygon fill="#bfbfbf" stroke="black" points="147,-88.5 0,-88.5 0,-69.5 147,-69.5 147,-88.5"/>
<text text-anchor="middle" x="73.5" y="-76.5" font-family="Helvetica,sans-Serif" font-size="10.00">CXXIter::IterApi::maxIdxBy</text>
</a>
</g>
</g>
<!-- Node2 -->
<g id="node2" class="node">
<title>Node2</title>
<g id="a_node2"><a xlink:href="classCXXIter_1_1IterApi.html#a79fda2fe3278009952d9eb1d73e2545e" target="_top" xlink:title="Consumer that calls the given function useFn for each of the elements in this iterator.">
<polygon fill="none" stroke="black" points="317,-191.5 183,-191.5 183,-172.5 317,-172.5 317,-191.5"/>
<text text-anchor="middle" x="250" y="-179.5" font-family="Helvetica,sans-Serif" font-size="10.00">CXXIter::IterApi::forEach</text>
</a>
</g>
</g>
<!-- Node1&#45;&gt;Node2 -->
<g id="edge1" class="edge">
<title>Node1&#45;&gt;Node2</title>
<path fill="none" stroke="midnightblue" d="M85.51,-88.66C104.37,-104.81 144.54,-137.53 183,-158 190.66,-162.08 199.16,-165.74 207.44,-168.91"/>
<polygon fill="midnightblue" stroke="midnightblue" points="206.41,-172.25 217,-172.39 208.8,-165.68 206.41,-172.25"/>
</g>
<!-- Node3 -->
<g id="node3" class="node">
<title>Node3</title>
<g id="a_node3"><a xlink:href="classCXXIter_1_1IterApi.html#aef0152922ffea88c63e62a31bd2415d1" target="_top" xlink:title="Get the next element from this iterator (if any), wrapped in a CXXIter::IterValue&lt;&gt;.">
<polygon fill="none" stroke="black" points="472,-172.5 353,-172.5 353,-153.5 472,-153.5 472,-172.5"/>
<text text-anchor="middle" x="412.5" y="-160.5" font-family="Helvetica,sans-Serif" font-size="10.00">CXXIter::IterApi::next</text>
</a>
</g>
</g>
<!-- Node1&#45;&gt;Node3 -->
<g id="edge7" class="edge">
<title>Node1&#45;&gt;Node3</title>
<path fill="none" stroke="midnightblue" d="M93.21,-88.54C114.45,-98.99 150.39,-115.52 183,-125 235.6,-140.29 296.9,-150.07 342.77,-155.87"/>
<polygon fill="midnightblue" stroke="midnightblue" points="342.54,-159.37 352.9,-157.12 343.4,-152.42 342.54,-159.37"/>
</g>
<!-- Node4 -->
<g id="node4" class="node">
<title>Node4</title>
<g id="a_node4"><a xlink:href="classCXXIter_1_1IterValue.html#a1328a0235310a7b0610f2ca7f0f08d4d" target="_top" xlink:title="Get whether this optional IteratorValue contains a value.">
<polygon fill="none" stroke="black" points="301.5,-116 198.5,-116 198.5,-86 301.5,-86 301.5,-116"/>
<text text-anchor="start" x="206.5" y="-104" font-family="Helvetica,sans-Serif" font-size="10.00">CXXIter::IterValue</text>
<text text-anchor="middle" x="250" y="-93" font-family="Helvetica,sans-Serif" font-size="10.00">::has_value</text>
</a>
</g>
</g>
<!-- Node1&#45;&gt;Node4 -->
<g id="edge4" class="edge">
<title>Node1&#45;&gt;Node4</title>
<path fill="none" stroke="midnightblue" d="M147.24,-88.17C160.95,-89.9 175.16,-91.69 188.45,-93.37"/>
<polygon fill="midnightblue" stroke="midnightblue" points="188.05,-96.84 198.41,-94.62 188.92,-89.9 188.05,-96.84"/>
</g>
<!-- Node5 -->
<g id="node5" class="node">
<title>Node5</title>
<g id="a_node5"><a xlink:href="classCXXIter_1_1IterApi.html#a13baffc264bf22d214c9d79aefb0e8a9" target="_top" xlink:title="Consumer that yields the index of the largest element within this iterator.">
<polygon fill="none" stroke="black" points="317,-67.5 183,-67.5 183,-48.5 317,-48.5 317,-67.5"/>
<text text-anchor="middle" x="250" y="-55.5" font-family="Helvetica,sans-Serif" font-size="10.00">CXXIter::IterApi::maxIdx</text>
</a>
</g>
</g>
<!-- Node1&#45;&gt;Node5 -->
<g id="edge5" class="edge">
<title>Node1&#45;&gt;Node5</title>
<path fill="none" stroke="midnightblue" d="M108.15,-69.49C126.61,-66.24 150.3,-62.98 172.96,-60.45"/>
<polygon fill="midnightblue" stroke="midnightblue" points="173.37,-63.93 182.94,-59.38 172.62,-56.97 173.37,-63.93"/>
</g>
<!-- Node6 -->
<g id="node6" class="node">
<title>Node6</title>
<g id="a_node6"><a xlink:href="classCXXIter_1_1IterValue.html#ae90e2e32a4cf74ed8cc186086abbab82" target="_top" xlink:title="Get the contained value (if any).">
<polygon fill="none" stroke="black" points="301.5,-30 198.5,-30 198.5,0 301.5,0 301.5,-30"/>
<text text-anchor="start" x="206.5" y="-18" font-family="Helvetica,sans-Serif" font-size="10.00">CXXIter::IterValue</text>
<text text-anchor="middle" x="250" y="-7" font-family="Helvetica,sans-Serif" font-size="10.00">::value</text>
</a>
</g>
</g>
<!-- Node1&#45;&gt;Node6 -->
<g id="edge8" class="edge">
<title>Node1&#45;&gt;Node6</title>
<path fill="none" stroke="midnightblue" d="M100.62,-69.42C126.39,-59.97 166.44,-45.28 198.44,-33.54"/>
<polygon fill="midnightblue" stroke="midnightblue" points="199.91,-36.73 208.09,-30 197.49,-30.16 199.91,-36.73"/>
</g>
<!-- Node2&#45;&gt;Node3 -->
<g id="edge2" class="edge">
<title>Node2&#45;&gt;Node3</title>
<path fill="none" stroke="midnightblue" d="M317.21,-174.16C325.62,-173.17 334.24,-172.15 342.69,-171.15"/>
<polygon fill="midnightblue" stroke="midnightblue" points="343.37,-174.59 352.89,-169.94 342.54,-167.64 343.37,-174.59"/>
</g>
<!-- Node3&#45;&gt;Node3 -->
<g id="edge3" class="edge">
<title>Node3&#45;&gt;Node3</title>
<path fill="none" stroke="midnightblue" d="M387.53,-172.58C375.38,-181.23 383.71,-190.5 412.5,-190.5 431.4,-190.5 441.48,-186.51 442.74,-181.32"/>
<polygon fill="midnightblue" stroke="midnightblue" points="445.63,-179.34 437.47,-172.58 439.64,-182.95 445.63,-179.34"/>
</g>
<!-- Node5&#45;&gt;Node1 -->
<g id="edge6" class="edge">
<title>Node5&#45;&gt;Node1</title>
<path fill="none" stroke="midnightblue" d="M215.16,-67.54C198.54,-70.46 177.73,-73.39 157.25,-75.78"/>
<polygon fill="midnightblue" stroke="midnightblue" points="156.78,-72.31 147.24,-76.91 157.57,-79.27 156.78,-72.31"/>
</g>
</g>
</svg>
