<?xml version="1.0" encoding="UTF-8" standalone="no"?>
<!DOCTYPE svg PUBLIC "-//W3C//DTD SVG 1.1//EN"
 "http://www.w3.org/Graphics/SVG/1.1/DTD/svg11.dtd">
<!-- Generated by graphviz version 2.43.0 (0)
 -->
<!-- Title: CXXIter::IterApi::last Pages: 1 -->
<svg width="449pt" height="46pt"
 viewBox="0.00 0.00 449.00 46.00" xmlns="http://www.w3.org/2000/svg" xmlns:xlink="http://www.w3.org/1999/xlink">
<g id="graph0" class="graph" transform="scale(1 1) rotate(0) translate(4 42)">
<title>CXXIter::IterApi::last</title>
<!-- Node1 -->
<g id="node1" class="node">
<title>Node1</title>
<g id="a_node1"><a xlink:title="Consumer that yields the last element of this iterator.">
<polygon fill="#bfbfbf" stroke="black" points="0,-0.5 0,-19.5 116,-19.5 116,-0.5 0,-0.5"/>
<text text-anchor="middle" x="58" y="-7.5" font-family="Helvetica,sans-Serif" font-size="10.00">CXXIter::IterApi::last</text>
</a>
</g>
</g>
<!-- Node2 -->
<g id="node2" class="node">
<title>Node2</title>
<g id="a_node2"><a xlink:href="classCXXIter_1_1IterApi.html#aad1cbb262290264fc2e12d80492ad066" target="_top" xlink:title="Consumer that calls the given function useFn for each of the elements in this iterator.">
<polygon fill="none" stroke="black" points="152,-0.5 152,-19.5 286,-19.5 286,-0.5 152,-0.5"/>
<text text-anchor="middle" x="219" y="-7.5" font-family="Helvetica,sans-Serif" font-size="10.00">CXXIter::IterApi::forEach</text>
</a>
</g>
</g>
<!-- Node1&#45;&gt;Node2 -->
<g id="edge1" class="edge">
<title>Node1&#45;&gt;Node2</title>
<path fill="none" stroke="midnightblue" d="M116.4,-10C124.56,-10 133.06,-10 141.51,-10"/>
<polygon fill="midnightblue" stroke="midnightblue" points="141.76,-13.5 151.76,-10 141.76,-6.5 141.76,-13.5"/>
</g>
<!-- Node3 -->
<g id="node3" class="node">
<title>Node3</title>
<g id="a_node3"><a xlink:href="classCXXIter_1_1IterApi.html#a1a805fbdc20f9eb42e8162d5eb0a1b3e" target="_top" xlink:title="Get the next element from this iterator (if any), wrapped in a CXXIter::IterValue&lt;&gt;.">
<polygon fill="none" stroke="black" points="322,-0.5 322,-19.5 441,-19.5 441,-0.5 322,-0.5"/>
<text text-anchor="middle" x="381.5" y="-7.5" font-family="Helvetica,sans-Serif" font-size="10.00">CXXIter::IterApi::next</text>
</a>
</g>
</g>
<!-- Node2&#45;&gt;Node3 -->
<g id="edge2" class="edge">
<title>Node2&#45;&gt;Node3</title>
<path fill="none" stroke="midnightblue" d="M286.21,-10C294.62,-10 303.24,-10 311.69,-10"/>
<polygon fill="midnightblue" stroke="midnightblue" points="311.89,-13.5 321.89,-10 311.89,-6.5 311.89,-13.5"/>
</g>
<!-- Node3&#45;&gt;Node3 -->
<g id="edge3" class="edge">
<title>Node3&#45;&gt;Node3</title>
<path fill="none" stroke="midnightblue" d="M356.53,-19.76C344.38,-28.57 352.71,-38 381.5,-38 400.85,-38 410.95,-33.74 411.81,-28.27"/>
<polygon fill="midnightblue" stroke="midnightblue" points="414.75,-26.37 406.47,-19.76 408.82,-30.09 414.75,-26.37"/>
</g>
</g>
</svg>
