<?xml version="1.0" encoding="UTF-8" standalone="no"?>
<!DOCTYPE svg PUBLIC "-//W3C//DTD SVG 1.1//EN"
 "http://www.w3.org/Graphics/SVG/1.1/DTD/svg11.dtd">
<!-- Generated by graphviz version 2.43.0 (0)
 -->
<!-- Title: CXXIter::IterApi&lt; TSelf &gt;::iterator Pages: 1 -->
<svg width="130pt" height="98pt"
 viewBox="0.00 0.00 130.00 98.00" xmlns="http://www.w3.org/2000/svg" xmlns:xlink="http://www.w3.org/1999/xlink">
<g id="graph0" class="graph" transform="scale(1 1) rotate(0) translate(4 94)">
<title>CXXIter::IterApi&lt; TSelf &gt;::iterator</title>
<!-- Node1 -->
<g id="node1" class="node">
<title>Node1</title>
<g id="a_node1"><a xlink:title="C++ iterator implementation for a CXXIter chain.">
<polygon fill="#999999" stroke="transparent" points="122,-90 0,-90 0,0 122,0 122,-90"/>
<text text-anchor="start" x="5" y="-78" font-family="Helvetica,sans-Serif" font-size="10.00">CXXIter::IterApi&lt; TSelf</text>
<text text-anchor="start" x="34" y="-67" font-family="Helvetica,sans-Serif" font-size="10.00"> &gt;::iterator</text>
<text text-anchor="start" x="59" y="-52" font-family="Helvetica,sans-Serif" font-size="10.00"> </text>
<text text-anchor="start" x="12.5" y="-37" font-family="Helvetica,sans-Serif" font-size="10.00">+</text>
<text text-anchor="start" x="34" y="-37" font-family="Helvetica,sans-Serif" font-size="10.00">operator++()</text>
<text text-anchor="start" x="12.5" y="-22" font-family="Helvetica,sans-Serif" font-size="10.00">+</text>
<text text-anchor="start" x="34" y="-22" font-family="Helvetica,sans-Serif" font-size="10.00">operator*()</text>
<text text-anchor="start" x="12.5" y="-7" font-family="Helvetica,sans-Serif" font-size="10.00">+</text>
<text text-anchor="start" x="34" y="-7" font-family="Helvetica,sans-Serif" font-size="10.00">operator!=()</text>
<polygon fill="#666666" stroke="#666666" points="0,-62 0,-62 122,-62 122,-62 0,-62"/>
<polygon fill="#666666" stroke="#666666" points="0,-47 0,-47 122,-47 122,-47 0,-47"/>
<polygon fill="none" stroke="#666666" points="0,0 0,-90 122,-90 122,0 0,0"/>
</a>
</g>
</g>
</g>
</svg>
