<?xml version="1.0" encoding="UTF-8" standalone="no"?>
<!DOCTYPE svg PUBLIC "-//W3C//DTD SVG 1.1//EN"
 "http://www.w3.org/Graphics/SVG/1.1/DTD/svg11.dtd">
<!-- Generated by graphviz version 2.43.0 (0)
 -->
<!-- Title: CXXIter::IterApi::maxIdxBy Pages: 1 -->
<svg width="483pt" height="204pt"
 viewBox="0.00 0.00 483.00 203.50" xmlns="http://www.w3.org/2000/svg" xmlns:xlink="http://www.w3.org/1999/xlink">
<g id="graph0" class="graph" transform="scale(1 1) rotate(0) translate(4 199.5)">
<title>CXXIter::IterApi::maxIdxBy</title>
<!-- Node1 -->
<g id="node1" class="node">
<title>Node1</title>
<g id="a_node1"><a xlink:title="Consumer that yields the index of the largest element from this iterator. Comparison of items is done...">
<polygon fill="#bfbfbf" stroke="black" points="0,-72 0,-91 147,-91 147,-72 0,-72"/>
<text text-anchor="middle" x="73.5" y="-79" font-family="Helvetica,sans-Serif" font-size="10.00">CXXIter::IterApi::maxIdxBy</text>
</a>
</g>
</g>
<!-- Node2 -->
<g id="node2" class="node">
<title>Node2</title>
<g id="a_node2"><a xlink:href="classCXXIter_1_1IterApi.html#aad1cbb262290264fc2e12d80492ad066" target="_top" xlink:title="Consumer that calls the given function useFn for each of the elements in this iterator.">
<polygon fill="none" stroke="black" points="183,-176 183,-195 317,-195 317,-176 183,-176"/>
<text text-anchor="middle" x="250" y="-183" font-family="Helvetica,sans-Serif" font-size="10.00">CXXIter::IterApi::forEach</text>
</a>
</g>
</g>
<!-- Node1&#45;&gt;Node2 -->
<g id="edge1" class="edge">
<title>Node1&#45;&gt;Node2</title>
<path fill="none" stroke="midnightblue" d="M85.19,-91.04C103.88,-107.31 144.22,-140.71 183,-161.5 190.65,-165.6 199.14,-169.27 207.42,-172.44"/>
<polygon fill="midnightblue" stroke="midnightblue" points="206.39,-175.79 216.98,-175.93 208.78,-169.21 206.39,-175.79"/>
</g>
<!-- Node3 -->
<g id="node3" class="node">
<title>Node3</title>
<g id="a_node3"><a xlink:href="structCXXIter_1_1trait_1_1Iterator.html#ae0ea73d4371db684ce0317ef4f464110" target="_top" xlink:title="Pull one element from the iterator pipeline previous to this pipeline&#45;element.">
<polygon fill="none" stroke="black" points="353,-151.5 353,-181.5 475,-181.5 475,-151.5 353,-151.5"/>
<text text-anchor="start" x="361" y="-169.5" font-family="Helvetica,sans-Serif" font-size="10.00">CXXIter::trait::Iterator</text>
<text text-anchor="middle" x="414" y="-158.5" font-family="Helvetica,sans-Serif" font-size="10.00">::next</text>
</a>
</g>
</g>
<!-- Node1&#45;&gt;Node3 -->
<g id="edge6" class="edge">
<title>Node1&#45;&gt;Node3</title>
<path fill="none" stroke="midnightblue" d="M92.8,-91.08C113.96,-101.77 150.11,-118.82 183,-128.5 235.34,-143.91 296.33,-153.62 342.35,-159.37"/>
<polygon fill="midnightblue" stroke="midnightblue" points="342.18,-162.88 352.53,-160.61 343.02,-155.93 342.18,-162.88"/>
</g>
<!-- Node4 -->
<g id="node4" class="node">
<title>Node4</title>
<g id="a_node4"><a xlink:href="classCXXIter_1_1IterValue.html#a152e5d33392c8437ab8a72707f8acdf2" target="_top" xlink:title="Get whether this optional IteratorValue contains a value.">
<polygon fill="none" stroke="black" points="198.5,-88.5 198.5,-118.5 301.5,-118.5 301.5,-88.5 198.5,-88.5"/>
<text text-anchor="start" x="206.5" y="-106.5" font-family="Helvetica,sans-Serif" font-size="10.00">CXXIter::IterValue</text>
<text text-anchor="middle" x="250" y="-95.5" font-family="Helvetica,sans-Serif" font-size="10.00">::has_value</text>
</a>
</g>
</g>
<!-- Node1&#45;&gt;Node4 -->
<g id="edge3" class="edge">
<title>Node1&#45;&gt;Node4</title>
<path fill="none" stroke="midnightblue" d="M147.24,-90.67C160.95,-92.4 175.16,-94.19 188.45,-95.87"/>
<polygon fill="midnightblue" stroke="midnightblue" points="188.05,-99.34 198.41,-97.12 188.92,-92.4 188.05,-99.34"/>
</g>
<!-- Node5 -->
<g id="node5" class="node">
<title>Node5</title>
<g id="a_node5"><a xlink:href="classCXXIter_1_1IterApi.html#af161ffefa2006ad6df0bd084d7374f51" target="_top" xlink:title="Consumer that yields the index of the largest element within this iterator.">
<polygon fill="none" stroke="black" points="183,-50 183,-69 317,-69 317,-50 183,-50"/>
<text text-anchor="middle" x="250" y="-57" font-family="Helvetica,sans-Serif" font-size="10.00">CXXIter::IterApi::maxIdx</text>
</a>
</g>
</g>
<!-- Node1&#45;&gt;Node5 -->
<g id="edge4" class="edge">
<title>Node1&#45;&gt;Node5</title>
<path fill="none" stroke="midnightblue" d="M107.32,-71.95C125.81,-68.56 149.73,-65.11 172.64,-62.42"/>
<polygon fill="midnightblue" stroke="midnightblue" points="173.17,-65.89 182.72,-61.28 172.39,-58.93 173.17,-65.89"/>
</g>
<!-- Node6 -->
<g id="node6" class="node">
<title>Node6</title>
<g id="a_node6"><a xlink:href="classCXXIter_1_1IterValue.html#a10232ef74599e80b16cafe0b0a0dcc6a" target="_top" xlink:title="Get the contained value (if any).">
<polygon fill="none" stroke="black" points="198.5,-0.5 198.5,-30.5 301.5,-30.5 301.5,-0.5 198.5,-0.5"/>
<text text-anchor="start" x="206.5" y="-18.5" font-family="Helvetica,sans-Serif" font-size="10.00">CXXIter::IterValue</text>
<text text-anchor="middle" x="250" y="-7.5" font-family="Helvetica,sans-Serif" font-size="10.00">::value</text>
</a>
</g>
</g>
<!-- Node1&#45;&gt;Node6 -->
<g id="edge7" class="edge">
<title>Node1&#45;&gt;Node6</title>
<path fill="none" stroke="midnightblue" d="M99.87,-71.9C125.83,-62.09 166.84,-46.58 199.29,-34.3"/>
<polygon fill="midnightblue" stroke="midnightblue" points="200.94,-37.42 209.06,-30.61 198.47,-30.87 200.94,-37.42"/>
</g>
<!-- Node2&#45;&gt;Node3 -->
<g id="edge2" class="edge">
<title>Node2&#45;&gt;Node3</title>
<path fill="none" stroke="midnightblue" d="M317.36,-177.72C325.75,-176.73 334.35,-175.72 342.79,-174.73"/>
<polygon fill="midnightblue" stroke="midnightblue" points="343.46,-178.18 352.99,-173.54 342.65,-171.23 343.46,-178.18"/>
</g>
<!-- Node5&#45;&gt;Node1 -->
<g id="edge5" class="edge">
<title>Node5&#45;&gt;Node1</title>
<path fill="none" stroke="midnightblue" d="M216.08,-69.07C199.36,-72.13 178.22,-75.24 157.41,-77.79"/>
<polygon fill="midnightblue" stroke="midnightblue" points="156.76,-74.34 147.24,-79 157.58,-81.29 156.76,-74.34"/>
</g>
</g>
</svg>
