<?xml version="1.0" encoding="UTF-8" standalone="no"?>
<!DOCTYPE svg PUBLIC "-//W3C//DTD SVG 1.1//EN"
 "http://www.w3.org/Graphics/SVG/1.1/DTD/svg11.dtd">
<!-- Generated by graphviz version 2.43.0 (0)
 -->
<!-- Title: CXXIter::IterApi::minIdxBy Pages: 1 -->
<svg width="480pt" height="104pt"
 viewBox="0.00 0.00 480.00 104.00" xmlns="http://www.w3.org/2000/svg" xmlns:xlink="http://www.w3.org/1999/xlink">
<g id="graph0" class="graph" transform="scale(1 1) rotate(0) translate(4 100)">
<title>CXXIter::IterApi::minIdxBy</title>
<!-- Node1 -->
<g id="node1" class="node">
<title>Node1</title>
<g id="a_node1"><a xlink:title="Consumer that yields the index of the smallest element from this iterator. Comparison of items is don...">
<polygon fill="#bfbfbf" stroke="black" points="0,-19.5 0,-38.5 144,-38.5 144,-19.5 0,-19.5"/>
<text text-anchor="middle" x="72" y="-26.5" font-family="Helvetica,sans-Serif" font-size="10.00">CXXIter::IterApi::minIdxBy</text>
</a>
</g>
</g>
<!-- Node2 -->
<g id="node2" class="node">
<title>Node2</title>
<g id="a_node2"><a xlink:href="classCXXIter_1_1IterApi.html#aad1cbb262290264fc2e12d80492ad066" target="_top" xlink:title="Consumer that calls the given function useFn for each of the elements in this iterator.">
<polygon fill="none" stroke="black" points="180,-76.5 180,-95.5 314,-95.5 314,-76.5 180,-76.5"/>
<text text-anchor="middle" x="247" y="-83.5" font-family="Helvetica,sans-Serif" font-size="10.00">CXXIter::IterApi::forEach</text>
</a>
</g>
</g>
<!-- Node1&#45;&gt;Node2 -->
<g id="edge1" class="edge">
<title>Node1&#45;&gt;Node2</title>
<path fill="none" stroke="midnightblue" d="M101.96,-38.54C130.77,-48.03 175.18,-62.67 207.07,-73.17"/>
<polygon fill="midnightblue" stroke="midnightblue" points="206.36,-76.62 216.95,-76.43 208.55,-69.97 206.36,-76.62"/>
</g>
<!-- Node3 -->
<g id="node3" class="node">
<title>Node3</title>
<g id="a_node3"><a xlink:href="structCXXIter_1_1trait_1_1Iterator.html#ae0ea73d4371db684ce0317ef4f464110" target="_top" xlink:title="Pull one element from the iterator pipeline previous to this pipeline&#45;element.">
<polygon fill="none" stroke="black" points="350,-52 350,-82 472,-82 472,-52 350,-52"/>
<text text-anchor="start" x="358" y="-70" font-family="Helvetica,sans-Serif" font-size="10.00">CXXIter::trait::Iterator</text>
<text text-anchor="middle" x="411" y="-59" font-family="Helvetica,sans-Serif" font-size="10.00">::next</text>
</a>
</g>
</g>
<!-- Node1&#45;&gt;Node3 -->
<g id="edge5" class="edge">
<title>Node1&#45;&gt;Node3</title>
<path fill="none" stroke="midnightblue" d="M144.06,-37.01C201.62,-43.5 282.31,-52.6 339.68,-59.07"/>
<polygon fill="midnightblue" stroke="midnightblue" points="339.42,-62.56 349.75,-60.21 340.2,-55.61 339.42,-62.56"/>
</g>
<!-- Node4 -->
<g id="node4" class="node">
<title>Node4</title>
<g id="a_node4"><a xlink:href="classCXXIter_1_1IterApi.html#ad191096d655db542272acc7b89f76962" target="_top" xlink:title="Consumer that yields the index of the smallest element within this iterator.">
<polygon fill="none" stroke="black" points="181.5,-0.5 181.5,-19.5 312.5,-19.5 312.5,-0.5 181.5,-0.5"/>
<text text-anchor="middle" x="247" y="-7.5" font-family="Helvetica,sans-Serif" font-size="10.00">CXXIter::IterApi::minIdx</text>
</a>
</g>
</g>
<!-- Node1&#45;&gt;Node4 -->
<g id="edge3" class="edge">
<title>Node1&#45;&gt;Node4</title>
<path fill="none" stroke="midnightblue" d="M108.85,-19.47C126.87,-16.55 149.43,-13.71 171.02,-11.54"/>
<polygon fill="midnightblue" stroke="midnightblue" points="171.56,-15 181.18,-10.56 170.89,-8.03 171.56,-15"/>
</g>
<!-- Node2&#45;&gt;Node3 -->
<g id="edge2" class="edge">
<title>Node2&#45;&gt;Node3</title>
<path fill="none" stroke="midnightblue" d="M314.36,-78.22C322.75,-77.23 331.35,-76.22 339.79,-75.23"/>
<polygon fill="midnightblue" stroke="midnightblue" points="340.46,-78.68 349.99,-74.04 339.65,-71.73 340.46,-78.68"/>
</g>
<!-- Node4&#45;&gt;Node1 -->
<g id="edge4" class="edge">
<title>Node4&#45;&gt;Node1</title>
<path fill="none" stroke="midnightblue" d="M210.28,-19.51C194.05,-22.14 174.13,-24.71 154.55,-26.78"/>
<polygon fill="midnightblue" stroke="midnightblue" points="153.96,-23.33 144.36,-27.82 154.67,-30.29 153.96,-23.33"/>
</g>
</g>
</svg>
