<?xml version="1.0" encoding="UTF-8" standalone="no"?>
<!DOCTYPE svg PUBLIC "-//W3C//DTD SVG 1.1//EN"
 "http://www.w3.org/Graphics/SVG/1.1/DTD/svg11.dtd">
<!-- Generated by graphviz version 2.43.0 (0)
 -->
<!-- Title: CXXIter::IterApi::collect Pages: 1 -->
<svg width="323pt" height="46pt"
 viewBox="0.00 0.00 323.00 46.00" xmlns="http://www.w3.org/2000/svg" xmlns:xlink="http://www.w3.org/1999/xlink">
<g id="graph0" class="graph" transform="scale(1 1) rotate(0) translate(4 42)">
<title>CXXIter::IterApi::collect</title>
<!-- Node1 -->
<g id="node1" class="node">
<title>Node1</title>
<g id="a_node1"><a xlink:title="Consumer that collects all elements from this iterator in a new container of type TTargetContainer.">
<polygon fill="#bfbfbf" stroke="black" points="0,-0.5 0,-19.5 130,-19.5 130,-0.5 0,-0.5"/>
<text text-anchor="middle" x="65" y="-7.5" font-family="Helvetica,sans-Serif" font-size="10.00">CXXIter::IterApi::collect</text>
</a>
</g>
</g>
<!-- Node2 -->
<g id="node2" class="node">
<title>Node2</title>
<g id="a_node2"><a xlink:href="classCXXIter_1_1IterApi.html#ab9f60e619bcb3f2f5728605e5738854c" target="_top" xlink:title="Consumer that collects all elements from this iterator into the given container.">
<polygon fill="none" stroke="black" points="166,-0.5 166,-19.5 315,-19.5 315,-0.5 166,-0.5"/>
<text text-anchor="middle" x="240.5" y="-7.5" font-family="Helvetica,sans-Serif" font-size="10.00">CXXIter::IterApi::collectInto</text>
</a>
</g>
</g>
<!-- Node1&#45;&gt;Node2 -->
<g id="edge1" class="edge">
<title>Node1&#45;&gt;Node2</title>
<path fill="none" stroke="midnightblue" d="M130.11,-10C138.51,-10 147.21,-10 155.86,-10"/>
<polygon fill="midnightblue" stroke="midnightblue" points="155.99,-13.5 165.99,-10 155.99,-6.5 155.99,-13.5"/>
</g>
<!-- Node2&#45;&gt;Node2 -->
<g id="edge2" class="edge">
<title>Node2&#45;&gt;Node2</title>
<path fill="none" stroke="midnightblue" d="M213.68,-19.76C200.63,-28.57 209.57,-38 240.5,-38 261.28,-38 272.13,-33.74 273.06,-28.27"/>
<polygon fill="midnightblue" stroke="midnightblue" points="275.81,-26.09 267.32,-19.76 270.01,-30.01 275.81,-26.09"/>
</g>
</g>
</svg>
