<?xml version="1.0" encoding="UTF-8" standalone="no"?>
<!DOCTYPE svg PUBLIC "-//W3C//DTD SVG 1.1//EN"
 "http://www.w3.org/Graphics/SVG/1.1/DTD/svg11.dtd">
<!-- Generated by graphviz version 2.43.0 (0)
 -->
<!-- Title: CXXIter::IterApi::max Pages: 1 -->
<svg width="620pt" height="162pt"
 viewBox="0.00 0.00 620.00 161.50" xmlns="http://www.w3.org/2000/svg" xmlns:xlink="http://www.w3.org/1999/xlink">
<g id="graph0" class="graph" transform="scale(1 1) rotate(0) translate(4 157.5)">
<title>CXXIter::IterApi::max</title>
<!-- Node1 -->
<g id="node1" class="node">
<title>Node1</title>
<g id="a_node1"><a xlink:title="Consumer that yields the largest element from this iterator.">
<polygon fill="#bfbfbf" stroke="black" points="119,-93.5 0,-93.5 0,-74.5 119,-74.5 119,-93.5"/>
<text text-anchor="middle" x="59.5" y="-81.5" font-family="Helvetica,sans-Serif" font-size="10.00">CXXIter::IterApi::max</text>
</a>
</g>
</g>
<!-- Node2 -->
<g id="node2" class="node">
<title>Node2</title>
<g id="a_node2"><a xlink:href="classCXXIter_1_1IterApi.html#ab52a8aecfbfa75c7ab5606628831687e" target="_top" xlink:title="Consumer that yields the largest element from this iterator. Comparison of items is done using the co...">
<polygon fill="none" stroke="black" points="287,-93.5 155,-93.5 155,-74.5 287,-74.5 287,-93.5"/>
<text text-anchor="middle" x="221" y="-81.5" font-family="Helvetica,sans-Serif" font-size="10.00">CXXIter::IterApi::maxBy</text>
</a>
</g>
</g>
<!-- Node1&#45;&gt;Node2 -->
<g id="edge1" class="edge">
<title>Node1&#45;&gt;Node2</title>
<path fill="none" stroke="midnightblue" d="M119.44,-84C127.64,-84 136.16,-84 144.61,-84"/>
<polygon fill="midnightblue" stroke="midnightblue" points="144.86,-87.5 154.86,-84 144.86,-80.5 144.86,-87.5"/>
</g>
<!-- Node3 -->
<g id="node3" class="node">
<title>Node3</title>
<g id="a_node3"><a xlink:href="classCXXIter_1_1IterApi.html#aad1cbb262290264fc2e12d80492ad066" target="_top" xlink:title="Consumer that calls the given function useFn for each of the elements in this iterator.">
<polygon fill="none" stroke="black" points="457,-153.5 323,-153.5 323,-134.5 457,-134.5 457,-153.5"/>
<text text-anchor="middle" x="390" y="-141.5" font-family="Helvetica,sans-Serif" font-size="10.00">CXXIter::IterApi::forEach</text>
</a>
</g>
</g>
<!-- Node2&#45;&gt;Node3 -->
<g id="edge2" class="edge">
<title>Node2&#45;&gt;Node3</title>
<path fill="none" stroke="midnightblue" d="M248.46,-93.51C276.6,-103.62 321.28,-119.67 352.69,-130.95"/>
<polygon fill="midnightblue" stroke="midnightblue" points="351.79,-134.35 362.39,-134.44 354.16,-127.76 351.79,-134.35"/>
</g>
<!-- Node4 -->
<g id="node4" class="node">
<title>Node4</title>
<g id="a_node4"><a xlink:href="classCXXIter_1_1IterApi.html#a1a805fbdc20f9eb42e8162d5eb0a1b3e" target="_top" xlink:title="Get the next element from this iterator (if any), wrapped in a CXXIter::IterValue&lt;&gt;.">
<polygon fill="none" stroke="black" points="612,-134.5 493,-134.5 493,-115.5 612,-115.5 612,-134.5"/>
<text text-anchor="middle" x="552.5" y="-122.5" font-family="Helvetica,sans-Serif" font-size="10.00">CXXIter::IterApi::next</text>
</a>
</g>
</g>
<!-- Node2&#45;&gt;Node4 -->
<g id="edge6" class="edge">
<title>Node2&#45;&gt;Node4</title>
<path fill="none" stroke="midnightblue" d="M287.1,-92.1C343.63,-99.13 425.23,-109.29 482.79,-116.45"/>
<polygon fill="midnightblue" stroke="midnightblue" points="482.53,-119.95 492.89,-117.71 483.4,-113 482.53,-119.95"/>
</g>
<!-- Node5 -->
<g id="node5" class="node">
<title>Node5</title>
<g id="a_node5"><a xlink:href="classCXXIter_1_1IterValue.html#a152e5d33392c8437ab8a72707f8acdf2" target="_top" xlink:title="Get whether this optional IteratorValue contains a value.">
<polygon fill="none" stroke="black" points="441.5,-78 338.5,-78 338.5,-48 441.5,-48 441.5,-78"/>
<text text-anchor="start" x="346.5" y="-66" font-family="Helvetica,sans-Serif" font-size="10.00">CXXIter::IterValue</text>
<text text-anchor="middle" x="390" y="-55" font-family="Helvetica,sans-Serif" font-size="10.00">::has_value</text>
</a>
</g>
</g>
<!-- Node2&#45;&gt;Node5 -->
<g id="edge5" class="edge">
<title>Node2&#45;&gt;Node5</title>
<path fill="none" stroke="midnightblue" d="M287.04,-75.82C300.62,-74.11 314.88,-72.32 328.29,-70.63"/>
<polygon fill="midnightblue" stroke="midnightblue" points="328.87,-74.09 338.35,-69.37 327.99,-67.14 328.87,-74.09"/>
</g>
<!-- Node6 -->
<g id="node6" class="node">
<title>Node6</title>
<g id="a_node6"><a xlink:href="classCXXIter_1_1IterValue.html#a10232ef74599e80b16cafe0b0a0dcc6a" target="_top" xlink:title="Get the contained value (if any).">
<polygon fill="none" stroke="black" points="441.5,-30 338.5,-30 338.5,0 441.5,0 441.5,-30"/>
<text text-anchor="start" x="346.5" y="-18" font-family="Helvetica,sans-Serif" font-size="10.00">CXXIter::IterValue</text>
<text text-anchor="middle" x="390" y="-7" font-family="Helvetica,sans-Serif" font-size="10.00">::value</text>
</a>
</g>
</g>
<!-- Node2&#45;&gt;Node6 -->
<g id="edge7" class="edge">
<title>Node2&#45;&gt;Node6</title>
<path fill="none" stroke="midnightblue" d="M242.32,-74.44C262.59,-65.02 294.7,-50.43 323,-39 327.43,-37.21 332.05,-35.41 336.7,-33.63"/>
<polygon fill="midnightblue" stroke="midnightblue" points="338.1,-36.85 346.23,-30.06 335.64,-30.29 338.1,-36.85"/>
</g>
<!-- Node3&#45;&gt;Node4 -->
<g id="edge3" class="edge">
<title>Node3&#45;&gt;Node4</title>
<path fill="none" stroke="midnightblue" d="M457.21,-136.16C465.62,-135.17 474.24,-134.15 482.69,-133.15"/>
<polygon fill="midnightblue" stroke="midnightblue" points="483.37,-136.59 492.89,-131.94 482.54,-129.64 483.37,-136.59"/>
</g>
<!-- Node4&#45;&gt;Node4 -->
<g id="edge4" class="edge">
<title>Node4&#45;&gt;Node4</title>
<path fill="none" stroke="midnightblue" d="M527.53,-134.58C515.38,-143.23 523.71,-152.5 552.5,-152.5 571.4,-152.5 581.48,-148.51 582.74,-143.32"/>
<polygon fill="midnightblue" stroke="midnightblue" points="585.63,-141.34 577.47,-134.58 579.64,-144.95 585.63,-141.34"/>
</g>
</g>
</svg>
