<?xml version="1.0" encoding="UTF-8" standalone="no"?>
<!DOCTYPE svg PUBLIC "-//W3C//DTD SVG 1.1//EN"
 "http://www.w3.org/Graphics/SVG/1.1/DTD/svg11.dtd">
<!-- Generated by graphviz version 2.43.0 (0)
 -->
<!-- Title: CXXIter::IterApi::minIdx Pages: 1 -->
<svg width="644pt" height="162pt"
 viewBox="0.00 0.00 644.00 161.50" xmlns="http://www.w3.org/2000/svg" xmlns:xlink="http://www.w3.org/1999/xlink">
<g id="graph0" class="graph" transform="scale(1 1) rotate(0) translate(4 157.5)">
<title>CXXIter::IterApi::minIdx</title>
<!-- Node1 -->
<g id="node1" class="node">
<title>Node1</title>
<g id="a_node1"><a xlink:title="Consumer that yields the index of the smallest element within this iterator.">
<polygon fill="#bfbfbf" stroke="black" points="131,-93.5 0,-93.5 0,-74.5 131,-74.5 131,-93.5"/>
<text text-anchor="middle" x="65.5" y="-81.5" font-family="Helvetica,sans-Serif" font-size="10.00">CXXIter::IterApi::minIdx</text>
</a>
</g>
</g>
<!-- Node2 -->
<g id="node2" class="node">
<title>Node2</title>
<g id="a_node2"><a xlink:href="classCXXIter_1_1IterApi.html#a80fed2b11d55f597ddd51f6f6e302235" target="_top" xlink:title="Consumer that yields the index of the smallest element from this iterator. Comparison of items is don...">
<polygon fill="none" stroke="black" points="311,-93.5 167,-93.5 167,-74.5 311,-74.5 311,-93.5"/>
<text text-anchor="middle" x="239" y="-81.5" font-family="Helvetica,sans-Serif" font-size="10.00">CXXIter::IterApi::minIdxBy</text>
</a>
</g>
</g>
<!-- Node1&#45;&gt;Node2 -->
<g id="edge1" class="edge">
<title>Node1&#45;&gt;Node2</title>
<path fill="none" stroke="midnightblue" d="M131.34,-77.43C139.56,-77.29 148.06,-77.23 156.51,-77.26"/>
<polygon fill="midnightblue" stroke="midnightblue" points="156.74,-80.76 166.76,-77.34 156.79,-73.76 156.74,-80.76"/>
</g>
<!-- Node2&#45;&gt;Node1 -->
<g id="edge6" class="edge">
<title>Node2&#45;&gt;Node1</title>
<path fill="none" stroke="midnightblue" d="M166.76,-90.66C158.42,-90.76 149.88,-90.78 141.49,-90.7"/>
<polygon fill="midnightblue" stroke="midnightblue" points="141.38,-87.2 131.34,-90.57 141.29,-94.2 141.38,-87.2"/>
</g>
<!-- Node3 -->
<g id="node3" class="node">
<title>Node3</title>
<g id="a_node3"><a xlink:href="classCXXIter_1_1IterApi.html#a79fda2fe3278009952d9eb1d73e2545e" target="_top" xlink:title="Consumer that calls the given function useFn for each of the elements in this iterator.">
<polygon fill="none" stroke="black" points="481,-153.5 347,-153.5 347,-134.5 481,-134.5 481,-153.5"/>
<text text-anchor="middle" x="414" y="-141.5" font-family="Helvetica,sans-Serif" font-size="10.00">CXXIter::IterApi::forEach</text>
</a>
</g>
</g>
<!-- Node2&#45;&gt;Node3 -->
<g id="edge2" class="edge">
<title>Node2&#45;&gt;Node3</title>
<path fill="none" stroke="midnightblue" d="M267.41,-93.51C296.68,-103.66 343.24,-119.81 375.81,-131.1"/>
<polygon fill="midnightblue" stroke="midnightblue" points="374.84,-134.47 385.43,-134.44 377.13,-127.85 374.84,-134.47"/>
</g>
<!-- Node4 -->
<g id="node4" class="node">
<title>Node4</title>
<g id="a_node4"><a xlink:href="classCXXIter_1_1IterApi.html#aef0152922ffea88c63e62a31bd2415d1" target="_top" xlink:title="Get the next element from this iterator (if any), wrapped in a CXXIter::IterValue&lt;&gt;.">
<polygon fill="none" stroke="black" points="636,-134.5 517,-134.5 517,-115.5 636,-115.5 636,-134.5"/>
<text text-anchor="middle" x="576.5" y="-122.5" font-family="Helvetica,sans-Serif" font-size="10.00">CXXIter::IterApi::next</text>
</a>
</g>
</g>
<!-- Node2&#45;&gt;Node4 -->
<g id="edge7" class="edge">
<title>Node2&#45;&gt;Node4</title>
<path fill="none" stroke="midnightblue" d="M311.15,-92.7C368.85,-99.75 449.69,-109.63 506.74,-116.6"/>
<polygon fill="midnightblue" stroke="midnightblue" points="506.4,-120.08 516.75,-117.82 507.25,-113.13 506.4,-120.08"/>
</g>
<!-- Node5 -->
<g id="node5" class="node">
<title>Node5</title>
<g id="a_node5"><a xlink:href="classCXXIter_1_1IterValue.html#a1328a0235310a7b0610f2ca7f0f08d4d" target="_top" xlink:title="Get whether this optional IteratorValue contains a value.">
<polygon fill="none" stroke="black" points="465.5,-78 362.5,-78 362.5,-48 465.5,-48 465.5,-78"/>
<text text-anchor="start" x="370.5" y="-66" font-family="Helvetica,sans-Serif" font-size="10.00">CXXIter::IterValue</text>
<text text-anchor="middle" x="414" y="-55" font-family="Helvetica,sans-Serif" font-size="10.00">::has_value</text>
</a>
</g>
</g>
<!-- Node2&#45;&gt;Node5 -->
<g id="edge5" class="edge">
<title>Node2&#45;&gt;Node5</title>
<path fill="none" stroke="midnightblue" d="M311.36,-75.34C325.01,-73.68 339.18,-71.96 352.45,-70.35"/>
<polygon fill="midnightblue" stroke="midnightblue" points="352.89,-73.82 362.39,-69.14 352.05,-66.87 352.89,-73.82"/>
</g>
<!-- Node6 -->
<g id="node6" class="node">
<title>Node6</title>
<g id="a_node6"><a xlink:href="classCXXIter_1_1IterValue.html#ae90e2e32a4cf74ed8cc186086abbab82" target="_top" xlink:title="Get the contained value (if any).">
<polygon fill="none" stroke="black" points="465.5,-30 362.5,-30 362.5,0 465.5,0 465.5,-30"/>
<text text-anchor="start" x="370.5" y="-18" font-family="Helvetica,sans-Serif" font-size="10.00">CXXIter::IterValue</text>
<text text-anchor="middle" x="414" y="-7" font-family="Helvetica,sans-Serif" font-size="10.00">::value</text>
</a>
</g>
</g>
<!-- Node2&#45;&gt;Node6 -->
<g id="edge8" class="edge">
<title>Node2&#45;&gt;Node6</title>
<path fill="none" stroke="midnightblue" d="M262,-74.37C283.54,-65.03 317.35,-50.62 347,-39 351.52,-37.23 356.22,-35.43 360.95,-33.65"/>
<polygon fill="midnightblue" stroke="midnightblue" points="362.48,-36.82 370.63,-30.06 360.04,-30.26 362.48,-36.82"/>
</g>
<!-- Node3&#45;&gt;Node4 -->
<g id="edge3" class="edge">
<title>Node3&#45;&gt;Node4</title>
<path fill="none" stroke="midnightblue" d="M481.21,-136.16C489.62,-135.17 498.24,-134.15 506.69,-133.15"/>
<polygon fill="midnightblue" stroke="midnightblue" points="507.37,-136.59 516.89,-131.94 506.54,-129.64 507.37,-136.59"/>
</g>
<!-- Node4&#45;&gt;Node4 -->
<g id="edge4" class="edge">
<title>Node4&#45;&gt;Node4</title>
<path fill="none" stroke="midnightblue" d="M551.53,-134.58C539.38,-143.23 547.71,-152.5 576.5,-152.5 595.4,-152.5 605.48,-148.51 606.74,-143.32"/>
<polygon fill="midnightblue" stroke="midnightblue" points="609.63,-141.34 601.47,-134.58 603.64,-144.95 609.63,-141.34"/>
</g>
</g>
</svg>
