<?xml version="1.0" encoding="UTF-8" standalone="no"?>
<!DOCTYPE svg PUBLIC "-//W3C//DTD SVG 1.1//EN"
 "http://www.w3.org/Graphics/SVG/1.1/DTD/svg11.dtd">
<!-- Generated by graphviz version 2.43.0 (0)
 -->
<!-- Title: CXXIter::SrcCRef&lt; TContainer &gt; Pages: 1 -->
<svg width="181pt" height="281pt"
 viewBox="0.00 0.00 181.00 281.00" xmlns="http://www.w3.org/2000/svg" xmlns:xlink="http://www.w3.org/1999/xlink">
<g id="graph0" class="graph" transform="scale(1 1) rotate(0) translate(4 277)">
<title>CXXIter::SrcCRef&lt; TContainer &gt;</title>
<!-- Node1 -->
<g id="node1" class="node">
<title>Node1</title>
<g id="a_node1"><a xlink:title="CXXIter iterator source that immutably borrows the input item source, and passes immutable references...">
<polygon fill="#bfbfbf" stroke="black" points="0,-0.5 0,-57.5 173,-57.5 173,-0.5 0,-0.5"/>
<text text-anchor="middle" x="86.5" y="-45.5" font-family="Helvetica,sans-Serif" font-size="10.00">CXXIter::SrcCRef&lt; TContainer &gt;</text>
<polyline fill="none" stroke="black" points="0,-38.5 173,-38.5 "/>
<text text-anchor="middle" x="86.5" y="-26.5" font-family="Helvetica,sans-Serif" font-size="10.00"> </text>
<polyline fill="none" stroke="black" points="0,-19.5 173,-19.5 "/>
<text text-anchor="start" x="8" y="-7.5" font-family="Helvetica,sans-Serif" font-size="10.00">+ SrcCRef()</text>
</a>
</g>
</g>
<!-- Node2 -->
<g id="node2" class="node">
<title>Node2</title>
<g id="a_node2"><a xlink:href="classCXXIter_1_1IterApi.html" target="_top" xlink:title=" ">
<polygon fill="none" stroke="black" points="16,-94.5 16,-272.5 157,-272.5 157,-94.5 16,-94.5"/>
<text text-anchor="start" x="24" y="-260.5" font-family="Helvetica,sans-Serif" font-size="10.00">CXXIter::IterApi&lt; SrcCRef</text>
<text text-anchor="middle" x="86.5" y="-249.5" font-family="Helvetica,sans-Serif" font-size="10.00">&lt; TContainer &gt; &gt;</text>
<polyline fill="none" stroke="black" points="16,-242.5 157,-242.5 "/>
<text text-anchor="middle" x="86.5" y="-230.5" font-family="Helvetica,sans-Serif" font-size="10.00"> </text>
<polyline fill="none" stroke="black" points="16,-223.5 157,-223.5 "/>
<text text-anchor="start" x="24" y="-211.5" font-family="Helvetica,sans-Serif" font-size="10.00">+ ~IterApi()</text>
<text text-anchor="start" x="24" y="-200.5" font-family="Helvetica,sans-Serif" font-size="10.00">+ begin()</text>
<text text-anchor="start" x="24" y="-189.5" font-family="Helvetica,sans-Serif" font-size="10.00">+ end()</text>
<text text-anchor="start" x="24" y="-178.5" font-family="Helvetica,sans-Serif" font-size="10.00">+ sizeHint()</text>
<text text-anchor="start" x="24" y="-167.5" font-family="Helvetica,sans-Serif" font-size="10.00">+ size()</text>
<text text-anchor="start" x="24" y="-156.5" font-family="Helvetica,sans-Serif" font-size="10.00">+ next()</text>
<text text-anchor="start" x="24" y="-145.5" font-family="Helvetica,sans-Serif" font-size="10.00">+ forEach()</text>
<text text-anchor="start" x="24" y="-134.5" font-family="Helvetica,sans-Serif" font-size="10.00">+ collect()</text>
<text text-anchor="start" x="24" y="-123.5" font-family="Helvetica,sans-Serif" font-size="10.00">+ collectInto()</text>
<text text-anchor="start" x="24" y="-112.5" font-family="Helvetica,sans-Serif" font-size="10.00">+ fold()</text>
<text text-anchor="start" x="24" y="-101.5" font-family="Helvetica,sans-Serif" font-size="10.00">and 44 more...</text>
</a>
</g>
</g>
<!-- Node2&#45;&gt;Node1 -->
<g id="edge1" class="edge">
<title>Node2&#45;&gt;Node1</title>
<path fill="none" stroke="midnightblue" d="M86.5,-84.17C86.5,-74.66 86.5,-65.65 86.5,-57.81"/>
<polygon fill="none" stroke="midnightblue" points="83,-84.23 86.5,-94.23 90,-84.23 83,-84.23"/>
</g>
</g>
</svg>
