<?xml version="1.0" encoding="UTF-8" standalone="no"?>
<!DOCTYPE svg PUBLIC "-//W3C//DTD SVG 1.1//EN"
 "http://www.w3.org/Graphics/SVG/1.1/DTD/svg11.dtd">
<!-- Generated by graphviz version 2.43.0 (0)
 -->
<!-- Title: CXXIter::IterApi::count Pages: 1 -->
<svg width="613pt" height="38pt"
 viewBox="0.00 0.00 613.00 38.00" xmlns="http://www.w3.org/2000/svg" xmlns:xlink="http://www.w3.org/1999/xlink">
<g id="graph0" class="graph" transform="scale(1 1) rotate(0) translate(4 34)">
<title>CXXIter::IterApi::count</title>
<!-- Node1 -->
<g id="node1" class="node">
<title>Node1</title>
<g id="a_node1"><a xlink:title="Consumer that counts the elements in this iterator, for which the given predicateFn returns true.">
<polygon fill="#999999" stroke="#666666" points="125,-24.5 0,-24.5 0,-5.5 125,-5.5 125,-24.5"/>
<text text-anchor="middle" x="62.5" y="-12.5" font-family="Helvetica,sans-Serif" font-size="10.00">CXXIter::IterApi::count</text>
</a>
</g>
</g>
<!-- Node2 -->
<g id="node2" class="node">
<title>Node2</title>
<g id="a_node2"><a xlink:href="classCXXIter_1_1IterApi.html#a7f1ac0dcf28ba4cce1b08cd20936f4bf" target="_top" xlink:title="Consumer that executes the given foldFn for each item in this iterator, to apply to a working value,...">
<polygon fill="white" stroke="#666666" points="277,-24.5 161,-24.5 161,-5.5 277,-5.5 277,-24.5"/>
<text text-anchor="middle" x="219" y="-12.5" font-family="Helvetica,sans-Serif" font-size="10.00">CXXIter::IterApi::fold</text>
</a>
</g>
</g>
<!-- Node1&#45;&gt;Node2 -->
<g id="edge1" class="edge">
<title>Node1&#45;&gt;Node2</title>
<path fill="none" stroke="#63b8ff" d="M125.01,-15C133.38,-15 142.02,-15 150.49,-15"/>
<polygon fill="#63b8ff" stroke="#63b8ff" points="150.72,-18.5 160.72,-15 150.72,-11.5 150.72,-18.5"/>
</g>
<!-- Node3 -->
<g id="node3" class="node">
<title>Node3</title>
<g id="a_node3"><a xlink:href="classCXXIter_1_1IterApi.html#a79fda2fe3278009952d9eb1d73e2545e" target="_top" xlink:title="Consumer that calls the given function useFn for each of the elements in this iterator.">
<polygon fill="white" stroke="#666666" points="447,-24.5 313,-24.5 313,-5.5 447,-5.5 447,-24.5"/>
<text text-anchor="middle" x="380" y="-12.5" font-family="Helvetica,sans-Serif" font-size="10.00">CXXIter::IterApi::forEach</text>
</a>
</g>
</g>
<!-- Node2&#45;&gt;Node3 -->
<g id="edge2" class="edge">
<title>Node2&#45;&gt;Node3</title>
<path fill="none" stroke="#63b8ff" d="M277.4,-15C285.56,-15 294.06,-15 302.51,-15"/>
<polygon fill="#63b8ff" stroke="#63b8ff" points="302.76,-18.5 312.76,-15 302.76,-11.5 302.76,-18.5"/>
</g>
<!-- Node4 -->
<g id="node4" class="node">
<title>Node4</title>
<g id="a_node4"><a xlink:href="structCXXIter_1_1trait_1_1Iterator.html#a24ea296105d53bf6a4455c6f818715c2" target="_top" xlink:title="Pull one element from the iterator pipeline previous to this pipeline&#45;element.">
<polygon fill="white" stroke="#666666" points="605,-30 483,-30 483,0 605,0 605,-30"/>
<text text-anchor="start" x="491" y="-18" font-family="Helvetica,sans-Serif" font-size="10.00">CXXIter::trait::Iterator</text>
<text text-anchor="middle" x="544" y="-7" font-family="Helvetica,sans-Serif" font-size="10.00">::next</text>
</a>
</g>
</g>
<!-- Node3&#45;&gt;Node4 -->
<g id="edge3" class="edge">
<title>Node3&#45;&gt;Node4</title>
<path fill="none" stroke="#63b8ff" d="M447.36,-15C455.75,-15 464.35,-15 472.79,-15"/>
<polygon fill="#63b8ff" stroke="#63b8ff" points="472.99,-18.5 482.99,-15 472.99,-11.5 472.99,-18.5"/>
</g>
</g>
</svg>
