<?xml version="1.0" encoding="UTF-8" standalone="no"?>
<!DOCTYPE svg PUBLIC "-//W3C//DTD SVG 1.1//EN"
 "http://www.w3.org/Graphics/SVG/1.1/DTD/svg11.dtd">
<!-- Generated by graphviz version 2.43.0 (0)
 -->
<!-- Title: CXXIter::IterApi::min Pages: 1 -->
<!--zoomable 162 -->
<svg id="main" version="1.1" xmlns="http://www.w3.org/2000/svg" xmlns:xlink="http://www.w3.org/1999/xlink" xml:space="preserve" onload="init(evt)">
<style type="text/css"><![CDATA[
.edge:hover path { stroke: red; }
.edge:hover polygon { stroke: red; fill: red; }
]]></style>
<script type="text/javascript"><![CDATA[
var edges = document.getElementsByTagName('g');
if (edges && edges.length) {
  for (var i=0;i<edges.length;i++) {
    if (edges[i].id.substr(0,4)=='edge') {
      edges[i].setAttribute('class','edge');
    }
  }
}
]]></script>
        <defs>
                <circle id="rim" cx="0" cy="0" r="7"/>
                <circle id="rim2" cx="0" cy="0" r="3.5"/>
                <g id="zoomPlus">
                        <use xlink:href="#rim" fill="#404040">
                                <set attributeName="fill" to="#808080" begin="zoomplus.mouseover" end="zoomplus.mouseout"/>
                        </use>
                        <path d="M-4,0h8M0,-4v8" fill="none" stroke="white" stroke-width="1.5" pointer-events="none"/>
                </g>
                <g id="zoomMin">
                        <use xlink:href="#rim" fill="#404040">
                                <set attributeName="fill" to="#808080" begin="zoomminus.mouseover" end="zoomminus.mouseout"/>
                        </use>
                        <path d="M-4,0h8" fill="none" stroke="white" stroke-width="1.5" pointer-events="none"/>
                </g>
                <g id="dirArrow">
                        <path fill="none" stroke="white" stroke-width="1.5" d="M0,-3.0v7 M-2.5,-0.5L0,-3.0L2.5,-0.5"/>
                </g>
               <g id="resetDef">
                       <use xlink:href="#rim2" fill="#404040">
                               <set attributeName="fill" to="#808080" begin="reset.mouseover" end="reset.mouseout"/>
                       </use>
               </g>
        </defs>

<script type="text/javascript">
var viewWidth = 614;
var viewHeight = 162;
var sectionId = 'dynsection-22';
</script>
<script xlink:href="svgpan.js"/>
<svg id="graph" class="graph">
<g id="viewport">
<title>CXXIter::IterApi::min</title>
<!-- Node1 -->
<g id="node1" class="node">
<title>Node1</title>
<g id="a_node1"><a xlink:title="Consumer that yields the smallest element from this iterator.">
<polygon fill="#bfbfbf" stroke="black" points="116,-93.5 0,-93.5 0,-74.5 116,-74.5 116,-93.5"/>
<text text-anchor="middle" x="58" y="-81.5" font-family="Helvetica,sans-Serif" font-size="10.00">CXXIter::IterApi::min</text>
</a>
</g>
</g>
<!-- Node2 -->
<g id="node2" class="node">
<title>Node2</title>
<g id="a_node2"><a xlink:href="classCXXIter_1_1IterApi.html#a2b119a582aeea0e05e9d6985c4439983" target="_top" xlink:title="Consumer that yields the smallest element from this iterator. Comparison of items is done using the c...">
<polygon fill="none" stroke="black" points="281,-93.5 152,-93.5 152,-74.5 281,-74.5 281,-93.5"/>
<text text-anchor="middle" x="216.5" y="-81.5" font-family="Helvetica,sans-Serif" font-size="10.00">CXXIter::IterApi::minBy</text>
</a>
</g>
</g>
<!-- Node1&#45;&gt;Node2 -->
<g id="edge1" class="edge">
<title>Node1&#45;&gt;Node2</title>
<path fill="none" stroke="midnightblue" d="M116.39,-84C124.57,-84 133.09,-84 141.54,-84"/>
<polygon fill="midnightblue" stroke="midnightblue" points="141.78,-87.5 151.78,-84 141.78,-80.5 141.78,-87.5"/>
</g>
<!-- Node3 -->
<g id="node3" class="node">
<title>Node3</title>
<g id="a_node3"><a xlink:href="classCXXIter_1_1IterApi.html#aad1cbb262290264fc2e12d80492ad066" target="_top" xlink:title="Consumer that calls the given function useFn for each of the elements in this iterator.">
<polygon fill="none" stroke="black" points="451,-153.5 317,-153.5 317,-134.5 451,-134.5 451,-153.5"/>
<text text-anchor="middle" x="384" y="-141.5" font-family="Helvetica,sans-Serif" font-size="10.00">CXXIter::IterApi::forEach</text>
</a>
</g>
</g>
<!-- Node2&#45;&gt;Node3 -->
<g id="edge2" class="edge">
<title>Node2&#45;&gt;Node3</title>
<path fill="none" stroke="midnightblue" d="M243.72,-93.51C271.6,-103.62 315.89,-119.67 347.02,-130.95"/>
<polygon fill="midnightblue" stroke="midnightblue" points="346.03,-134.32 356.63,-134.44 348.42,-127.74 346.03,-134.32"/>
</g>
<!-- Node4 -->
<g id="node4" class="node">
<title>Node4</title>
<g id="a_node4"><a xlink:href="classCXXIter_1_1IterApi.html#a1a805fbdc20f9eb42e8162d5eb0a1b3e" target="_top" xlink:title="Get the next element from this iterator (if any), wrapped in a CXXIter::IterValue&lt;&gt;.">
<polygon fill="none" stroke="black" points="606,-134.5 487,-134.5 487,-115.5 606,-115.5 606,-134.5"/>
<text text-anchor="middle" x="546.5" y="-122.5" font-family="Helvetica,sans-Serif" font-size="10.00">CXXIter::IterApi::next</text>
</a>
</g>
</g>
<!-- Node2&#45;&gt;Node4 -->
<g id="edge6" class="edge">
<title>Node2&#45;&gt;Node4</title>
<path fill="none" stroke="midnightblue" d="M281.13,-91.95C337.28,-98.97 418.94,-109.18 476.61,-116.39"/>
<polygon fill="midnightblue" stroke="midnightblue" points="476.37,-119.89 486.73,-117.65 477.24,-112.94 476.37,-119.89"/>
</g>
<!-- Node5 -->
<g id="node5" class="node">
<title>Node5</title>
<g id="a_node5"><a xlink:href="classCXXIter_1_1IterValue.html#a152e5d33392c8437ab8a72707f8acdf2" target="_top" xlink:title="Get whether this optional IteratorValue contains a value.">
<polygon fill="none" stroke="black" points="435.5,-78 332.5,-78 332.5,-48 435.5,-48 435.5,-78"/>
<text text-anchor="start" x="340.5" y="-66" font-family="Helvetica,sans-Serif" font-size="10.00">CXXIter::IterValue</text>
<text text-anchor="middle" x="384" y="-55" font-family="Helvetica,sans-Serif" font-size="10.00">::has_value</text>
</a>
</g>
</g>
<!-- Node2&#45;&gt;Node5 -->
<g id="edge5" class="edge">
<title>Node2&#45;&gt;Node5</title>
<path fill="none" stroke="midnightblue" d="M281.01,-75.94C294.6,-74.22 308.91,-72.4 322.38,-70.69"/>
<polygon fill="midnightblue" stroke="midnightblue" points="323.01,-74.14 332.49,-69.41 322.13,-67.2 323.01,-74.14"/>
</g>
<!-- Node6 -->
<g id="node6" class="node">
<title>Node6</title>
<g id="a_node6"><a xlink:href="classCXXIter_1_1IterValue.html#a10232ef74599e80b16cafe0b0a0dcc6a" target="_top" xlink:title="Get the contained value (if any).">
<polygon fill="none" stroke="black" points="435.5,-30 332.5,-30 332.5,0 435.5,0 435.5,-30"/>
<text text-anchor="start" x="340.5" y="-18" font-family="Helvetica,sans-Serif" font-size="10.00">CXXIter::IterValue</text>
<text text-anchor="middle" x="384" y="-7" font-family="Helvetica,sans-Serif" font-size="10.00">::value</text>
</a>
</g>
</g>
<!-- Node2&#45;&gt;Node6 -->
<g id="edge7" class="edge">
<title>Node2&#45;&gt;Node6</title>
<path fill="none" stroke="midnightblue" d="M237.51,-74.41C257.46,-64.98 289.08,-50.37 317,-39 321.42,-37.2 326.04,-35.39 330.69,-33.61"/>
<polygon fill="midnightblue" stroke="midnightblue" points="332.09,-36.82 340.21,-30.02 329.62,-30.27 332.09,-36.82"/>
</g>
<!-- Node3&#45;&gt;Node4 -->
<g id="edge3" class="edge">
<title>Node3&#45;&gt;Node4</title>
<path fill="none" stroke="midnightblue" d="M451.21,-136.16C459.62,-135.17 468.24,-134.15 476.69,-133.15"/>
<polygon fill="midnightblue" stroke="midnightblue" points="477.37,-136.59 486.89,-131.94 476.54,-129.64 477.37,-136.59"/>
</g>
<!-- Node4&#45;&gt;Node4 -->
<g id="edge4" class="edge">
<title>Node4&#45;&gt;Node4</title>
<path fill="none" stroke="midnightblue" d="M521.53,-134.58C509.38,-143.23 517.71,-152.5 546.5,-152.5 565.4,-152.5 575.48,-148.51 576.74,-143.32"/>
<polygon fill="midnightblue" stroke="midnightblue" points="579.63,-141.34 571.47,-134.58 573.64,-144.95 579.63,-141.34"/>
</g>
</g>
</svg>
        <g id="navigator" transform="translate(0 0)" fill="#404254">
                <rect fill="#f2f5e9" fill-opacity="0.5" stroke="#606060" stroke-width=".5" x="0" y="0" width="60" height="60"/>
                <use id="zoomplus" xlink:href="#zoomPlus" x="17" y="9" onmousedown="handleZoom(evt,'in')"/>
                <use id="zoomminus" xlink:href="#zoomMin" x="42" y="9" onmousedown="handleZoom(evt,'out')"/>
                <use id="reset" xlink:href="#resetDef" x="30" y="36" onmousedown="handleReset()"/>
                <g id="arrowUp" xlink:href="#dirArrow" transform="translate(30 24)" onmousedown="handlePan(0,-1)">
                  <use xlink:href="#rim" fill="#404040">
                        <set attributeName="fill" to="#808080" begin="arrowUp.mouseover" end="arrowUp.mouseout"/>
                  </use>
                  <path fill="none" stroke="white" stroke-width="1.5" d="M0,-3.0v7 M-2.5,-0.5L0,-3.0L2.5,-0.5"/>
                </g>
                <g id="arrowRight" xlink:href="#dirArrow" transform="rotate(90) translate(36 -43)" onmousedown="handlePan(1,0)">
                  <use xlink:href="#rim" fill="#404040">
                        <set attributeName="fill" to="#808080" begin="arrowRight.mouseover" end="arrowRight.mouseout"/>
                  </use>
                  <path fill="none" stroke="white" stroke-width="1.5" d="M0,-3.0v7 M-2.5,-0.5L0,-3.0L2.5,-0.5"/>
                </g>
                <g id="arrowDown" xlink:href="#dirArrow" transform="rotate(180) translate(-30 -48)" onmousedown="handlePan(0,1)">
                  <use xlink:href="#rim" fill="#404040">
                        <set attributeName="fill" to="#808080" begin="arrowDown.mouseover" end="arrowDown.mouseout"/>
                  </use>
                  <path fill="none" stroke="white" stroke-width="1.5" d="M0,-3.0v7 M-2.5,-0.5L0,-3.0L2.5,-0.5"/>
                </g>
                <g id="arrowLeft" xlink:href="#dirArrow" transform="rotate(270) translate(-36 17)" onmousedown="handlePan(-1,0)">
                  <use xlink:href="#rim" fill="#404040">
                        <set attributeName="fill" to="#808080" begin="arrowLeft.mouseover" end="arrowLeft.mouseout"/>
                  </use>
                  <path fill="none" stroke="white" stroke-width="1.5" d="M0,-3.0v7 M-2.5,-0.5L0,-3.0L2.5,-0.5"/>
                </g>
        </g>
        <svg viewBox="0 0 15 15" width="100%" height="30px" preserveAspectRatio="xMaxYMin meet">
         <g id="arrow_out" transform="scale(0.3 0.3)">
          <a xlink:href="classCXXIter_1_1IterApi_a8cf454fb870bc6d782f5f4a392c39520_cgraph_org.svg" target="_base">
           <rect id="button" ry="5" rx="5" y="6" x="6" height="38" width="38"
                fill="#f2f5e9" fill-opacity="0.5" stroke="#606060" stroke-width="1.0"/>
           <path id="arrow"
             d="M 11.500037,31.436501 C 11.940474,20.09759 22.043105,11.32322 32.158766,21.979434 L 37.068811,17.246167 C 37.068811,17.246167 37.088388,32 37.088388,32 L 22.160133,31.978069 C 22.160133,31.978069 26.997745,27.140456 26.997745,27.140456 C 18.528582,18.264221 13.291696,25.230495 11.500037,31.436501 z"
             style="fill:#404040;"/>
          </a>
         </g>
        </svg>
</svg>
