<?xml version="1.0" encoding="UTF-8" standalone="no"?>
<!DOCTYPE svg PUBLIC "-//W3C//DTD SVG 1.1//EN"
 "http://www.w3.org/Graphics/SVG/1.1/DTD/svg11.dtd">
<!-- Generated by graphviz version 2.43.0 (0)
 -->
<!-- Title: CXXIter::IterApi::maxBy Pages: 1 -->
<svg width="468pt" height="162pt"
 viewBox="0.00 0.00 468.00 161.50" xmlns="http://www.w3.org/2000/svg" xmlns:xlink="http://www.w3.org/1999/xlink">
<g id="graph0" class="graph" transform="scale(1 1) rotate(0) translate(4 157.5)">
<title>CXXIter::IterApi::maxBy</title>
<!-- Node1 -->
<g id="node1" class="node">
<title>Node1</title>
<g id="a_node1"><a xlink:title="Consumer that yields the largest element from this iterator. Comparison of items is done using the co...">
<polygon fill="#999999" stroke="#666666" points="132,-93.5 0,-93.5 0,-74.5 132,-74.5 132,-93.5"/>
<text text-anchor="middle" x="66" y="-81.5" font-family="Helvetica,sans-Serif" font-size="10.00">CXXIter::IterApi::maxBy</text>
</a>
</g>
</g>
<!-- Node2 -->
<g id="node2" class="node">
<title>Node2</title>
<g id="a_node2"><a xlink:href="classCXXIter_1_1IterApi.html#a79fda2fe3278009952d9eb1d73e2545e" target="_top" xlink:title="Consumer that calls the given function useFn for each of the elements in this iterator.">
<polygon fill="white" stroke="#666666" points="302,-153.5 168,-153.5 168,-134.5 302,-134.5 302,-153.5"/>
<text text-anchor="middle" x="235" y="-141.5" font-family="Helvetica,sans-Serif" font-size="10.00">CXXIter::IterApi::forEach</text>
</a>
</g>
</g>
<!-- Node1&#45;&gt;Node2 -->
<g id="edge1" class="edge">
<title>Node1&#45;&gt;Node2</title>
<path fill="none" stroke="#63b8ff" d="M93.46,-93.51C121.6,-103.62 166.28,-119.67 197.69,-130.95"/>
<polygon fill="#63b8ff" stroke="#63b8ff" points="196.79,-134.35 207.39,-134.44 199.16,-127.76 196.79,-134.35"/>
</g>
<!-- Node3 -->
<g id="node3" class="node">
<title>Node3</title>
<g id="a_node3"><a xlink:href="structCXXIter_1_1trait_1_1Iterator.html#a24ea296105d53bf6a4455c6f818715c2" target="_top" xlink:title="Pull one element from the iterator pipeline previous to this pipeline&#45;element.">
<polygon fill="white" stroke="#666666" points="460,-140 338,-140 338,-110 460,-110 460,-140"/>
<text text-anchor="start" x="346" y="-128" font-family="Helvetica,sans-Serif" font-size="10.00">CXXIter::trait::Iterator</text>
<text text-anchor="middle" x="399" y="-117" font-family="Helvetica,sans-Serif" font-size="10.00">::next</text>
</a>
</g>
</g>
<!-- Node1&#45;&gt;Node3 -->
<g id="edge4" class="edge">
<title>Node1&#45;&gt;Node3</title>
<path fill="none" stroke="#63b8ff" d="M132,-92.05C188.39,-99.04 269.84,-109.12 327.72,-116.29"/>
<polygon fill="#63b8ff" stroke="#63b8ff" points="327.53,-119.8 337.88,-117.55 328.39,-112.85 327.53,-119.8"/>
</g>
<!-- Node4 -->
<g id="node4" class="node">
<title>Node4</title>
<g id="a_node4"><a xlink:href="classCXXIter_1_1IterValue.html#a1328a0235310a7b0610f2ca7f0f08d4d" target="_top" xlink:title="Get whether this optional IteratorValue contains a value.">
<polygon fill="white" stroke="#666666" points="286.5,-78 183.5,-78 183.5,-48 286.5,-48 286.5,-78"/>
<text text-anchor="start" x="191.5" y="-66" font-family="Helvetica,sans-Serif" font-size="10.00">CXXIter::IterValue</text>
<text text-anchor="middle" x="235" y="-55" font-family="Helvetica,sans-Serif" font-size="10.00">::has_value</text>
</a>
</g>
</g>
<!-- Node1&#45;&gt;Node4 -->
<g id="edge3" class="edge">
<title>Node1&#45;&gt;Node4</title>
<path fill="none" stroke="#63b8ff" d="M132.04,-75.82C145.62,-74.11 159.88,-72.32 173.29,-70.63"/>
<polygon fill="#63b8ff" stroke="#63b8ff" points="173.87,-74.09 183.35,-69.37 172.99,-67.14 173.87,-74.09"/>
</g>
<!-- Node5 -->
<g id="node5" class="node">
<title>Node5</title>
<g id="a_node5"><a xlink:href="classCXXIter_1_1IterValue.html#ae90e2e32a4cf74ed8cc186086abbab82" target="_top" xlink:title="Get the contained value (if any).">
<polygon fill="white" stroke="#666666" points="286.5,-30 183.5,-30 183.5,0 286.5,0 286.5,-30"/>
<text text-anchor="start" x="191.5" y="-18" font-family="Helvetica,sans-Serif" font-size="10.00">CXXIter::IterValue</text>
<text text-anchor="middle" x="235" y="-7" font-family="Helvetica,sans-Serif" font-size="10.00">::value</text>
</a>
</g>
</g>
<!-- Node1&#45;&gt;Node5 -->
<g id="edge5" class="edge">
<title>Node1&#45;&gt;Node5</title>
<path fill="none" stroke="#63b8ff" d="M87.32,-74.44C107.59,-65.02 139.7,-50.43 168,-39 172.43,-37.21 177.05,-35.41 181.7,-33.63"/>
<polygon fill="#63b8ff" stroke="#63b8ff" points="183.1,-36.85 191.23,-30.06 180.64,-30.29 183.1,-36.85"/>
</g>
<!-- Node2&#45;&gt;Node3 -->
<g id="edge2" class="edge">
<title>Node2&#45;&gt;Node3</title>
<path fill="none" stroke="#63b8ff" d="M302.36,-136.22C310.75,-135.23 319.35,-134.22 327.79,-133.23"/>
<polygon fill="#63b8ff" stroke="#63b8ff" points="328.46,-136.68 337.99,-132.04 327.65,-129.73 328.46,-136.68"/>
</g>
</g>
</svg>
