<?xml version="1.0" encoding="UTF-8" standalone="no"?>
<!DOCTYPE svg PUBLIC "-//W3C//DTD SVG 1.1//EN"
 "http://www.w3.org/Graphics/SVG/1.1/DTD/svg11.dtd">
<!-- Generated by graphviz version 2.43.0 (0)
 -->
<!-- Title: CXXIter::IterApi::min Pages: 1 -->
<svg width="614pt" height="162pt"
 viewBox="0.00 0.00 614.00 161.50" xmlns="http://www.w3.org/2000/svg" xmlns:xlink="http://www.w3.org/1999/xlink">
<g id="graph0" class="graph" transform="scale(1 1) rotate(0) translate(4 157.5)">
<title>CXXIter::IterApi::min</title>
<!-- Node1 -->
<g id="node1" class="node">
<title>Node1</title>
<g id="a_node1"><a xlink:title="Consumer that yields the smallest element from this iterator.">
<polygon fill="#bfbfbf" stroke="black" points="116,-93.5 0,-93.5 0,-74.5 116,-74.5 116,-93.5"/>
<text text-anchor="middle" x="58" y="-81.5" font-family="Helvetica,sans-Serif" font-size="10.00">CXXIter::IterApi::min</text>
</a>
</g>
</g>
<!-- Node2 -->
<g id="node2" class="node">
<title>Node2</title>
<g id="a_node2"><a xlink:href="classCXXIter_1_1IterApi.html#a17745e6efd608be5bba03e67b252c02d" target="_top" xlink:title="Consumer that yields the smallest element from this iterator. Comparison of items is done using the c...">
<polygon fill="none" stroke="black" points="281,-93.5 152,-93.5 152,-74.5 281,-74.5 281,-93.5"/>
<text text-anchor="middle" x="216.5" y="-81.5" font-family="Helvetica,sans-Serif" font-size="10.00">CXXIter::IterApi::minBy</text>
</a>
</g>
</g>
<!-- Node1&#45;&gt;Node2 -->
<g id="edge1" class="edge">
<title>Node1&#45;&gt;Node2</title>
<path fill="none" stroke="midnightblue" d="M116.39,-84C124.57,-84 133.09,-84 141.54,-84"/>
<polygon fill="midnightblue" stroke="midnightblue" points="141.78,-87.5 151.78,-84 141.78,-80.5 141.78,-87.5"/>
</g>
<!-- Node3 -->
<g id="node3" class="node">
<title>Node3</title>
<g id="a_node3"><a xlink:href="classCXXIter_1_1IterApi.html#a79fda2fe3278009952d9eb1d73e2545e" target="_top" xlink:title="Consumer that calls the given function useFn for each of the elements in this iterator.">
<polygon fill="none" stroke="black" points="451,-153.5 317,-153.5 317,-134.5 451,-134.5 451,-153.5"/>
<text text-anchor="middle" x="384" y="-141.5" font-family="Helvetica,sans-Serif" font-size="10.00">CXXIter::IterApi::forEach</text>
</a>
</g>
</g>
<!-- Node2&#45;&gt;Node3 -->
<g id="edge2" class="edge">
<title>Node2&#45;&gt;Node3</title>
<path fill="none" stroke="midnightblue" d="M243.72,-93.51C271.6,-103.62 315.89,-119.67 347.02,-130.95"/>
<polygon fill="midnightblue" stroke="midnightblue" points="346.03,-134.32 356.63,-134.44 348.42,-127.74 346.03,-134.32"/>
</g>
<!-- Node4 -->
<g id="node4" class="node">
<title>Node4</title>
<g id="a_node4"><a xlink:href="classCXXIter_1_1IterApi.html#aef0152922ffea88c63e62a31bd2415d1" target="_top" xlink:title="Get the next element from this iterator (if any), wrapped in a CXXIter::IterValue&lt;&gt;.">
<polygon fill="none" stroke="black" points="606,-134.5 487,-134.5 487,-115.5 606,-115.5 606,-134.5"/>
<text text-anchor="middle" x="546.5" y="-122.5" font-family="Helvetica,sans-Serif" font-size="10.00">CXXIter::IterApi::next</text>
</a>
</g>
</g>
<!-- Node2&#45;&gt;Node4 -->
<g id="edge6" class="edge">
<title>Node2&#45;&gt;Node4</title>
<path fill="none" stroke="midnightblue" d="M281.13,-91.95C337.28,-98.97 418.94,-109.18 476.61,-116.39"/>
<polygon fill="midnightblue" stroke="midnightblue" points="476.37,-119.89 486.73,-117.65 477.24,-112.94 476.37,-119.89"/>
</g>
<!-- Node5 -->
<g id="node5" class="node">
<title>Node5</title>
<g id="a_node5"><a xlink:href="classCXXIter_1_1IterValue.html#a1328a0235310a7b0610f2ca7f0f08d4d" target="_top" xlink:title="Get whether this optional IteratorValue contains a value.">
<polygon fill="none" stroke="black" points="435.5,-78 332.5,-78 332.5,-48 435.5,-48 435.5,-78"/>
<text text-anchor="start" x="340.5" y="-66" font-family="Helvetica,sans-Serif" font-size="10.00">CXXIter::IterValue</text>
<text text-anchor="middle" x="384" y="-55" font-family="Helvetica,sans-Serif" font-size="10.00">::has_value</text>
</a>
</g>
</g>
<!-- Node2&#45;&gt;Node5 -->
<g id="edge5" class="edge">
<title>Node2&#45;&gt;Node5</title>
<path fill="none" stroke="midnightblue" d="M281.01,-75.94C294.6,-74.22 308.91,-72.4 322.38,-70.69"/>
<polygon fill="midnightblue" stroke="midnightblue" points="323.01,-74.14 332.49,-69.41 322.13,-67.2 323.01,-74.14"/>
</g>
<!-- Node6 -->
<g id="node6" class="node">
<title>Node6</title>
<g id="a_node6"><a xlink:href="classCXXIter_1_1IterValue.html#ae90e2e32a4cf74ed8cc186086abbab82" target="_top" xlink:title="Get the contained value (if any).">
<polygon fill="none" stroke="black" points="435.5,-30 332.5,-30 332.5,0 435.5,0 435.5,-30"/>
<text text-anchor="start" x="340.5" y="-18" font-family="Helvetica,sans-Serif" font-size="10.00">CXXIter::IterValue</text>
<text text-anchor="middle" x="384" y="-7" font-family="Helvetica,sans-Serif" font-size="10.00">::value</text>
</a>
</g>
</g>
<!-- Node2&#45;&gt;Node6 -->
<g id="edge7" class="edge">
<title>Node2&#45;&gt;Node6</title>
<path fill="none" stroke="midnightblue" d="M237.51,-74.41C257.46,-64.98 289.08,-50.37 317,-39 321.42,-37.2 326.04,-35.39 330.69,-33.61"/>
<polygon fill="midnightblue" stroke="midnightblue" points="332.09,-36.82 340.21,-30.02 329.62,-30.27 332.09,-36.82"/>
</g>
<!-- Node3&#45;&gt;Node4 -->
<g id="edge3" class="edge">
<title>Node3&#45;&gt;Node4</title>
<path fill="none" stroke="midnightblue" d="M451.21,-136.16C459.62,-135.17 468.24,-134.15 476.69,-133.15"/>
<polygon fill="midnightblue" stroke="midnightblue" points="477.37,-136.59 486.89,-131.94 476.54,-129.64 477.37,-136.59"/>
</g>
<!-- Node4&#45;&gt;Node4 -->
<g id="edge4" class="edge">
<title>Node4&#45;&gt;Node4</title>
<path fill="none" stroke="midnightblue" d="M521.53,-134.58C509.38,-143.23 517.71,-152.5 546.5,-152.5 565.4,-152.5 575.48,-148.51 576.74,-143.32"/>
<polygon fill="midnightblue" stroke="midnightblue" points="579.63,-141.34 571.47,-134.58 573.64,-144.95 579.63,-141.34"/>
</g>
</g>
</svg>
