<?xml version="1.0" encoding="UTF-8" standalone="no"?>
<!DOCTYPE svg PUBLIC "-//W3C//DTD SVG 1.1//EN"
 "http://www.w3.org/Graphics/SVG/1.1/DTD/svg11.dtd">
<!-- Generated by graphviz version 2.43.0 (0)
 -->
<!-- Title: CXXIter::IterApi::sum Pages: 1 -->
<svg width="607pt" height="38pt"
 viewBox="0.00 0.00 607.00 38.00" xmlns="http://www.w3.org/2000/svg" xmlns:xlink="http://www.w3.org/1999/xlink">
<g id="graph0" class="graph" transform="scale(1 1) rotate(0) translate(4 34)">
<title>CXXIter::IterApi::sum</title>
<!-- Node1 -->
<g id="node1" class="node">
<title>Node1</title>
<g id="a_node1"><a xlink:title="Consumer that calculates the sum of all elements from this iterator.">
<polygon fill="#999999" stroke="#666666" points="119,-24.5 0,-24.5 0,-5.5 119,-5.5 119,-24.5"/>
<text text-anchor="middle" x="59.5" y="-12.5" font-family="Helvetica,sans-Serif" font-size="10.00">CXXIter::IterApi::sum</text>
</a>
</g>
</g>
<!-- Node2 -->
<g id="node2" class="node">
<title>Node2</title>
<g id="a_node2"><a xlink:href="classCXXIter_1_1IterApi.html#a7f1ac0dcf28ba4cce1b08cd20936f4bf" target="_top" xlink:title="Consumer that executes the given foldFn for each item in this iterator, to apply to a working value,...">
<polygon fill="white" stroke="#666666" points="271,-24.5 155,-24.5 155,-5.5 271,-5.5 271,-24.5"/>
<text text-anchor="middle" x="213" y="-12.5" font-family="Helvetica,sans-Serif" font-size="10.00">CXXIter::IterApi::fold</text>
</a>
</g>
</g>
<!-- Node1&#45;&gt;Node2 -->
<g id="edge1" class="edge">
<title>Node1&#45;&gt;Node2</title>
<path fill="none" stroke="#63b8ff" d="M119.07,-15C127.36,-15 135.94,-15 144.38,-15"/>
<polygon fill="#63b8ff" stroke="#63b8ff" points="144.58,-18.5 154.58,-15 144.58,-11.5 144.58,-18.5"/>
</g>
<!-- Node3 -->
<g id="node3" class="node">
<title>Node3</title>
<g id="a_node3"><a xlink:href="classCXXIter_1_1IterApi.html#a79fda2fe3278009952d9eb1d73e2545e" target="_top" xlink:title="Consumer that calls the given function useFn for each of the elements in this iterator.">
<polygon fill="white" stroke="#666666" points="441,-24.5 307,-24.5 307,-5.5 441,-5.5 441,-24.5"/>
<text text-anchor="middle" x="374" y="-12.5" font-family="Helvetica,sans-Serif" font-size="10.00">CXXIter::IterApi::forEach</text>
</a>
</g>
</g>
<!-- Node2&#45;&gt;Node3 -->
<g id="edge2" class="edge">
<title>Node2&#45;&gt;Node3</title>
<path fill="none" stroke="#63b8ff" d="M271.4,-15C279.56,-15 288.06,-15 296.51,-15"/>
<polygon fill="#63b8ff" stroke="#63b8ff" points="296.76,-18.5 306.76,-15 296.76,-11.5 296.76,-18.5"/>
</g>
<!-- Node4 -->
<g id="node4" class="node">
<title>Node4</title>
<g id="a_node4"><a xlink:href="structCXXIter_1_1trait_1_1Iterator.html#a24ea296105d53bf6a4455c6f818715c2" target="_top" xlink:title="Pull one element from the iterator pipeline previous to this pipeline&#45;element.">
<polygon fill="white" stroke="#666666" points="599,-30 477,-30 477,0 599,0 599,-30"/>
<text text-anchor="start" x="485" y="-18" font-family="Helvetica,sans-Serif" font-size="10.00">CXXIter::trait::Iterator</text>
<text text-anchor="middle" x="538" y="-7" font-family="Helvetica,sans-Serif" font-size="10.00">::next</text>
</a>
</g>
</g>
<!-- Node3&#45;&gt;Node4 -->
<g id="edge3" class="edge">
<title>Node3&#45;&gt;Node4</title>
<path fill="none" stroke="#63b8ff" d="M441.36,-15C449.75,-15 458.35,-15 466.79,-15"/>
<polygon fill="#63b8ff" stroke="#63b8ff" points="466.99,-18.5 476.99,-15 466.99,-11.5 466.99,-18.5"/>
</g>
</g>
</svg>
