<?xml version="1.0" encoding="UTF-8" standalone="no"?>
<!DOCTYPE svg PUBLIC "-//W3C//DTD SVG 1.1//EN"
 "http://www.w3.org/Graphics/SVG/1.1/DTD/svg11.dtd">
<!-- Generated by graphviz version 2.43.0 (0)
 -->
<!-- Title: CXXIter::IterApi::min Pages: 1 -->
<svg width="617pt" height="53pt"
 viewBox="0.00 0.00 617.00 52.50" xmlns="http://www.w3.org/2000/svg" xmlns:xlink="http://www.w3.org/1999/xlink">
<g id="graph0" class="graph" transform="scale(1 1) rotate(0) translate(4 48.5)">
<title>CXXIter::IterApi::min</title>
<!-- Node1 -->
<g id="node1" class="node">
<title>Node1</title>
<g id="a_node1"><a xlink:title="Consumer that yields the smallest element from this iterator.">
<polygon fill="#bfbfbf" stroke="black" points="0,-6 0,-25 116,-25 116,-6 0,-6"/>
<text text-anchor="middle" x="58" y="-13" font-family="Helvetica,sans-Serif" font-size="10.00">CXXIter::IterApi::min</text>
</a>
</g>
</g>
<!-- Node2 -->
<g id="node2" class="node">
<title>Node2</title>
<g id="a_node2"><a xlink:href="classCXXIter_1_1IterApi.html#a2b119a582aeea0e05e9d6985c4439983" target="_top" xlink:title="Consumer that yields the smallest element from this iterator. Comparison of items is done using the c...">
<polygon fill="none" stroke="black" points="152,-6 152,-25 281,-25 281,-6 152,-6"/>
<text text-anchor="middle" x="216.5" y="-13" font-family="Helvetica,sans-Serif" font-size="10.00">CXXIter::IterApi::minBy</text>
</a>
</g>
</g>
<!-- Node1&#45;&gt;Node2 -->
<g id="edge1" class="edge">
<title>Node1&#45;&gt;Node2</title>
<path fill="none" stroke="midnightblue" d="M116.39,-15.5C124.57,-15.5 133.09,-15.5 141.54,-15.5"/>
<polygon fill="midnightblue" stroke="midnightblue" points="141.78,-19 151.78,-15.5 141.78,-12 141.78,-19"/>
</g>
<!-- Node3 -->
<g id="node3" class="node">
<title>Node3</title>
<g id="a_node3"><a xlink:href="classCXXIter_1_1IterApi.html#aad1cbb262290264fc2e12d80492ad066" target="_top" xlink:title="Consumer that calls the given function useFn for each of the elements in this iterator.">
<polygon fill="none" stroke="black" points="317,-25 317,-44 451,-44 451,-25 317,-25"/>
<text text-anchor="middle" x="384" y="-32" font-family="Helvetica,sans-Serif" font-size="10.00">CXXIter::IterApi::forEach</text>
</a>
</g>
</g>
<!-- Node2&#45;&gt;Node3 -->
<g id="edge2" class="edge">
<title>Node2&#45;&gt;Node3</title>
<path fill="none" stroke="midnightblue" d="M281.01,-22.79C289.47,-23.76 298.2,-24.76 306.84,-25.76"/>
<polygon fill="midnightblue" stroke="midnightblue" points="306.58,-29.25 316.91,-26.91 307.38,-22.3 306.58,-29.25"/>
</g>
<!-- Node4 -->
<g id="node4" class="node">
<title>Node4</title>
<g id="a_node4"><a xlink:href="structCXXIter_1_1trait_1_1IteratorTrait.html#a7a3de8ab8551a98a82b82a789b6ee81f" target="_top" xlink:title="Pull one element from the iterator pipeline previous to this pipeline&#45;element.">
<polygon fill="none" stroke="black" points="487,-0.5 487,-30.5 609,-30.5 609,-0.5 487,-0.5"/>
<text text-anchor="start" x="495" y="-18.5" font-family="Helvetica,sans-Serif" font-size="10.00">CXXIter::trait::Iterator</text>
<text text-anchor="middle" x="548" y="-7.5" font-family="Helvetica,sans-Serif" font-size="10.00">Trait::next</text>
</a>
</g>
</g>
<!-- Node2&#45;&gt;Node4 -->
<g id="edge4" class="edge">
<title>Node2&#45;&gt;Node4</title>
<path fill="none" stroke="midnightblue" d="M281.03,-15.5C337.13,-15.5 418.8,-15.5 476.81,-15.5"/>
<polygon fill="midnightblue" stroke="midnightblue" points="477,-19 487,-15.5 477,-12 477,-19"/>
</g>
<!-- Node3&#45;&gt;Node4 -->
<g id="edge3" class="edge">
<title>Node3&#45;&gt;Node4</title>
<path fill="none" stroke="midnightblue" d="M451.36,-26.72C459.75,-25.73 468.35,-24.72 476.79,-23.73"/>
<polygon fill="midnightblue" stroke="midnightblue" points="477.46,-27.18 486.99,-22.54 476.65,-20.23 477.46,-27.18"/>
</g>
</g>
</svg>
