<?xml version="1.0" encoding="UTF-8" standalone="no"?>
<!DOCTYPE svg PUBLIC "-//W3C//DTD SVG 1.1//EN"
 "http://www.w3.org/Graphics/SVG/1.1/DTD/svg11.dtd">
<!-- Generated by graphviz version 2.43.0 (0)
 -->
<!-- Title: CXXIter::IterApi::collect Pages: 1 -->
<svg width="323pt" height="45pt"
 viewBox="0.00 0.00 323.00 45.00" xmlns="http://www.w3.org/2000/svg" xmlns:xlink="http://www.w3.org/1999/xlink">
<g id="graph0" class="graph" transform="scale(1 1) rotate(0) translate(4 41)">
<title>CXXIter::IterApi::collect</title>
<!-- Node1 -->
<g id="node1" class="node">
<title>Node1</title>
<g id="a_node1"><a xlink:title="Consumer that collects all elements from this iterator in a new container of type TTargetContainer.">
<polygon fill="#bfbfbf" stroke="black" points="130,-19 0,-19 0,0 130,0 130,-19"/>
<text text-anchor="middle" x="65" y="-7" font-family="Helvetica,sans-Serif" font-size="10.00">CXXIter::IterApi::collect</text>
</a>
</g>
</g>
<!-- Node2 -->
<g id="node2" class="node">
<title>Node2</title>
<g id="a_node2"><a xlink:href="classCXXIter_1_1IterApi.html#a04aad46c9bc5467092b5c9cfd547b7d0" target="_top" xlink:title="Consumer that collects all elements from this iterator into the given container.">
<polygon fill="none" stroke="black" points="315,-19 166,-19 166,0 315,0 315,-19"/>
<text text-anchor="middle" x="240.5" y="-7" font-family="Helvetica,sans-Serif" font-size="10.00">CXXIter::IterApi::collectInto</text>
</a>
</g>
</g>
<!-- Node1&#45;&gt;Node2 -->
<g id="edge1" class="edge">
<title>Node1&#45;&gt;Node2</title>
<path fill="none" stroke="midnightblue" d="M130.11,-9.5C138.51,-9.5 147.21,-9.5 155.86,-9.5"/>
<polygon fill="midnightblue" stroke="midnightblue" points="155.99,-13 165.99,-9.5 155.99,-6 155.99,-13"/>
</g>
<!-- Node2&#45;&gt;Node2 -->
<g id="edge2" class="edge">
<title>Node2&#45;&gt;Node2</title>
<path fill="none" stroke="midnightblue" d="M213.68,-19.08C200.63,-27.73 209.57,-37 240.5,-37 261.28,-37 272.13,-32.82 273.06,-27.45"/>
<polygon fill="midnightblue" stroke="midnightblue" points="275.86,-25.35 267.32,-19.08 270.09,-29.31 275.86,-25.35"/>
</g>
</g>
</svg>
