<?xml version="1.0" encoding="UTF-8" standalone="no"?>
<!DOCTYPE svg PUBLIC "-//W3C//DTD SVG 1.1//EN"
 "http://www.w3.org/Graphics/SVG/1.1/DTD/svg11.dtd">
<!-- Generated by graphviz version 2.43.0 (0)
 -->
<!-- Title: CXXIter::IterApi::count Pages: 1 -->
<svg width="610pt" height="45pt"
 viewBox="0.00 0.00 610.00 45.00" xmlns="http://www.w3.org/2000/svg" xmlns:xlink="http://www.w3.org/1999/xlink">
<g id="graph0" class="graph" transform="scale(1 1) rotate(0) translate(4 41)">
<title>CXXIter::IterApi::count</title>
<!-- Node1 -->
<g id="node1" class="node">
<title>Node1</title>
<g id="a_node1"><a xlink:title="Consumer that counts the elements in this iterator, for which the given predicateFn returns true.">
<polygon fill="#bfbfbf" stroke="black" points="125,-19 0,-19 0,0 125,0 125,-19"/>
<text text-anchor="middle" x="62.5" y="-7" font-family="Helvetica,sans-Serif" font-size="10.00">CXXIter::IterApi::count</text>
</a>
</g>
</g>
<!-- Node2 -->
<g id="node2" class="node">
<title>Node2</title>
<g id="a_node2"><a xlink:href="classCXXIter_1_1IterApi.html#a7f1ac0dcf28ba4cce1b08cd20936f4bf" target="_top" xlink:title="Consumer that executes the given foldFn for each item in this iterator, to apply to a working value,...">
<polygon fill="none" stroke="black" points="277,-19 161,-19 161,0 277,0 277,-19"/>
<text text-anchor="middle" x="219" y="-7" font-family="Helvetica,sans-Serif" font-size="10.00">CXXIter::IterApi::fold</text>
</a>
</g>
</g>
<!-- Node1&#45;&gt;Node2 -->
<g id="edge1" class="edge">
<title>Node1&#45;&gt;Node2</title>
<path fill="none" stroke="midnightblue" d="M125.01,-9.5C133.38,-9.5 142.02,-9.5 150.49,-9.5"/>
<polygon fill="midnightblue" stroke="midnightblue" points="150.72,-13 160.72,-9.5 150.72,-6 150.72,-13"/>
</g>
<!-- Node3 -->
<g id="node3" class="node">
<title>Node3</title>
<g id="a_node3"><a xlink:href="classCXXIter_1_1IterApi.html#a79fda2fe3278009952d9eb1d73e2545e" target="_top" xlink:title="Consumer that calls the given function useFn for each of the elements in this iterator.">
<polygon fill="none" stroke="black" points="447,-19 313,-19 313,0 447,0 447,-19"/>
<text text-anchor="middle" x="380" y="-7" font-family="Helvetica,sans-Serif" font-size="10.00">CXXIter::IterApi::forEach</text>
</a>
</g>
</g>
<!-- Node2&#45;&gt;Node3 -->
<g id="edge2" class="edge">
<title>Node2&#45;&gt;Node3</title>
<path fill="none" stroke="midnightblue" d="M277.4,-9.5C285.56,-9.5 294.06,-9.5 302.51,-9.5"/>
<polygon fill="midnightblue" stroke="midnightblue" points="302.76,-13 312.76,-9.5 302.76,-6 302.76,-13"/>
</g>
<!-- Node4 -->
<g id="node4" class="node">
<title>Node4</title>
<g id="a_node4"><a xlink:href="classCXXIter_1_1IterApi.html#aef0152922ffea88c63e62a31bd2415d1" target="_top" xlink:title="Get the next element from this iterator (if any), wrapped in a CXXIter::IterValue&lt;&gt;.">
<polygon fill="none" stroke="black" points="602,-19 483,-19 483,0 602,0 602,-19"/>
<text text-anchor="middle" x="542.5" y="-7" font-family="Helvetica,sans-Serif" font-size="10.00">CXXIter::IterApi::next</text>
</a>
</g>
</g>
<!-- Node3&#45;&gt;Node4 -->
<g id="edge3" class="edge">
<title>Node3&#45;&gt;Node4</title>
<path fill="none" stroke="midnightblue" d="M447.21,-9.5C455.62,-9.5 464.24,-9.5 472.69,-9.5"/>
<polygon fill="midnightblue" stroke="midnightblue" points="472.89,-13 482.89,-9.5 472.89,-6 472.89,-13"/>
</g>
<!-- Node4&#45;&gt;Node4 -->
<g id="edge4" class="edge">
<title>Node4&#45;&gt;Node4</title>
<path fill="none" stroke="midnightblue" d="M517.53,-19.08C505.38,-27.73 513.71,-37 542.5,-37 561.4,-37 571.48,-33.01 572.74,-27.82"/>
<polygon fill="midnightblue" stroke="midnightblue" points="575.63,-25.84 567.47,-19.08 569.64,-29.45 575.63,-25.84"/>
</g>
</g>
</svg>
