<?xml version="1.0" encoding="UTF-8" standalone="no"?>
<!DOCTYPE svg PUBLIC "-//W3C//DTD SVG 1.1//EN"
 "http://www.w3.org/Graphics/SVG/1.1/DTD/svg11.dtd">
<!-- Generated by graphviz version 2.43.0 (0)
 -->
<!-- Title: CXXIter::IterApi::minBy Pages: 1 -->
<svg width="465pt" height="53pt"
 viewBox="0.00 0.00 465.00 52.50" xmlns="http://www.w3.org/2000/svg" xmlns:xlink="http://www.w3.org/1999/xlink">
<g id="graph0" class="graph" transform="scale(1 1) rotate(0) translate(4 48.5)">
<title>CXXIter::IterApi::minBy</title>
<!-- Node1 -->
<g id="node1" class="node">
<title>Node1</title>
<g id="a_node1"><a xlink:title="Consumer that yields the smallest element from this iterator. Comparison of items is done using the c...">
<polygon fill="#bfbfbf" stroke="black" points="0,-6 0,-25 129,-25 129,-6 0,-6"/>
<text text-anchor="middle" x="64.5" y="-13" font-family="Helvetica,sans-Serif" font-size="10.00">CXXIter::IterApi::minBy</text>
</a>
</g>
</g>
<!-- Node2 -->
<g id="node2" class="node">
<title>Node2</title>
<g id="a_node2"><a xlink:href="classCXXIter_1_1IterApi.html#aad1cbb262290264fc2e12d80492ad066" target="_top" xlink:title="Consumer that calls the given function useFn for each of the elements in this iterator.">
<polygon fill="none" stroke="black" points="165,-25 165,-44 299,-44 299,-25 165,-25"/>
<text text-anchor="middle" x="232" y="-32" font-family="Helvetica,sans-Serif" font-size="10.00">CXXIter::IterApi::forEach</text>
</a>
</g>
</g>
<!-- Node1&#45;&gt;Node2 -->
<g id="edge1" class="edge">
<title>Node1&#45;&gt;Node2</title>
<path fill="none" stroke="midnightblue" d="M129.01,-22.79C137.47,-23.76 146.2,-24.76 154.84,-25.76"/>
<polygon fill="midnightblue" stroke="midnightblue" points="154.58,-29.25 164.91,-26.91 155.38,-22.3 154.58,-29.25"/>
</g>
<!-- Node3 -->
<g id="node3" class="node">
<title>Node3</title>
<g id="a_node3"><a xlink:href="structCXXIter_1_1trait_1_1IteratorTrait.html#a7a3de8ab8551a98a82b82a789b6ee81f" target="_top" xlink:title="Pull one element from the iterator pipeline previous to this pipeline&#45;element.">
<polygon fill="none" stroke="black" points="335,-0.5 335,-30.5 457,-30.5 457,-0.5 335,-0.5"/>
<text text-anchor="start" x="343" y="-18.5" font-family="Helvetica,sans-Serif" font-size="10.00">CXXIter::trait::Iterator</text>
<text text-anchor="middle" x="396" y="-7.5" font-family="Helvetica,sans-Serif" font-size="10.00">Trait::next</text>
</a>
</g>
</g>
<!-- Node1&#45;&gt;Node3 -->
<g id="edge3" class="edge">
<title>Node1&#45;&gt;Node3</title>
<path fill="none" stroke="midnightblue" d="M129.03,-15.5C185.13,-15.5 266.8,-15.5 324.81,-15.5"/>
<polygon fill="midnightblue" stroke="midnightblue" points="325,-19 335,-15.5 325,-12 325,-19"/>
</g>
<!-- Node2&#45;&gt;Node3 -->
<g id="edge2" class="edge">
<title>Node2&#45;&gt;Node3</title>
<path fill="none" stroke="midnightblue" d="M299.36,-26.72C307.75,-25.73 316.35,-24.72 324.79,-23.73"/>
<polygon fill="midnightblue" stroke="midnightblue" points="325.46,-27.18 334.99,-22.54 324.65,-20.23 325.46,-27.18"/>
</g>
</g>
</svg>
