<?xml version="1.0" encoding="UTF-8" standalone="no"?>
<!DOCTYPE svg PUBLIC "-//W3C//DTD SVG 1.1//EN"
 "http://www.w3.org/Graphics/SVG/1.1/DTD/svg11.dtd">
<!-- Generated by graphviz version 2.43.0 (0)
 -->
<!-- Title: CXXIter::IterApi::minIdxBy Pages: 1 -->
<svg width="477pt" height="200pt"
 viewBox="0.00 0.00 477.00 199.50" xmlns="http://www.w3.org/2000/svg" xmlns:xlink="http://www.w3.org/1999/xlink">
<g id="graph0" class="graph" transform="scale(1 1) rotate(0) translate(4 195.5)">
<title>CXXIter::IterApi::minIdxBy</title>
<!-- Node1 -->
<g id="node1" class="node">
<title>Node1</title>
<g id="a_node1"><a xlink:title="Consumer that yields the index of the smallest element from this iterator. Comparison of items is don...">
<polygon fill="#bfbfbf" stroke="black" points="144,-88.5 0,-88.5 0,-69.5 144,-69.5 144,-88.5"/>
<text text-anchor="middle" x="72" y="-76.5" font-family="Helvetica,sans-Serif" font-size="10.00">CXXIter::IterApi::minIdxBy</text>
</a>
</g>
</g>
<!-- Node2 -->
<g id="node2" class="node">
<title>Node2</title>
<g id="a_node2"><a xlink:href="classCXXIter_1_1IterApi.html#a79fda2fe3278009952d9eb1d73e2545e" target="_top" xlink:title="Consumer that calls the given function useFn for each of the elements in this iterator.">
<polygon fill="none" stroke="black" points="314,-191.5 180,-191.5 180,-172.5 314,-172.5 314,-191.5"/>
<text text-anchor="middle" x="247" y="-179.5" font-family="Helvetica,sans-Serif" font-size="10.00">CXXIter::IterApi::forEach</text>
</a>
</g>
</g>
<!-- Node1&#45;&gt;Node2 -->
<g id="edge1" class="edge">
<title>Node1&#45;&gt;Node2</title>
<path fill="none" stroke="midnightblue" d="M83.84,-88.67C102.39,-104.84 141.95,-137.59 180,-158 187.65,-162.1 196.14,-165.78 204.42,-168.95"/>
<polygon fill="midnightblue" stroke="midnightblue" points="203.38,-172.29 213.98,-172.43 205.78,-165.72 203.38,-172.29"/>
</g>
<!-- Node3 -->
<g id="node3" class="node">
<title>Node3</title>
<g id="a_node3"><a xlink:href="classCXXIter_1_1IterApi.html#aef0152922ffea88c63e62a31bd2415d1" target="_top" xlink:title="Get the next element from this iterator (if any), wrapped in a CXXIter::IterValue&lt;&gt;.">
<polygon fill="none" stroke="black" points="469,-172.5 350,-172.5 350,-153.5 469,-153.5 469,-172.5"/>
<text text-anchor="middle" x="409.5" y="-160.5" font-family="Helvetica,sans-Serif" font-size="10.00">CXXIter::IterApi::next</text>
</a>
</g>
</g>
<!-- Node1&#45;&gt;Node3 -->
<g id="edge7" class="edge">
<title>Node1&#45;&gt;Node3</title>
<path fill="none" stroke="midnightblue" d="M91.43,-88.55C112.36,-99.01 147.79,-115.55 180,-125 232.56,-140.42 293.87,-150.19 339.74,-155.95"/>
<polygon fill="midnightblue" stroke="midnightblue" points="339.52,-159.45 349.88,-157.19 340.37,-152.51 339.52,-159.45"/>
</g>
<!-- Node4 -->
<g id="node4" class="node">
<title>Node4</title>
<g id="a_node4"><a xlink:href="classCXXIter_1_1IterValue.html#a1328a0235310a7b0610f2ca7f0f08d4d" target="_top" xlink:title="Get whether this optional IteratorValue contains a value.">
<polygon fill="none" stroke="black" points="298.5,-116 195.5,-116 195.5,-86 298.5,-86 298.5,-116"/>
<text text-anchor="start" x="203.5" y="-104" font-family="Helvetica,sans-Serif" font-size="10.00">CXXIter::IterValue</text>
<text text-anchor="middle" x="247" y="-93" font-family="Helvetica,sans-Serif" font-size="10.00">::has_value</text>
</a>
</g>
</g>
<!-- Node1&#45;&gt;Node4 -->
<g id="edge4" class="edge">
<title>Node1&#45;&gt;Node4</title>
<path fill="none" stroke="midnightblue" d="M144.36,-88.08C158.01,-89.81 172.18,-91.61 185.45,-93.3"/>
<polygon fill="midnightblue" stroke="midnightblue" points="185.03,-96.78 195.39,-94.56 185.92,-89.83 185.03,-96.78"/>
</g>
<!-- Node5 -->
<g id="node5" class="node">
<title>Node5</title>
<g id="a_node5"><a xlink:href="classCXXIter_1_1IterApi.html#a8990c2c4614818ea727ba237741c761c" target="_top" xlink:title="Consumer that yields the index of the smallest element within this iterator.">
<polygon fill="none" stroke="black" points="312.5,-67.5 181.5,-67.5 181.5,-48.5 312.5,-48.5 312.5,-67.5"/>
<text text-anchor="middle" x="247" y="-55.5" font-family="Helvetica,sans-Serif" font-size="10.00">CXXIter::IterApi::minIdx</text>
</a>
</g>
</g>
<!-- Node1&#45;&gt;Node5 -->
<g id="edge5" class="edge">
<title>Node1&#45;&gt;Node5</title>
<path fill="none" stroke="midnightblue" d="M106.36,-69.49C124.83,-66.21 148.59,-62.91 171.25,-60.38"/>
<polygon fill="midnightblue" stroke="midnightblue" points="171.64,-63.86 181.21,-59.31 170.89,-56.9 171.64,-63.86"/>
</g>
<!-- Node6 -->
<g id="node6" class="node">
<title>Node6</title>
<g id="a_node6"><a xlink:href="classCXXIter_1_1IterValue.html#ae90e2e32a4cf74ed8cc186086abbab82" target="_top" xlink:title="Get the contained value (if any).">
<polygon fill="none" stroke="black" points="298.5,-30 195.5,-30 195.5,0 298.5,0 298.5,-30"/>
<text text-anchor="start" x="203.5" y="-18" font-family="Helvetica,sans-Serif" font-size="10.00">CXXIter::IterValue</text>
<text text-anchor="middle" x="247" y="-7" font-family="Helvetica,sans-Serif" font-size="10.00">::value</text>
</a>
</g>
</g>
<!-- Node1&#45;&gt;Node6 -->
<g id="edge8" class="edge">
<title>Node1&#45;&gt;Node6</title>
<path fill="none" stroke="midnightblue" d="M98.9,-69.42C124.44,-59.97 164.15,-45.28 195.87,-33.54"/>
<polygon fill="midnightblue" stroke="midnightblue" points="197.28,-36.76 205.44,-30 194.85,-30.19 197.28,-36.76"/>
</g>
<!-- Node2&#45;&gt;Node3 -->
<g id="edge2" class="edge">
<title>Node2&#45;&gt;Node3</title>
<path fill="none" stroke="midnightblue" d="M314.21,-174.16C322.62,-173.17 331.24,-172.15 339.69,-171.15"/>
<polygon fill="midnightblue" stroke="midnightblue" points="340.37,-174.59 349.89,-169.94 339.54,-167.64 340.37,-174.59"/>
</g>
<!-- Node3&#45;&gt;Node3 -->
<g id="edge3" class="edge">
<title>Node3&#45;&gt;Node3</title>
<path fill="none" stroke="midnightblue" d="M384.53,-172.58C372.38,-181.23 380.71,-190.5 409.5,-190.5 428.4,-190.5 438.48,-186.51 439.74,-181.32"/>
<polygon fill="midnightblue" stroke="midnightblue" points="442.63,-179.34 434.47,-172.58 436.64,-182.95 442.63,-179.34"/>
</g>
<!-- Node5&#45;&gt;Node1 -->
<g id="edge6" class="edge">
<title>Node5&#45;&gt;Node1</title>
<path fill="none" stroke="midnightblue" d="M212.6,-67.52C195.93,-70.48 174.98,-73.44 154.41,-75.86"/>
<polygon fill="midnightblue" stroke="midnightblue" points="153.91,-72.39 144.36,-76.99 154.69,-79.35 153.91,-72.39"/>
</g>
</g>
</svg>
