<?xml version="1.0" encoding="UTF-8" standalone="no"?>
<!DOCTYPE svg PUBLIC "-//W3C//DTD SVG 1.1//EN"
 "http://www.w3.org/Graphics/SVG/1.1/DTD/svg11.dtd">
<!-- Generated by graphviz version 2.43.0 (0)
 -->
<!-- Title: CXXIter::IterApi::minIdxBy Pages: 1 -->
<svg width="480pt" height="204pt"
 viewBox="0.00 0.00 480.00 203.50" xmlns="http://www.w3.org/2000/svg" xmlns:xlink="http://www.w3.org/1999/xlink">
<g id="graph0" class="graph" transform="scale(1 1) rotate(0) translate(4 199.5)">
<title>CXXIter::IterApi::minIdxBy</title>
<!-- Node1 -->
<g id="node1" class="node">
<title>Node1</title>
<g id="a_node1"><a xlink:title="Consumer that yields the index of the smallest element from this iterator. Comparison of items is don...">
<polygon fill="#bfbfbf" stroke="black" points="0,-72 0,-91 144,-91 144,-72 0,-72"/>
<text text-anchor="middle" x="72" y="-79" font-family="Helvetica,sans-Serif" font-size="10.00">CXXIter::IterApi::minIdxBy</text>
</a>
</g>
</g>
<!-- Node2 -->
<g id="node2" class="node">
<title>Node2</title>
<g id="a_node2"><a xlink:href="classCXXIter_1_1IterApi.html#aad1cbb262290264fc2e12d80492ad066" target="_top" xlink:title="Consumer that calls the given function useFn for each of the elements in this iterator.">
<polygon fill="none" stroke="black" points="180,-176 180,-195 314,-195 314,-176 180,-176"/>
<text text-anchor="middle" x="247" y="-183" font-family="Helvetica,sans-Serif" font-size="10.00">CXXIter::IterApi::forEach</text>
</a>
</g>
</g>
<!-- Node1&#45;&gt;Node2 -->
<g id="edge1" class="edge">
<title>Node1&#45;&gt;Node2</title>
<path fill="none" stroke="midnightblue" d="M83.52,-91.05C101.91,-107.34 141.64,-140.77 180,-161.5 187.63,-165.62 196.12,-169.31 204.4,-172.48"/>
<polygon fill="midnightblue" stroke="midnightblue" points="203.37,-175.83 213.96,-175.97 205.76,-169.25 203.37,-175.83"/>
</g>
<!-- Node3 -->
<g id="node3" class="node">
<title>Node3</title>
<g id="a_node3"><a xlink:href="structCXXIter_1_1trait_1_1Iterator.html#ae0ea73d4371db684ce0317ef4f464110" target="_top" xlink:title="Pull one element from the iterator pipeline previous to this pipeline&#45;element.">
<polygon fill="none" stroke="black" points="350,-151.5 350,-181.5 472,-181.5 472,-151.5 350,-151.5"/>
<text text-anchor="start" x="358" y="-169.5" font-family="Helvetica,sans-Serif" font-size="10.00">CXXIter::trait::Iterator</text>
<text text-anchor="middle" x="411" y="-158.5" font-family="Helvetica,sans-Serif" font-size="10.00">::next</text>
</a>
</g>
</g>
<!-- Node1&#45;&gt;Node3 -->
<g id="edge6" class="edge">
<title>Node1&#45;&gt;Node3</title>
<path fill="none" stroke="midnightblue" d="M91.03,-91.09C111.88,-101.79 147.52,-118.85 180,-128.5 232.48,-144.09 293.71,-153.82 339.8,-159.52"/>
<polygon fill="midnightblue" stroke="midnightblue" points="339.64,-163.03 349.99,-160.75 340.48,-156.08 339.64,-163.03"/>
</g>
<!-- Node4 -->
<g id="node4" class="node">
<title>Node4</title>
<g id="a_node4"><a xlink:href="classCXXIter_1_1IterValue.html#a152e5d33392c8437ab8a72707f8acdf2" target="_top" xlink:title="Get whether this optional IteratorValue contains a value.">
<polygon fill="none" stroke="black" points="195.5,-88.5 195.5,-118.5 298.5,-118.5 298.5,-88.5 195.5,-88.5"/>
<text text-anchor="start" x="203.5" y="-106.5" font-family="Helvetica,sans-Serif" font-size="10.00">CXXIter::IterValue</text>
<text text-anchor="middle" x="247" y="-95.5" font-family="Helvetica,sans-Serif" font-size="10.00">::has_value</text>
</a>
</g>
</g>
<!-- Node1&#45;&gt;Node4 -->
<g id="edge3" class="edge">
<title>Node1&#45;&gt;Node4</title>
<path fill="none" stroke="midnightblue" d="M144.36,-90.58C158.01,-92.31 172.18,-94.11 185.45,-95.8"/>
<polygon fill="midnightblue" stroke="midnightblue" points="185.03,-99.28 195.39,-97.06 185.92,-92.33 185.03,-99.28"/>
</g>
<!-- Node5 -->
<g id="node5" class="node">
<title>Node5</title>
<g id="a_node5"><a xlink:href="classCXXIter_1_1IterApi.html#ad191096d655db542272acc7b89f76962" target="_top" xlink:title="Consumer that yields the index of the smallest element within this iterator.">
<polygon fill="none" stroke="black" points="181.5,-50 181.5,-69 312.5,-69 312.5,-50 181.5,-50"/>
<text text-anchor="middle" x="247" y="-57" font-family="Helvetica,sans-Serif" font-size="10.00">CXXIter::IterApi::minIdx</text>
</a>
</g>
</g>
<!-- Node1&#45;&gt;Node5 -->
<g id="edge4" class="edge">
<title>Node1&#45;&gt;Node5</title>
<path fill="none" stroke="midnightblue" d="M105.54,-71.95C124.13,-68.51 148.25,-65.02 171.24,-62.31"/>
<polygon fill="midnightblue" stroke="midnightblue" points="171.81,-65.77 181.35,-61.17 171.02,-58.81 171.81,-65.77"/>
</g>
<!-- Node6 -->
<g id="node6" class="node">
<title>Node6</title>
<g id="a_node6"><a xlink:href="classCXXIter_1_1IterValue.html#a10232ef74599e80b16cafe0b0a0dcc6a" target="_top" xlink:title="Get the contained value (if any).">
<polygon fill="none" stroke="black" points="195.5,-0.5 195.5,-30.5 298.5,-30.5 298.5,-0.5 195.5,-0.5"/>
<text text-anchor="start" x="203.5" y="-18.5" font-family="Helvetica,sans-Serif" font-size="10.00">CXXIter::IterValue</text>
<text text-anchor="middle" x="247" y="-7.5" font-family="Helvetica,sans-Serif" font-size="10.00">::value</text>
</a>
</g>
</g>
<!-- Node1&#45;&gt;Node6 -->
<g id="edge7" class="edge">
<title>Node1&#45;&gt;Node6</title>
<path fill="none" stroke="midnightblue" d="M98.07,-71.86C119.75,-63.54 151.93,-51.19 180,-40.5 185.43,-38.43 191.11,-36.27 196.76,-34.13"/>
<polygon fill="midnightblue" stroke="midnightblue" points="198.09,-37.36 206.2,-30.55 195.61,-30.82 198.09,-37.36"/>
</g>
<!-- Node2&#45;&gt;Node3 -->
<g id="edge2" class="edge">
<title>Node2&#45;&gt;Node3</title>
<path fill="none" stroke="midnightblue" d="M314.36,-177.72C322.75,-176.73 331.35,-175.72 339.79,-174.73"/>
<polygon fill="midnightblue" stroke="midnightblue" points="340.46,-178.18 349.99,-173.54 339.65,-171.23 340.46,-178.18"/>
</g>
<!-- Node5&#45;&gt;Node1 -->
<g id="edge5" class="edge">
<title>Node5&#45;&gt;Node1</title>
<path fill="none" stroke="midnightblue" d="M213.51,-69.04C196.74,-72.14 175.46,-75.29 154.57,-77.87"/>
<polygon fill="midnightblue" stroke="midnightblue" points="153.88,-74.42 144.36,-79.08 154.71,-81.38 153.88,-74.42"/>
</g>
</g>
</svg>
