<?xml version="1.0" encoding="UTF-8" standalone="no"?>
<!DOCTYPE svg PUBLIC "-//W3C//DTD SVG 1.1//EN"
 "http://www.w3.org/Graphics/SVG/1.1/DTD/svg11.dtd">
<!-- Generated by graphviz version 2.43.0 (0)
 -->
<!-- Title: CXXIter::IterValue::map Pages: 1 -->
<svg width="278pt" height="88pt"
 viewBox="0.00 0.00 278.00 88.00" xmlns="http://www.w3.org/2000/svg" xmlns:xlink="http://www.w3.org/1999/xlink">
<g id="graph0" class="graph" transform="scale(1 1) rotate(0) translate(4 84)">
<title>CXXIter::IterValue::map</title>
<!-- Node1 -->
<g id="node1" class="node">
<title>Node1</title>
<g id="a_node1"><a xlink:title="Map this IterValue&#39;s contained value (if any) to the requested new TOutValue type,...">
<polygon fill="#bfbfbf" stroke="black" points="0,-30 0,-49 131,-49 131,-30 0,-30"/>
<text text-anchor="middle" x="65.5" y="-37" font-family="Helvetica,sans-Serif" font-size="10.00">CXXIter::IterValue::map</text>
</a>
</g>
</g>
<!-- Node2 -->
<g id="node2" class="node">
<title>Node2</title>
<g id="a_node2"><a xlink:href="classCXXIter_1_1IterValue.html#a152e5d33392c8437ab8a72707f8acdf2" target="_top" xlink:title="Get whether this optional IteratorValue contains a value.">
<polygon fill="none" stroke="black" points="167,-49.5 167,-79.5 270,-79.5 270,-49.5 167,-49.5"/>
<text text-anchor="start" x="175" y="-67.5" font-family="Helvetica,sans-Serif" font-size="10.00">CXXIter::IterValue</text>
<text text-anchor="middle" x="218.5" y="-56.5" font-family="Helvetica,sans-Serif" font-size="10.00">::has_value</text>
</a>
</g>
</g>
<!-- Node1&#45;&gt;Node2 -->
<g id="edge1" class="edge">
<title>Node1&#45;&gt;Node2</title>
<path fill="none" stroke="midnightblue" d="M124.02,-49.02C134.63,-50.78 145.74,-52.62 156.45,-54.39"/>
<polygon fill="midnightblue" stroke="midnightblue" points="156.13,-57.89 166.57,-56.07 157.28,-50.98 156.13,-57.89"/>
</g>
<!-- Node3 -->
<g id="node3" class="node">
<title>Node3</title>
<g id="a_node3"><a xlink:href="classCXXIter_1_1IterValue.html#a10232ef74599e80b16cafe0b0a0dcc6a" target="_top" xlink:title="Get the contained value (if any).">
<polygon fill="none" stroke="black" points="167,-0.5 167,-30.5 270,-30.5 270,-0.5 167,-0.5"/>
<text text-anchor="start" x="175" y="-18.5" font-family="Helvetica,sans-Serif" font-size="10.00">CXXIter::IterValue</text>
<text text-anchor="middle" x="218.5" y="-7.5" font-family="Helvetica,sans-Serif" font-size="10.00">::value</text>
</a>
</g>
</g>
<!-- Node1&#45;&gt;Node3 -->
<g id="edge2" class="edge">
<title>Node1&#45;&gt;Node3</title>
<path fill="none" stroke="midnightblue" d="M126.61,-29.95C136.5,-28.37 146.76,-26.74 156.66,-25.17"/>
<polygon fill="midnightblue" stroke="midnightblue" points="157.5,-28.58 166.83,-23.55 156.4,-21.67 157.5,-28.58"/>
</g>
</g>
</svg>
