<?xml version="1.0" encoding="UTF-8" standalone="no"?>
<!DOCTYPE svg PUBLIC "-//W3C//DTD SVG 1.1//EN"
 "http://www.w3.org/Graphics/SVG/1.1/DTD/svg11.dtd">
<!-- Generated by graphviz version 2.43.0 (0)
 -->
<!-- Title: CXXIter::IterApi::maxIdx Pages: 1 -->
<svg width="653pt" height="165pt"
 viewBox="0.00 0.00 653.00 164.50" xmlns="http://www.w3.org/2000/svg" xmlns:xlink="http://www.w3.org/1999/xlink">
<g id="graph0" class="graph" transform="scale(1 1) rotate(0) translate(4 160.5)">
<title>CXXIter::IterApi::maxIdx</title>
<!-- Node1 -->
<g id="node1" class="node">
<title>Node1</title>
<g id="a_node1"><a xlink:title="Consumer that yields the index of the largest element within this iterator.">
<polygon fill="#bfbfbf" stroke="black" points="0,-77 0,-96 134,-96 134,-77 0,-77"/>
<text text-anchor="middle" x="67" y="-84" font-family="Helvetica,sans-Serif" font-size="10.00">CXXIter::IterApi::maxIdx</text>
</a>
</g>
</g>
<!-- Node2 -->
<g id="node2" class="node">
<title>Node2</title>
<g id="a_node2"><a xlink:href="classCXXIter_1_1IterApi.html#a61dd9812e764db7f0acbc1509cea21ad" target="_top" xlink:title="Consumer that yields the index of the largest element from this iterator. Comparison of items is done...">
<polygon fill="none" stroke="black" points="170,-77 170,-96 317,-96 317,-77 170,-77"/>
<text text-anchor="middle" x="243.5" y="-84" font-family="Helvetica,sans-Serif" font-size="10.00">CXXIter::IterApi::maxIdxBy</text>
</a>
</g>
</g>
<!-- Node1&#45;&gt;Node2 -->
<g id="edge1" class="edge">
<title>Node1&#45;&gt;Node2</title>
<path fill="none" stroke="midnightblue" d="M134.47,-79.92C142.69,-79.78 151.16,-79.73 159.59,-79.76"/>
<polygon fill="midnightblue" stroke="midnightblue" points="159.79,-83.26 169.82,-79.83 159.84,-76.26 159.79,-83.26"/>
</g>
<!-- Node2&#45;&gt;Node1 -->
<g id="edge5" class="edge">
<title>Node2&#45;&gt;Node1</title>
<path fill="none" stroke="midnightblue" d="M169.82,-93.17C161.49,-93.26 152.98,-93.28 144.6,-93.21"/>
<polygon fill="midnightblue" stroke="midnightblue" points="144.51,-89.7 134.47,-93.08 144.42,-96.7 144.51,-89.7"/>
</g>
<!-- Node3 -->
<g id="node3" class="node">
<title>Node3</title>
<g id="a_node3"><a xlink:href="classCXXIter_1_1IterApi.html#aad1cbb262290264fc2e12d80492ad066" target="_top" xlink:title="Consumer that calls the given function useFn for each of the elements in this iterator.">
<polygon fill="none" stroke="black" points="353,-137 353,-156 487,-156 487,-137 353,-137"/>
<text text-anchor="middle" x="420" y="-144" font-family="Helvetica,sans-Serif" font-size="10.00">CXXIter::IterApi::forEach</text>
</a>
</g>
</g>
<!-- Node2&#45;&gt;Node3 -->
<g id="edge2" class="edge">
<title>Node2&#45;&gt;Node3</title>
<path fill="none" stroke="midnightblue" d="M272.15,-96.01C301.67,-106.16 348.64,-122.31 381.49,-133.6"/>
<polygon fill="midnightblue" stroke="midnightblue" points="380.6,-137 391.19,-136.94 382.87,-130.38 380.6,-137"/>
</g>
<!-- Node4 -->
<g id="node4" class="node">
<title>Node4</title>
<g id="a_node4"><a xlink:href="structCXXIter_1_1trait_1_1Iterator.html#ae0ea73d4371db684ce0317ef4f464110" target="_top" xlink:title="Pull one element from the iterator pipeline previous to this pipeline&#45;element.">
<polygon fill="none" stroke="black" points="523,-112.5 523,-142.5 645,-142.5 645,-112.5 523,-112.5"/>
<text text-anchor="start" x="531" y="-130.5" font-family="Helvetica,sans-Serif" font-size="10.00">CXXIter::trait::Iterator</text>
<text text-anchor="middle" x="584" y="-119.5" font-family="Helvetica,sans-Serif" font-size="10.00">::next</text>
</a>
</g>
</g>
<!-- Node2&#45;&gt;Node4 -->
<g id="edge6" class="edge">
<title>Node2&#45;&gt;Node4</title>
<path fill="none" stroke="midnightblue" d="M317.12,-95.3C375.03,-102.31 455.64,-112.07 512.88,-119.01"/>
<polygon fill="midnightblue" stroke="midnightblue" points="512.58,-122.5 522.93,-120.22 513.42,-115.55 512.58,-122.5"/>
</g>
<!-- Node5 -->
<g id="node5" class="node">
<title>Node5</title>
<g id="a_node5"><a xlink:href="classCXXIter_1_1IterValue.html#a152e5d33392c8437ab8a72707f8acdf2" target="_top" xlink:title="Get whether this optional IteratorValue contains a value.">
<polygon fill="none" stroke="black" points="368.5,-49.5 368.5,-79.5 471.5,-79.5 471.5,-49.5 368.5,-49.5"/>
<text text-anchor="start" x="376.5" y="-67.5" font-family="Helvetica,sans-Serif" font-size="10.00">CXXIter::IterValue</text>
<text text-anchor="middle" x="420" y="-56.5" font-family="Helvetica,sans-Serif" font-size="10.00">::has_value</text>
</a>
</g>
</g>
<!-- Node2&#45;&gt;Node5 -->
<g id="edge4" class="edge">
<title>Node2&#45;&gt;Node5</title>
<path fill="none" stroke="midnightblue" d="M317.24,-77.33C330.95,-75.6 345.16,-73.81 358.45,-72.13"/>
<polygon fill="midnightblue" stroke="midnightblue" points="358.92,-75.6 368.41,-70.88 358.05,-68.66 358.92,-75.6"/>
</g>
<!-- Node6 -->
<g id="node6" class="node">
<title>Node6</title>
<g id="a_node6"><a xlink:href="classCXXIter_1_1IterValue.html#a10232ef74599e80b16cafe0b0a0dcc6a" target="_top" xlink:title="Get the contained value (if any).">
<polygon fill="none" stroke="black" points="368.5,-0.5 368.5,-30.5 471.5,-30.5 471.5,-0.5 368.5,-0.5"/>
<text text-anchor="start" x="376.5" y="-18.5" font-family="Helvetica,sans-Serif" font-size="10.00">CXXIter::IterValue</text>
<text text-anchor="middle" x="420" y="-7.5" font-family="Helvetica,sans-Serif" font-size="10.00">::value</text>
</a>
</g>
</g>
<!-- Node2&#45;&gt;Node6 -->
<g id="edge7" class="edge">
<title>Node2&#45;&gt;Node6</title>
<path fill="none" stroke="midnightblue" d="M266.42,-76.91C288.27,-67.42 322.81,-52.61 353,-40.5 358.12,-38.45 363.47,-36.34 368.83,-34.27"/>
<polygon fill="midnightblue" stroke="midnightblue" points="370.33,-37.44 378.41,-30.59 367.82,-30.91 370.33,-37.44"/>
</g>
<!-- Node3&#45;&gt;Node4 -->
<g id="edge3" class="edge">
<title>Node3&#45;&gt;Node4</title>
<path fill="none" stroke="midnightblue" d="M487.36,-138.72C495.75,-137.73 504.35,-136.72 512.79,-135.73"/>
<polygon fill="midnightblue" stroke="midnightblue" points="513.46,-139.18 522.99,-134.54 512.65,-132.23 513.46,-139.18"/>
</g>
</g>
</svg>
