<?xml version="1.0" encoding="UTF-8" standalone="no"?>
<!DOCTYPE svg PUBLIC "-//W3C//DTD SVG 1.1//EN"
 "http://www.w3.org/Graphics/SVG/1.1/DTD/svg11.dtd">
<!-- Generated by graphviz version 2.43.0 (0)
 -->
<!-- Title: CXXIter::IterApi::maxBy Pages: 1 -->
<svg width="468pt" height="165pt"
 viewBox="0.00 0.00 468.00 164.50" xmlns="http://www.w3.org/2000/svg" xmlns:xlink="http://www.w3.org/1999/xlink">
<g id="graph0" class="graph" transform="scale(1 1) rotate(0) translate(4 160.5)">
<title>CXXIter::IterApi::maxBy</title>
<!-- Node1 -->
<g id="node1" class="node">
<title>Node1</title>
<g id="a_node1"><a xlink:title="Consumer that yields the largest element from this iterator. Comparison of items is done using the co...">
<polygon fill="#bfbfbf" stroke="black" points="0,-77 0,-96 132,-96 132,-77 0,-77"/>
<text text-anchor="middle" x="66" y="-84" font-family="Helvetica,sans-Serif" font-size="10.00">CXXIter::IterApi::maxBy</text>
</a>
</g>
</g>
<!-- Node2 -->
<g id="node2" class="node">
<title>Node2</title>
<g id="a_node2"><a xlink:href="classCXXIter_1_1IterApi.html#aad1cbb262290264fc2e12d80492ad066" target="_top" xlink:title="Consumer that calls the given function useFn for each of the elements in this iterator.">
<polygon fill="none" stroke="black" points="168,-137 168,-156 302,-156 302,-137 168,-137"/>
<text text-anchor="middle" x="235" y="-144" font-family="Helvetica,sans-Serif" font-size="10.00">CXXIter::IterApi::forEach</text>
</a>
</g>
</g>
<!-- Node1&#45;&gt;Node2 -->
<g id="edge1" class="edge">
<title>Node1&#45;&gt;Node2</title>
<path fill="none" stroke="midnightblue" d="M93.46,-96.01C121.6,-106.12 166.28,-122.17 197.69,-133.45"/>
<polygon fill="midnightblue" stroke="midnightblue" points="196.79,-136.85 207.39,-136.94 199.16,-130.26 196.79,-136.85"/>
</g>
<!-- Node3 -->
<g id="node3" class="node">
<title>Node3</title>
<g id="a_node3"><a xlink:href="structCXXIter_1_1trait_1_1Iterator.html#ae0ea73d4371db684ce0317ef4f464110" target="_top" xlink:title="Pull one element from the iterator pipeline previous to this pipeline&#45;element.">
<polygon fill="none" stroke="black" points="338,-112.5 338,-142.5 460,-142.5 460,-112.5 338,-112.5"/>
<text text-anchor="start" x="346" y="-130.5" font-family="Helvetica,sans-Serif" font-size="10.00">CXXIter::trait::Iterator</text>
<text text-anchor="middle" x="399" y="-119.5" font-family="Helvetica,sans-Serif" font-size="10.00">::next</text>
</a>
</g>
</g>
<!-- Node1&#45;&gt;Node3 -->
<g id="edge4" class="edge">
<title>Node1&#45;&gt;Node3</title>
<path fill="none" stroke="midnightblue" d="M132,-94.55C188.39,-101.54 269.84,-111.62 327.72,-118.79"/>
<polygon fill="midnightblue" stroke="midnightblue" points="327.53,-122.3 337.88,-120.05 328.39,-115.35 327.53,-122.3"/>
</g>
<!-- Node4 -->
<g id="node4" class="node">
<title>Node4</title>
<g id="a_node4"><a xlink:href="classCXXIter_1_1IterValue.html#a152e5d33392c8437ab8a72707f8acdf2" target="_top" xlink:title="Get whether this optional IteratorValue contains a value.">
<polygon fill="none" stroke="black" points="183.5,-49.5 183.5,-79.5 286.5,-79.5 286.5,-49.5 183.5,-49.5"/>
<text text-anchor="start" x="191.5" y="-67.5" font-family="Helvetica,sans-Serif" font-size="10.00">CXXIter::IterValue</text>
<text text-anchor="middle" x="235" y="-56.5" font-family="Helvetica,sans-Serif" font-size="10.00">::has_value</text>
</a>
</g>
</g>
<!-- Node1&#45;&gt;Node4 -->
<g id="edge3" class="edge">
<title>Node1&#45;&gt;Node4</title>
<path fill="none" stroke="midnightblue" d="M132.04,-77.93C145.62,-76.14 159.88,-74.26 173.29,-72.5"/>
<polygon fill="midnightblue" stroke="midnightblue" points="173.9,-75.95 183.35,-71.17 172.98,-69.01 173.9,-75.95"/>
</g>
<!-- Node5 -->
<g id="node5" class="node">
<title>Node5</title>
<g id="a_node5"><a xlink:href="classCXXIter_1_1IterValue.html#a10232ef74599e80b16cafe0b0a0dcc6a" target="_top" xlink:title="Get the contained value (if any).">
<polygon fill="none" stroke="black" points="183.5,-0.5 183.5,-30.5 286.5,-30.5 286.5,-0.5 183.5,-0.5"/>
<text text-anchor="start" x="191.5" y="-18.5" font-family="Helvetica,sans-Serif" font-size="10.00">CXXIter::IterValue</text>
<text text-anchor="middle" x="235" y="-7.5" font-family="Helvetica,sans-Serif" font-size="10.00">::value</text>
</a>
</g>
</g>
<!-- Node1&#45;&gt;Node5 -->
<g id="edge5" class="edge">
<title>Node1&#45;&gt;Node5</title>
<path fill="none" stroke="midnightblue" d="M86.95,-76.95C107.2,-67.36 139.54,-52.36 168,-40.5 173.02,-38.41 178.28,-36.29 183.55,-34.22"/>
<polygon fill="midnightblue" stroke="midnightblue" points="184.94,-37.44 193,-30.56 182.41,-30.91 184.94,-37.44"/>
</g>
<!-- Node2&#45;&gt;Node3 -->
<g id="edge2" class="edge">
<title>Node2&#45;&gt;Node3</title>
<path fill="none" stroke="midnightblue" d="M302.36,-138.72C310.75,-137.73 319.35,-136.72 327.79,-135.73"/>
<polygon fill="midnightblue" stroke="midnightblue" points="328.46,-139.18 337.99,-134.54 327.65,-132.23 328.46,-139.18"/>
</g>
</g>
</svg>
