<?xml version="1.0" encoding="UTF-8" standalone="no"?>
<!DOCTYPE svg PUBLIC "-//W3C//DTD SVG 1.1//EN"
 "http://www.w3.org/Graphics/SVG/1.1/DTD/svg11.dtd">
<!-- Generated by graphviz version 2.43.0 (0)
 -->
<!-- Title: CXXIter::IterApi::maxIdx Pages: 1 -->
<svg width="647pt" height="53pt"
 viewBox="0.00 0.00 647.00 52.50" xmlns="http://www.w3.org/2000/svg" xmlns:xlink="http://www.w3.org/1999/xlink">
<g id="graph0" class="graph" transform="scale(1 1) rotate(0) translate(4 48.5)">
<title>CXXIter::IterApi::maxIdx</title>
<!-- Node1 -->
<g id="node1" class="node">
<title>Node1</title>
<g id="a_node1"><a xlink:title="Consumer that yields the index of the largest element within this iterator.">
<polygon fill="#bfbfbf" stroke="black" points="0,-6 0,-25 134,-25 134,-6 0,-6"/>
<text text-anchor="middle" x="67" y="-13" font-family="Helvetica,sans-Serif" font-size="10.00">CXXIter::IterApi::maxIdx</text>
</a>
</g>
</g>
<!-- Node2 -->
<g id="node2" class="node">
<title>Node2</title>
<g id="a_node2"><a xlink:href="classCXXIter_1_1IterApi.html#a61dd9812e764db7f0acbc1509cea21ad" target="_top" xlink:title="Consumer that yields the index of the largest element from this iterator. Comparison of items is done...">
<polygon fill="none" stroke="black" points="170,-6 170,-25 317,-25 317,-6 170,-6"/>
<text text-anchor="middle" x="243.5" y="-13" font-family="Helvetica,sans-Serif" font-size="10.00">CXXIter::IterApi::maxIdxBy</text>
</a>
</g>
</g>
<!-- Node1&#45;&gt;Node2 -->
<g id="edge1" class="edge">
<title>Node1&#45;&gt;Node2</title>
<path fill="none" stroke="midnightblue" d="M134.47,-8.92C142.69,-8.78 151.16,-8.73 159.59,-8.76"/>
<polygon fill="midnightblue" stroke="midnightblue" points="159.79,-12.26 169.82,-8.83 159.84,-5.26 159.79,-12.26"/>
</g>
<!-- Node2&#45;&gt;Node1 -->
<g id="edge4" class="edge">
<title>Node2&#45;&gt;Node1</title>
<path fill="none" stroke="midnightblue" d="M169.82,-22.17C161.49,-22.26 152.98,-22.28 144.6,-22.21"/>
<polygon fill="midnightblue" stroke="midnightblue" points="144.51,-18.7 134.47,-22.08 144.42,-25.7 144.51,-18.7"/>
</g>
<!-- Node3 -->
<g id="node3" class="node">
<title>Node3</title>
<g id="a_node3"><a xlink:href="classCXXIter_1_1IterApi.html#aad1cbb262290264fc2e12d80492ad066" target="_top" xlink:title="Consumer that calls the given function useFn for each of the elements in this iterator.">
<polygon fill="none" stroke="black" points="353,-25 353,-44 487,-44 487,-25 353,-25"/>
<text text-anchor="middle" x="420" y="-32" font-family="Helvetica,sans-Serif" font-size="10.00">CXXIter::IterApi::forEach</text>
</a>
</g>
</g>
<!-- Node2&#45;&gt;Node3 -->
<g id="edge2" class="edge">
<title>Node2&#45;&gt;Node3</title>
<path fill="none" stroke="midnightblue" d="M317.24,-23.42C325.62,-24.33 334.18,-25.26 342.6,-26.18"/>
<polygon fill="midnightblue" stroke="midnightblue" points="342.47,-29.69 352.79,-27.29 343.22,-22.73 342.47,-29.69"/>
</g>
<!-- Node4 -->
<g id="node4" class="node">
<title>Node4</title>
<g id="a_node4"><a xlink:href="structCXXIter_1_1IteratorTrait.html#a6981855188842adf93100c490475143c" target="_top" xlink:title="Pull one element from the iterator pipeline previous to this pipeline&#45;element.">
<polygon fill="none" stroke="black" points="523,-0.5 523,-30.5 639,-30.5 639,-0.5 523,-0.5"/>
<text text-anchor="start" x="531" y="-18.5" font-family="Helvetica,sans-Serif" font-size="10.00">CXXIter::IteratorTrait</text>
<text text-anchor="middle" x="581" y="-7.5" font-family="Helvetica,sans-Serif" font-size="10.00">::next</text>
</a>
</g>
</g>
<!-- Node2&#45;&gt;Node4 -->
<g id="edge5" class="edge">
<title>Node2&#45;&gt;Node4</title>
<path fill="none" stroke="midnightblue" d="M317.3,-15.5C375.36,-15.5 456.04,-15.5 512.62,-15.5"/>
<polygon fill="midnightblue" stroke="midnightblue" points="512.9,-19 522.9,-15.5 512.9,-12 512.9,-19"/>
</g>
<!-- Node3&#45;&gt;Node4 -->
<g id="edge3" class="edge">
<title>Node3&#45;&gt;Node4</title>
<path fill="none" stroke="midnightblue" d="M487.05,-26.61C495.48,-25.6 504.12,-24.57 512.57,-23.56"/>
<polygon fill="midnightblue" stroke="midnightblue" points="513.25,-27 522.76,-22.34 512.42,-20.05 513.25,-27"/>
</g>
</g>
</svg>
