<?xml version="1.0" encoding="UTF-8" standalone="no"?>
<!DOCTYPE svg PUBLIC "-//W3C//DTD SVG 1.1//EN"
 "http://www.w3.org/Graphics/SVG/1.1/DTD/svg11.dtd">
<!-- Generated by graphviz version 2.43.0 (0)
 -->
<!-- Title: CXXIter::IterApi::stddev Pages: 1 -->
<svg width="768pt" height="53pt"
 viewBox="0.00 0.00 768.00 52.50" xmlns="http://www.w3.org/2000/svg" xmlns:xlink="http://www.w3.org/1999/xlink">
<g id="graph0" class="graph" transform="scale(1 1) rotate(0) translate(4 48.5)">
<title>CXXIter::IterApi::stddev</title>
<!-- Node1 -->
<g id="node1" class="node">
<title>Node1</title>
<g id="a_node1"><a xlink:title="Consumer that calculates the standard deviation of all elements of this iterator.">
<polygon fill="#bfbfbf" stroke="black" points="0,-19.5 0,-38.5 131,-38.5 131,-19.5 0,-19.5"/>
<text text-anchor="middle" x="65.5" y="-26.5" font-family="Helvetica,sans-Serif" font-size="10.00">CXXIter::IterApi::stddev</text>
</a>
</g>
</g>
<!-- Node2 -->
<g id="node2" class="node">
<title>Node2</title>
<g id="a_node2"><a xlink:href="classCXXIter_1_1IterApi.html#aad1cbb262290264fc2e12d80492ad066" target="_top" xlink:title="Consumer that calls the given function useFn for each of the elements in this iterator.">
<polygon fill="none" stroke="black" points="474,-19.5 474,-38.5 608,-38.5 608,-19.5 474,-19.5"/>
<text text-anchor="middle" x="541" y="-26.5" font-family="Helvetica,sans-Serif" font-size="10.00">CXXIter::IterApi::forEach</text>
</a>
</g>
</g>
<!-- Node1&#45;&gt;Node2 -->
<g id="edge1" class="edge">
<title>Node1&#45;&gt;Node2</title>
<path fill="none" stroke="midnightblue" d="M131.35,-29C218.01,-29 371.36,-29 463.55,-29"/>
<polygon fill="midnightblue" stroke="midnightblue" points="463.65,-32.5 473.65,-29 463.65,-25.5 463.65,-32.5"/>
</g>
<!-- Node4 -->
<g id="node4" class="node">
<title>Node4</title>
<g id="a_node4"><a xlink:href="classCXXIter_1_1IterApi.html#a69c182f266a918168975a3764a1fc8eb" target="_top" xlink:title="Consumer that calculates the sum of all elements from this iterator.">
<polygon fill="none" stroke="black" points="167,-0.5 167,-19.5 286,-19.5 286,-0.5 167,-0.5"/>
<text text-anchor="middle" x="226.5" y="-7.5" font-family="Helvetica,sans-Serif" font-size="10.00">CXXIter::IterApi::sum</text>
</a>
</g>
</g>
<!-- Node1&#45;&gt;Node4 -->
<g id="edge3" class="edge">
<title>Node1&#45;&gt;Node4</title>
<path fill="none" stroke="midnightblue" d="M131.17,-21.27C139.55,-20.27 148.15,-19.24 156.59,-18.23"/>
<polygon fill="midnightblue" stroke="midnightblue" points="157.26,-21.68 166.77,-17.02 156.43,-14.73 157.26,-21.68"/>
</g>
<!-- Node3 -->
<g id="node3" class="node">
<title>Node3</title>
<g id="a_node3"><a xlink:href="structCXXIter_1_1IteratorTrait.html#a6981855188842adf93100c490475143c" target="_top" xlink:title="Pull one element from the iterator pipeline previous to this pipeline&#45;element.">
<polygon fill="none" stroke="black" points="644,-14 644,-44 760,-44 760,-14 644,-14"/>
<text text-anchor="start" x="652" y="-32" font-family="Helvetica,sans-Serif" font-size="10.00">CXXIter::IteratorTrait</text>
<text text-anchor="middle" x="702" y="-21" font-family="Helvetica,sans-Serif" font-size="10.00">::next</text>
</a>
</g>
</g>
<!-- Node2&#45;&gt;Node3 -->
<g id="edge2" class="edge">
<title>Node2&#45;&gt;Node3</title>
<path fill="none" stroke="midnightblue" d="M608.05,-29C616.48,-29 625.12,-29 633.57,-29"/>
<polygon fill="midnightblue" stroke="midnightblue" points="633.77,-32.5 643.76,-29 633.76,-25.5 633.77,-32.5"/>
</g>
<!-- Node5 -->
<g id="node5" class="node">
<title>Node5</title>
<g id="a_node5"><a xlink:href="classCXXIter_1_1IterApi.html#a16bc04471483e7ce71726036befa551e" target="_top" xlink:title="Consumer that executes the given foldFn for each item in this iterator, to apply to a working value,...">
<polygon fill="none" stroke="black" points="322,-0.5 322,-19.5 438,-19.5 438,-0.5 322,-0.5"/>
<text text-anchor="middle" x="380" y="-7.5" font-family="Helvetica,sans-Serif" font-size="10.00">CXXIter::IterApi::fold</text>
</a>
</g>
</g>
<!-- Node4&#45;&gt;Node5 -->
<g id="edge4" class="edge">
<title>Node4&#45;&gt;Node5</title>
<path fill="none" stroke="midnightblue" d="M286.07,-10C294.36,-10 302.94,-10 311.38,-10"/>
<polygon fill="midnightblue" stroke="midnightblue" points="311.58,-13.5 321.58,-10 311.58,-6.5 311.58,-13.5"/>
</g>
<!-- Node5&#45;&gt;Node2 -->
<g id="edge5" class="edge">
<title>Node5&#45;&gt;Node2</title>
<path fill="none" stroke="midnightblue" d="M438.4,-16.86C446.65,-17.84 455.24,-18.87 463.78,-19.89"/>
<polygon fill="midnightblue" stroke="midnightblue" points="463.42,-23.37 473.76,-21.09 464.25,-16.42 463.42,-23.37"/>
</g>
</g>
</svg>
