<?xml version="1.0" encoding="UTF-8" standalone="no"?>
<!DOCTYPE svg PUBLIC "-//W3C//DTD SVG 1.1//EN"
 "http://www.w3.org/Graphics/SVG/1.1/DTD/svg11.dtd">
<!-- Generated by graphviz version 2.43.0 (0)
 -->
<!-- Title: CXXIter::IterApi::maxIdxBy Pages: 1 -->
<svg width="483pt" height="104pt"
 viewBox="0.00 0.00 483.00 104.00" xmlns="http://www.w3.org/2000/svg" xmlns:xlink="http://www.w3.org/1999/xlink">
<g id="graph0" class="graph" transform="scale(1 1) rotate(0) translate(4 100)">
<title>CXXIter::IterApi::maxIdxBy</title>
<!-- Node1 -->
<g id="node1" class="node">
<title>Node1</title>
<g id="a_node1"><a xlink:title="Consumer that yields the index of the largest element from this iterator. Comparison of items is done...">
<polygon fill="#bfbfbf" stroke="black" points="0,-19.5 0,-38.5 147,-38.5 147,-19.5 0,-19.5"/>
<text text-anchor="middle" x="73.5" y="-26.5" font-family="Helvetica,sans-Serif" font-size="10.00">CXXIter::IterApi::maxIdxBy</text>
</a>
</g>
</g>
<!-- Node2 -->
<g id="node2" class="node">
<title>Node2</title>
<g id="a_node2"><a xlink:href="classCXXIter_1_1IterApi.html#aad1cbb262290264fc2e12d80492ad066" target="_top" xlink:title="Consumer that calls the given function useFn for each of the elements in this iterator.">
<polygon fill="none" stroke="black" points="183,-76.5 183,-95.5 317,-95.5 317,-76.5 183,-76.5"/>
<text text-anchor="middle" x="250" y="-83.5" font-family="Helvetica,sans-Serif" font-size="10.00">CXXIter::IterApi::forEach</text>
</a>
</g>
</g>
<!-- Node1&#45;&gt;Node2 -->
<g id="edge1" class="edge">
<title>Node1&#45;&gt;Node2</title>
<path fill="none" stroke="midnightblue" d="M103.71,-38.54C132.9,-48.08 177.96,-62.79 210.15,-73.31"/>
<polygon fill="midnightblue" stroke="midnightblue" points="209.1,-76.65 219.7,-76.43 211.28,-70 209.1,-76.65"/>
</g>
<!-- Node3 -->
<g id="node3" class="node">
<title>Node3</title>
<g id="a_node3"><a xlink:href="structCXXIter_1_1trait_1_1IteratorTrait.html#a7a3de8ab8551a98a82b82a789b6ee81f" target="_top" xlink:title="Pull one element from the iterator pipeline previous to this pipeline&#45;element.">
<polygon fill="none" stroke="black" points="353,-52 353,-82 475,-82 475,-52 353,-52"/>
<text text-anchor="start" x="361" y="-70" font-family="Helvetica,sans-Serif" font-size="10.00">CXXIter::trait::Iterator</text>
<text text-anchor="middle" x="414" y="-59" font-family="Helvetica,sans-Serif" font-size="10.00">Trait::next</text>
</a>
</g>
</g>
<!-- Node1&#45;&gt;Node3 -->
<g id="edge5" class="edge">
<title>Node1&#45;&gt;Node3</title>
<path fill="none" stroke="midnightblue" d="M147.12,-37.15C205.03,-43.65 285.64,-52.7 342.88,-59.13"/>
<polygon fill="midnightblue" stroke="midnightblue" points="342.6,-62.62 352.93,-60.26 343.38,-55.66 342.6,-62.62"/>
</g>
<!-- Node4 -->
<g id="node4" class="node">
<title>Node4</title>
<g id="a_node4"><a xlink:href="classCXXIter_1_1IterApi.html#af161ffefa2006ad6df0bd084d7374f51" target="_top" xlink:title="Consumer that yields the index of the largest element within this iterator.">
<polygon fill="none" stroke="black" points="183,-0.5 183,-19.5 317,-19.5 317,-0.5 183,-0.5"/>
<text text-anchor="middle" x="250" y="-7.5" font-family="Helvetica,sans-Serif" font-size="10.00">CXXIter::IterApi::maxIdx</text>
</a>
</g>
</g>
<!-- Node1&#45;&gt;Node4 -->
<g id="edge3" class="edge">
<title>Node1&#45;&gt;Node4</title>
<path fill="none" stroke="midnightblue" d="M110.66,-19.47C128.67,-16.58 151.17,-13.76 172.75,-11.6"/>
<polygon fill="midnightblue" stroke="midnightblue" points="173.29,-15.06 182.91,-10.63 172.63,-8.1 173.29,-15.06"/>
</g>
<!-- Node2&#45;&gt;Node3 -->
<g id="edge2" class="edge">
<title>Node2&#45;&gt;Node3</title>
<path fill="none" stroke="midnightblue" d="M317.36,-78.22C325.75,-77.23 334.35,-76.22 342.79,-75.23"/>
<polygon fill="midnightblue" stroke="midnightblue" points="343.46,-78.68 352.99,-74.04 342.65,-71.73 343.46,-78.68"/>
</g>
<!-- Node4&#45;&gt;Node1 -->
<g id="edge4" class="edge">
<title>Node4&#45;&gt;Node1</title>
<path fill="none" stroke="midnightblue" d="M212.83,-19.53C196.66,-22.13 176.88,-24.66 157.39,-26.72"/>
<polygon fill="midnightblue" stroke="midnightblue" points="156.84,-23.26 147.24,-27.75 157.54,-30.22 156.84,-23.26"/>
</g>
</g>
</svg>
