<?xml version="1.0" encoding="UTF-8" standalone="no"?>
<!DOCTYPE svg PUBLIC "-//W3C//DTD SVG 1.1//EN"
 "http://www.w3.org/Graphics/SVG/1.1/DTD/svg11.dtd">
<!-- Generated by graphviz version 2.43.0 (0)
 -->
<!-- Title: CXXIter::IterApi::minBy Pages: 1 -->
<svg width="465pt" height="162pt"
 viewBox="0.00 0.00 465.00 161.50" xmlns="http://www.w3.org/2000/svg" xmlns:xlink="http://www.w3.org/1999/xlink">
<g id="graph0" class="graph" transform="scale(1 1) rotate(0) translate(4 157.5)">
<title>CXXIter::IterApi::minBy</title>
<!-- Node1 -->
<g id="node1" class="node">
<title>Node1</title>
<g id="a_node1"><a xlink:title="Consumer that yields the smallest element from this iterator. Comparison of items is done using the c...">
<polygon fill="#999999" stroke="#666666" points="129,-93.5 0,-93.5 0,-74.5 129,-74.5 129,-93.5"/>
<text text-anchor="middle" x="64.5" y="-81.5" font-family="Helvetica,sans-Serif" font-size="10.00">CXXIter::IterApi::minBy</text>
</a>
</g>
</g>
<!-- Node2 -->
<g id="node2" class="node">
<title>Node2</title>
<g id="a_node2"><a xlink:href="classCXXIter_1_1IterApi.html#a79fda2fe3278009952d9eb1d73e2545e" target="_top" xlink:title="Consumer that calls the given function useFn for each of the elements in this iterator.">
<polygon fill="white" stroke="#666666" points="299,-153.5 165,-153.5 165,-134.5 299,-134.5 299,-153.5"/>
<text text-anchor="middle" x="232" y="-141.5" font-family="Helvetica,sans-Serif" font-size="10.00">CXXIter::IterApi::forEach</text>
</a>
</g>
</g>
<!-- Node1&#45;&gt;Node2 -->
<g id="edge1" class="edge">
<title>Node1&#45;&gt;Node2</title>
<path fill="none" stroke="#63b8ff" d="M91.72,-93.51C119.6,-103.62 163.89,-119.67 195.02,-130.95"/>
<polygon fill="#63b8ff" stroke="#63b8ff" points="194.03,-134.32 204.63,-134.44 196.42,-127.74 194.03,-134.32"/>
</g>
<!-- Node3 -->
<g id="node3" class="node">
<title>Node3</title>
<g id="a_node3"><a xlink:href="structCXXIter_1_1trait_1_1Iterator.html#a24ea296105d53bf6a4455c6f818715c2" target="_top" xlink:title="Pull one element from the iterator pipeline previous to this pipeline&#45;element.">
<polygon fill="white" stroke="#666666" points="457,-140 335,-140 335,-110 457,-110 457,-140"/>
<text text-anchor="start" x="343" y="-128" font-family="Helvetica,sans-Serif" font-size="10.00">CXXIter::trait::Iterator</text>
<text text-anchor="middle" x="396" y="-117" font-family="Helvetica,sans-Serif" font-size="10.00">::next</text>
</a>
</g>
</g>
<!-- Node1&#45;&gt;Node3 -->
<g id="edge4" class="edge">
<title>Node1&#45;&gt;Node3</title>
<path fill="none" stroke="#63b8ff" d="M129.03,-91.91C185.13,-98.89 266.8,-109.05 324.81,-116.27"/>
<polygon fill="#63b8ff" stroke="#63b8ff" points="324.64,-119.77 335,-117.53 325.5,-112.83 324.64,-119.77"/>
</g>
<!-- Node4 -->
<g id="node4" class="node">
<title>Node4</title>
<g id="a_node4"><a xlink:href="classCXXIter_1_1IterValue.html#a1328a0235310a7b0610f2ca7f0f08d4d" target="_top" xlink:title="Get whether this optional IteratorValue contains a value.">
<polygon fill="white" stroke="#666666" points="283.5,-78 180.5,-78 180.5,-48 283.5,-48 283.5,-78"/>
<text text-anchor="start" x="188.5" y="-66" font-family="Helvetica,sans-Serif" font-size="10.00">CXXIter::IterValue</text>
<text text-anchor="middle" x="232" y="-55" font-family="Helvetica,sans-Serif" font-size="10.00">::has_value</text>
</a>
</g>
</g>
<!-- Node1&#45;&gt;Node4 -->
<g id="edge3" class="edge">
<title>Node1&#45;&gt;Node4</title>
<path fill="none" stroke="#63b8ff" d="M129.01,-75.94C142.6,-74.22 156.91,-72.4 170.38,-70.69"/>
<polygon fill="#63b8ff" stroke="#63b8ff" points="171.01,-74.14 180.49,-69.41 170.13,-67.2 171.01,-74.14"/>
</g>
<!-- Node5 -->
<g id="node5" class="node">
<title>Node5</title>
<g id="a_node5"><a xlink:href="classCXXIter_1_1IterValue.html#ae90e2e32a4cf74ed8cc186086abbab82" target="_top" xlink:title="Get the contained value (if any).">
<polygon fill="white" stroke="#666666" points="283.5,-30 180.5,-30 180.5,0 283.5,0 283.5,-30"/>
<text text-anchor="start" x="188.5" y="-18" font-family="Helvetica,sans-Serif" font-size="10.00">CXXIter::IterValue</text>
<text text-anchor="middle" x="232" y="-7" font-family="Helvetica,sans-Serif" font-size="10.00">::value</text>
</a>
</g>
</g>
<!-- Node1&#45;&gt;Node5 -->
<g id="edge5" class="edge">
<title>Node1&#45;&gt;Node5</title>
<path fill="none" stroke="#63b8ff" d="M85.51,-74.41C105.46,-64.98 137.08,-50.37 165,-39 169.42,-37.2 174.04,-35.39 178.69,-33.61"/>
<polygon fill="#63b8ff" stroke="#63b8ff" points="180.09,-36.82 188.21,-30.02 177.62,-30.27 180.09,-36.82"/>
</g>
<!-- Node2&#45;&gt;Node3 -->
<g id="edge2" class="edge">
<title>Node2&#45;&gt;Node3</title>
<path fill="none" stroke="#63b8ff" d="M299.36,-136.22C307.75,-135.23 316.35,-134.22 324.79,-133.23"/>
<polygon fill="#63b8ff" stroke="#63b8ff" points="325.46,-136.68 334.99,-132.04 324.65,-129.73 325.46,-136.68"/>
</g>
</g>
</svg>
