<?xml version="1.0" encoding="UTF-8" standalone="no"?>
<!DOCTYPE svg PUBLIC "-//W3C//DTD SVG 1.1//EN"
 "http://www.w3.org/Graphics/SVG/1.1/DTD/svg11.dtd">
<!-- Generated by graphviz version 2.43.0 (0)
 -->
<!-- Title: CXXIter::IterApi::max Pages: 1 -->
<svg width="623pt" height="162pt"
 viewBox="0.00 0.00 623.00 161.50" xmlns="http://www.w3.org/2000/svg" xmlns:xlink="http://www.w3.org/1999/xlink">
<g id="graph0" class="graph" transform="scale(1 1) rotate(0) translate(4 157.5)">
<title>CXXIter::IterApi::max</title>
<!-- Node1 -->
<g id="node1" class="node">
<title>Node1</title>
<g id="a_node1"><a xlink:title="Consumer that yields the largest element from this iterator.">
<polygon fill="#999999" stroke="#666666" points="119,-93.5 0,-93.5 0,-74.5 119,-74.5 119,-93.5"/>
<text text-anchor="middle" x="59.5" y="-81.5" font-family="Helvetica,sans-Serif" font-size="10.00">CXXIter::IterApi::max</text>
</a>
</g>
</g>
<!-- Node2 -->
<g id="node2" class="node">
<title>Node2</title>
<g id="a_node2"><a xlink:href="classCXXIter_1_1IterApi.html#a5eeff0e7235ee3f1563bf6aad3cb3e3c" target="_top" xlink:title="Consumer that yields the largest element from this iterator. Comparison of items is done using the co...">
<polygon fill="white" stroke="#666666" points="287,-93.5 155,-93.5 155,-74.5 287,-74.5 287,-93.5"/>
<text text-anchor="middle" x="221" y="-81.5" font-family="Helvetica,sans-Serif" font-size="10.00">CXXIter::IterApi::maxBy</text>
</a>
</g>
</g>
<!-- Node1&#45;&gt;Node2 -->
<g id="edge1" class="edge">
<title>Node1&#45;&gt;Node2</title>
<path fill="none" stroke="#63b8ff" d="M119.44,-84C127.64,-84 136.16,-84 144.61,-84"/>
<polygon fill="#63b8ff" stroke="#63b8ff" points="144.86,-87.5 154.86,-84 144.86,-80.5 144.86,-87.5"/>
</g>
<!-- Node3 -->
<g id="node3" class="node">
<title>Node3</title>
<g id="a_node3"><a xlink:href="classCXXIter_1_1IterApi.html#a79fda2fe3278009952d9eb1d73e2545e" target="_top" xlink:title="Consumer that calls the given function useFn for each of the elements in this iterator.">
<polygon fill="white" stroke="#666666" points="457,-153.5 323,-153.5 323,-134.5 457,-134.5 457,-153.5"/>
<text text-anchor="middle" x="390" y="-141.5" font-family="Helvetica,sans-Serif" font-size="10.00">CXXIter::IterApi::forEach</text>
</a>
</g>
</g>
<!-- Node2&#45;&gt;Node3 -->
<g id="edge2" class="edge">
<title>Node2&#45;&gt;Node3</title>
<path fill="none" stroke="#63b8ff" d="M248.46,-93.51C276.6,-103.62 321.28,-119.67 352.69,-130.95"/>
<polygon fill="#63b8ff" stroke="#63b8ff" points="351.79,-134.35 362.39,-134.44 354.16,-127.76 351.79,-134.35"/>
</g>
<!-- Node4 -->
<g id="node4" class="node">
<title>Node4</title>
<g id="a_node4"><a xlink:href="structCXXIter_1_1trait_1_1Iterator.html#a24ea296105d53bf6a4455c6f818715c2" target="_top" xlink:title="Pull one element from the iterator pipeline previous to this pipeline&#45;element.">
<polygon fill="white" stroke="#666666" points="615,-140 493,-140 493,-110 615,-110 615,-140"/>
<text text-anchor="start" x="501" y="-128" font-family="Helvetica,sans-Serif" font-size="10.00">CXXIter::trait::Iterator</text>
<text text-anchor="middle" x="554" y="-117" font-family="Helvetica,sans-Serif" font-size="10.00">::next</text>
</a>
</g>
</g>
<!-- Node2&#45;&gt;Node4 -->
<g id="edge5" class="edge">
<title>Node2&#45;&gt;Node4</title>
<path fill="none" stroke="#63b8ff" d="M287,-92.05C343.39,-99.04 424.84,-109.12 482.72,-116.29"/>
<polygon fill="#63b8ff" stroke="#63b8ff" points="482.53,-119.8 492.88,-117.55 483.39,-112.85 482.53,-119.8"/>
</g>
<!-- Node5 -->
<g id="node5" class="node">
<title>Node5</title>
<g id="a_node5"><a xlink:href="classCXXIter_1_1IterValue.html#a1328a0235310a7b0610f2ca7f0f08d4d" target="_top" xlink:title="Get whether this optional IteratorValue contains a value.">
<polygon fill="white" stroke="#666666" points="441.5,-78 338.5,-78 338.5,-48 441.5,-48 441.5,-78"/>
<text text-anchor="start" x="346.5" y="-66" font-family="Helvetica,sans-Serif" font-size="10.00">CXXIter::IterValue</text>
<text text-anchor="middle" x="390" y="-55" font-family="Helvetica,sans-Serif" font-size="10.00">::has_value</text>
</a>
</g>
</g>
<!-- Node2&#45;&gt;Node5 -->
<g id="edge4" class="edge">
<title>Node2&#45;&gt;Node5</title>
<path fill="none" stroke="#63b8ff" d="M287.04,-75.82C300.62,-74.11 314.88,-72.32 328.29,-70.63"/>
<polygon fill="#63b8ff" stroke="#63b8ff" points="328.87,-74.09 338.35,-69.37 327.99,-67.14 328.87,-74.09"/>
</g>
<!-- Node6 -->
<g id="node6" class="node">
<title>Node6</title>
<g id="a_node6"><a xlink:href="classCXXIter_1_1IterValue.html#ae90e2e32a4cf74ed8cc186086abbab82" target="_top" xlink:title="Get the contained value (if any).">
<polygon fill="white" stroke="#666666" points="441.5,-30 338.5,-30 338.5,0 441.5,0 441.5,-30"/>
<text text-anchor="start" x="346.5" y="-18" font-family="Helvetica,sans-Serif" font-size="10.00">CXXIter::IterValue</text>
<text text-anchor="middle" x="390" y="-7" font-family="Helvetica,sans-Serif" font-size="10.00">::value</text>
</a>
</g>
</g>
<!-- Node2&#45;&gt;Node6 -->
<g id="edge6" class="edge">
<title>Node2&#45;&gt;Node6</title>
<path fill="none" stroke="#63b8ff" d="M242.32,-74.44C262.59,-65.02 294.7,-50.43 323,-39 327.43,-37.21 332.05,-35.41 336.7,-33.63"/>
<polygon fill="#63b8ff" stroke="#63b8ff" points="338.1,-36.85 346.23,-30.06 335.64,-30.29 338.1,-36.85"/>
</g>
<!-- Node3&#45;&gt;Node4 -->
<g id="edge3" class="edge">
<title>Node3&#45;&gt;Node4</title>
<path fill="none" stroke="#63b8ff" d="M457.36,-136.22C465.75,-135.23 474.35,-134.22 482.79,-133.23"/>
<polygon fill="#63b8ff" stroke="#63b8ff" points="483.46,-136.68 492.99,-132.04 482.65,-129.73 483.46,-136.68"/>
</g>
</g>
</svg>
