<?xml version="1.0" encoding="UTF-8" standalone="no"?>
<!DOCTYPE svg PUBLIC "-//W3C//DTD SVG 1.1//EN"
 "http://www.w3.org/Graphics/SVG/1.1/DTD/svg11.dtd">
<!-- Generated by graphviz version 2.43.0 (0)
 -->
<!-- Title: Graph Legend Pages: 1 -->
<svg width="544pt" height="162pt"
 viewBox="0.00 0.00 543.50 162.00" xmlns="http://www.w3.org/2000/svg" xmlns:xlink="http://www.w3.org/1999/xlink">
<g id="graph0" class="graph" transform="scale(1 1) rotate(0) translate(4 158)">
<title>Graph Legend</title>
<!-- Node9 -->
<g id="node1" class="node">
<title>Node9</title>
<polygon fill="#bfbfbf" stroke="black" points="251,-0.5 251,-19.5 311,-19.5 311,-0.5 251,-0.5"/>
<text text-anchor="middle" x="281" y="-7.5" font-family="Helvetica,sans-Serif" font-size="10.00">Inherited</text>
</g>
<!-- Node10 -->
<g id="node2" class="node">
<title>Node10</title>
<polygon fill="none" stroke="black" points="0,-67.5 0,-86.5 70,-86.5 70,-67.5 0,-67.5"/>
<text text-anchor="middle" x="35" y="-74.5" font-family="Helvetica,sans-Serif" font-size="10.00">PublicBase</text>
</g>
<!-- Node10&#45;&gt;Node9 -->
<g id="edge1" class="edge">
<title>Node10&#45;&gt;Node9</title>
<path fill="none" stroke="midnightblue" d="M77.16,-64.86C126.59,-51.8 207.27,-30.48 250.83,-18.97"/>
<polygon fill="midnightblue" stroke="midnightblue" points="76.19,-61.5 67.41,-67.44 77.98,-68.26 76.19,-61.5"/>
</g>
<!-- Node11 -->
<g id="node3" class="node">
<title>Node11</title>
<polygon fill="none" stroke="red" points="3,-134.5 3,-153.5 67,-153.5 67,-134.5 3,-134.5"/>
<text text-anchor="middle" x="35" y="-141.5" font-family="Helvetica,sans-Serif" font-size="10.00">Truncated</text>
</g>
<!-- Node11&#45;&gt;Node10 -->
<g id="edge2" class="edge">
<title>Node11&#45;&gt;Node10</title>
<path fill="none" stroke="midnightblue" d="M35,-124.04C35,-111.67 35,-96.12 35,-86.63"/>
<polygon fill="midnightblue" stroke="midnightblue" points="31.5,-124.23 35,-134.23 38.5,-124.23 31.5,-124.23"/>
</g>
<!-- Node13 -->
<g id="node4" class="node">
<title>Node13</title>
<polygon fill="none" stroke="black" points="88.5,-67.5 88.5,-86.5 175.5,-86.5 175.5,-67.5 88.5,-67.5"/>
<text text-anchor="middle" x="132" y="-74.5" font-family="Helvetica,sans-Serif" font-size="10.00">ProtectedBase</text>
</g>
<!-- Node13&#45;&gt;Node9 -->
<g id="edge3" class="edge">
<title>Node13&#45;&gt;Node9</title>
<path fill="none" stroke="darkgreen" d="M161.16,-63.28C190.66,-50.41 235.49,-30.85 261.13,-19.67"/>
<polygon fill="darkgreen" stroke="darkgreen" points="159.55,-60.16 151.79,-67.37 162.35,-66.58 159.55,-60.16"/>
</g>
<!-- Node14 -->
<g id="node5" class="node">
<title>Node14</title>
<polygon fill="none" stroke="black" points="193.5,-67.5 193.5,-86.5 268.5,-86.5 268.5,-67.5 193.5,-67.5"/>
<text text-anchor="middle" x="231" y="-74.5" font-family="Helvetica,sans-Serif" font-size="10.00">PrivateBase</text>
</g>
<!-- Node14&#45;&gt;Node9 -->
<g id="edge4" class="edge">
<title>Node14&#45;&gt;Node9</title>
<path fill="none" stroke="#8b1a1a" d="M243.87,-59.27C253.62,-46.6 266.61,-29.7 274.36,-19.63"/>
<polygon fill="#8b1a1a" stroke="#8b1a1a" points="241.07,-57.17 237.74,-67.23 246.61,-61.44 241.07,-57.17"/>
</g>
<!-- Node15 -->
<g id="node6" class="node">
<title>Node15</title>
<polygon fill="none" stroke="#bfbfbf" points="286.5,-67.5 286.5,-86.5 377.5,-86.5 377.5,-67.5 286.5,-67.5"/>
<text text-anchor="middle" x="332" y="-74.5" font-family="Helvetica,sans-Serif" font-size="10.00">Undocumented</text>
</g>
<!-- Node15&#45;&gt;Node9 -->
<g id="edge5" class="edge">
<title>Node15&#45;&gt;Node9</title>
<path fill="none" stroke="midnightblue" d="M318.87,-59.27C308.93,-46.6 295.67,-29.7 287.77,-19.63"/>
<polygon fill="midnightblue" stroke="midnightblue" points="316.2,-61.53 325.12,-67.23 321.7,-57.21 316.2,-61.53"/>
</g>
<!-- Node16 -->
<g id="node7" class="node">
<title>Node16</title>
<polygon fill="none" stroke="black" points="395.5,-67.5 395.5,-86.5 476.5,-86.5 476.5,-67.5 395.5,-67.5"/>
<text text-anchor="middle" x="436" y="-74.5" font-family="Helvetica,sans-Serif" font-size="10.00">Templ&lt; int &gt;</text>
</g>
<!-- Node16&#45;&gt;Node9 -->
<g id="edge6" class="edge">
<title>Node16&#45;&gt;Node9</title>
<path fill="none" stroke="midnightblue" d="M406.07,-63.45C375.38,-50.58 328.46,-30.9 301.67,-19.67"/>
<polygon fill="midnightblue" stroke="midnightblue" points="404.84,-66.73 415.42,-67.37 407.55,-60.27 404.84,-66.73"/>
</g>
<!-- Node17 -->
<g id="node8" class="node">
<title>Node17</title>
<polygon fill="none" stroke="black" points="399,-134.5 399,-153.5 473,-153.5 473,-134.5 399,-134.5"/>
<text text-anchor="middle" x="436" y="-141.5" font-family="Helvetica,sans-Serif" font-size="10.00">Templ&lt; T &gt;</text>
</g>
<!-- Node17&#45;&gt;Node16 -->
<g id="edge7" class="edge">
<title>Node17&#45;&gt;Node16</title>
<path fill="none" stroke="orange" stroke-dasharray="5,2" d="M436,-124.04C436,-111.67 436,-96.12 436,-86.63"/>
<polygon fill="orange" stroke="orange" points="432.5,-124.23 436,-134.23 439.5,-124.23 432.5,-124.23"/>
<text text-anchor="middle" x="454" y="-108" font-family="Helvetica,sans-Serif" font-size="10.00">&lt; int &gt;</text>
</g>
<!-- Node18 -->
<g id="node9" class="node">
<title>Node18</title>
<polygon fill="none" stroke="black" points="494.5,-67.5 494.5,-86.5 535.5,-86.5 535.5,-67.5 494.5,-67.5"/>
<text text-anchor="middle" x="515" y="-74.5" font-family="Helvetica,sans-Serif" font-size="10.00">Used</text>
</g>
<!-- Node18&#45;&gt;Node9 -->
<g id="edge8" class="edge">
<title>Node18&#45;&gt;Node9</title>
<path fill="none" stroke="#9a32cd" stroke-dasharray="5,2" d="M484.54,-66.64C417.44,-47.17 349.52,-29.01 311.31,-18.93"/>
<polygon fill="#9a32cd" stroke="#9a32cd" points="483.85,-70.08 494.43,-69.52 485.81,-63.36 483.85,-70.08"/>
<text text-anchor="middle" x="450.5" y="-41" font-family="Helvetica,sans-Serif" font-size="10.00">m_usedClass</text>
</g>
</g>
</svg>
