<?xml version="1.0" encoding="UTF-8" standalone="no"?>
<!DOCTYPE svg PUBLIC "-//W3C//DTD SVG 1.1//EN"
 "http://www.w3.org/Graphics/SVG/1.1/DTD/svg11.dtd">
<!-- Generated by graphviz version 2.43.0 (0)
 -->
<!-- Title: CXXIter::Generator&lt; T &gt;::promise_type Pages: 1 -->
<svg width="148pt" height="226pt"
 viewBox="0.00 0.00 148.00 226.00" xmlns="http://www.w3.org/2000/svg" xmlns:xlink="http://www.w3.org/1999/xlink">
<g id="graph0" class="graph" transform="scale(1 1) rotate(0) translate(4 222)">
<title>CXXIter::Generator&lt; T &gt;::promise_type</title>
<!-- Node1 -->
<g id="node1" class="node">
<title>Node1</title>
<g id="a_node1"><a xlink:title=" ">
<polygon fill="#bfbfbf" stroke="black" points="0,-0.5 0,-112.5 140,-112.5 140,-0.5 0,-0.5"/>
<text text-anchor="start" x="8" y="-100.5" font-family="Helvetica,sans-Serif" font-size="10.00">CXXIter::Generator</text>
<text text-anchor="middle" x="70" y="-89.5" font-family="Helvetica,sans-Serif" font-size="10.00">&lt; T &gt;::promise_type</text>
<polyline fill="none" stroke="black" points="0,-82.5 140,-82.5 "/>
<text text-anchor="start" x="8" y="-70.5" font-family="Helvetica,sans-Serif" font-size="10.00">+ exceptionPtr</text>
<polyline fill="none" stroke="black" points="0,-63.5 140,-63.5 "/>
<text text-anchor="start" x="8" y="-51.5" font-family="Helvetica,sans-Serif" font-size="10.00">+ get_return_object()</text>
<text text-anchor="start" x="8" y="-40.5" font-family="Helvetica,sans-Serif" font-size="10.00">+ yield_value()</text>
<text text-anchor="start" x="8" y="-29.5" font-family="Helvetica,sans-Serif" font-size="10.00">+ unhandled_exception()</text>
<text text-anchor="start" x="8" y="-18.5" font-family="Helvetica,sans-Serif" font-size="10.00">+ initial_suspend()</text>
<text text-anchor="start" x="8" y="-7.5" font-family="Helvetica,sans-Serif" font-size="10.00">+ final_suspend()</text>
</a>
</g>
</g>
<!-- Node2 -->
<g id="node2" class="node">
<title>Node2</title>
<g id="a_node2"><a xlink:title=" ">
<polygon fill="none" stroke="#bfbfbf" points="4.5,-160.5 4.5,-217.5 135.5,-217.5 135.5,-160.5 4.5,-160.5"/>
<text text-anchor="middle" x="70" y="-205.5" font-family="Helvetica,sans-Serif" font-size="10.00">CXXIter::IterValue&lt; T &gt;</text>
<polyline fill="none" stroke="#bfbfbf" points="4.5,-198.5 135.5,-198.5 "/>
<text text-anchor="middle" x="70" y="-186.5" font-family="Helvetica,sans-Serif" font-size="10.00"> </text>
<polyline fill="none" stroke="#bfbfbf" points="4.5,-179.5 135.5,-179.5 "/>
<text text-anchor="middle" x="70" y="-167.5" font-family="Helvetica,sans-Serif" font-size="10.00"> </text>
</a>
</g>
</g>
<!-- Node2&#45;&gt;Node1 -->
<g id="edge1" class="edge">
<title>Node2&#45;&gt;Node1</title>
<path fill="none" stroke="#404040" d="M70,-160.32C70,-149.78 70,-137.25 70,-124.62"/>
<polygon fill="none" stroke="#404040" points="70,-124.55 66,-118.55 70,-112.55 74,-118.55 70,-124.55"/>
<text text-anchor="middle" x="104.5" y="-134" font-family="Helvetica,sans-Serif" font-size="10.00"> +currentItem</text>
</g>
</g>
</svg>
