<?xml version="1.0" encoding="UTF-8" standalone="no"?>
<!DOCTYPE svg PUBLIC "-//W3C//DTD SVG 1.1//EN"
 "http://www.w3.org/Graphics/SVG/1.1/DTD/svg11.dtd">
<!-- Generated by graphviz version 2.43.0 (0)
 -->
<!-- Title: CXXIter::trait::Source&lt; TContainer &gt;::ConstIteratorState Pages: 1 -->
<svg width="189pt" height="83pt"
 viewBox="0.00 0.00 189.00 83.00" xmlns="http://www.w3.org/2000/svg" xmlns:xlink="http://www.w3.org/1999/xlink">
<g id="graph0" class="graph" transform="scale(1 1) rotate(0) translate(4 79)">
<title>CXXIter::trait::Source&lt; TContainer &gt;::ConstIteratorState</title>
<!-- Node1 -->
<g id="node1" class="node">
<title>Node1</title>
<g id="a_node1"><a xlink:title="Type of the state structure stored in CXXIter&#39;s source classes, used to keep track of the iteration p...">
<polygon fill="#999999" stroke="transparent" points="181,-75 0,-75 0,0 181,0 181,-75"/>
<text text-anchor="start" x="5.5" y="-62.5" font-family="Helvetica,sans-Serif" font-size="10.00">CXXIter::trait::Source</text>
<text text-anchor="start" x="5.5" y="-51.5" font-family="Helvetica,sans-Serif" font-size="10.00">&lt; TContainer &gt;::ConstIteratorState</text>
<text text-anchor="start" x="38.5" y="-36.5" font-family="Helvetica,sans-Serif" font-size="10.00">+</text>
<text text-anchor="start" x="85.5" y="-36.5" font-family="Helvetica,sans-Serif" font-size="10.00">left</text>
<text text-anchor="start" x="38.5" y="-21.5" font-family="Helvetica,sans-Serif" font-size="10.00">+</text>
<text text-anchor="start" x="85.5" y="-21.5" font-family="Helvetica,sans-Serif" font-size="10.00">right</text>
<text text-anchor="start" x="89" y="-6.5" font-family="Helvetica,sans-Serif" font-size="10.00"> </text>
<polygon fill="#666666" stroke="#666666" points="0.5,-46.5 0.5,-46.5 181.5,-46.5 181.5,-46.5 0.5,-46.5"/>
<polygon fill="#666666" stroke="#666666" points="0.5,-16.5 0.5,-16.5 83.5,-16.5 83.5,-16.5 0.5,-16.5"/>
<polygon fill="#666666" stroke="#666666" points="83.5,-16.5 83.5,-16.5 181.5,-16.5 181.5,-16.5 83.5,-16.5"/>
<polygon fill="none" stroke="#666666" points="0,0 0,-75 181,-75 181,0 0,0"/>
</a>
</g>
</g>
</g>
</svg>
