<?xml version="1.0" encoding="UTF-8" standalone="no"?>
<!DOCTYPE svg PUBLIC "-//W3C//DTD SVG 1.1//EN"
 "http://www.w3.org/Graphics/SVG/1.1/DTD/svg11.dtd">
<!-- Generated by graphviz version 2.43.0 (0)
 -->
<!-- Title: CXXIter::trait::Source::skipN Pages: 1 -->
<svg width="282pt" height="56pt"
 viewBox="0.00 0.00 282.00 56.00" xmlns="http://www.w3.org/2000/svg" xmlns:xlink="http://www.w3.org/1999/xlink">
<g id="graph0" class="graph" transform="scale(1 1) rotate(0) translate(4 52)">
<title>CXXIter::trait::Source::skipN</title>
<!-- Node1 -->
<g id="node1" class="node">
<title>Node1</title>
<g id="a_node1"><a xlink:title="Skip the next n elements from the container.">
<polygon fill="#bfbfbf" stroke="black" points="119,-30 0,-30 0,0 119,0 119,-30"/>
<text text-anchor="start" x="8" y="-18" font-family="Helvetica,sans-Serif" font-size="10.00">CXXIter::trait::Source</text>
<text text-anchor="middle" x="59.5" y="-7" font-family="Helvetica,sans-Serif" font-size="10.00">::skipN</text>
</a>
</g>
</g>
<!-- Node2 -->
<g id="node2" class="node">
<title>Node2</title>
<g id="a_node2"><a xlink:href="structCXXIter_1_1trait_1_1Source.html#a2bbe5bd30cf5dd5a90ffe54ce2c248f8" target="_top" xlink:title="Skip the next n elements from the container.">
<polygon fill="none" stroke="black" points="274,-30 155,-30 155,0 274,0 274,-30"/>
<text text-anchor="start" x="163" y="-18" font-family="Helvetica,sans-Serif" font-size="10.00">CXXIter::trait::Source</text>
<text text-anchor="middle" x="214.5" y="-7" font-family="Helvetica,sans-Serif" font-size="10.00">::skipN</text>
</a>
</g>
</g>
<!-- Node1&#45;&gt;Node2 -->
<g id="edge1" class="edge">
<title>Node1&#45;&gt;Node2</title>
<path fill="none" stroke="midnightblue" d="M119.22,-15C127.54,-15 136.17,-15 144.67,-15"/>
<polygon fill="midnightblue" stroke="midnightblue" points="144.94,-18.5 154.94,-15 144.94,-11.5 144.94,-18.5"/>
</g>
<!-- Node2&#45;&gt;Node2 -->
<g id="edge2" class="edge">
<title>Node2&#45;&gt;Node2</title>
<path fill="none" stroke="midnightblue" d="M187.43,-30.28C181.41,-39.41 190.44,-48 214.5,-48 228.79,-48 237.77,-44.97 241.46,-40.6"/>
<polygon fill="midnightblue" stroke="midnightblue" points="244.96,-40.31 241.57,-30.28 237.96,-40.24 244.96,-40.31"/>
</g>
</g>
</svg>
