<?xml version="1.0" encoding="UTF-8" standalone="no"?>
<!DOCTYPE svg PUBLIC "-//W3C//DTD SVG 1.1//EN"
 "http://www.w3.org/Graphics/SVG/1.1/DTD/svg11.dtd">
<!-- Generated by graphviz version 2.43.0 (0)
 -->
<!-- Title: CXXIter::Generator&lt; T &gt;::promise_type Pages: 1 -->
<svg width="144pt" height="374pt"
 viewBox="0.00 0.00 143.50 374.00" xmlns="http://www.w3.org/2000/svg" xmlns:xlink="http://www.w3.org/1999/xlink">
<g id="graph0" class="graph" transform="scale(1 1) rotate(0) translate(4 370)">
<title>CXXIter::Generator&lt; T &gt;::promise_type</title>
<!-- Node1 -->
<g id="node1" class="node">
<title>Node1</title>
<g id="a_node1"><a xlink:title=" ">
<polygon fill="#999999" stroke="transparent" points="133,-120 0,-120 0,0 133,0 133,-120"/>
<text text-anchor="start" x="16" y="-108" font-family="Helvetica,sans-Serif" font-size="10.00">CXXIter::Generator</text>
<text text-anchor="start" x="16" y="-97" font-family="Helvetica,sans-Serif" font-size="10.00">&lt; T &gt;::promise_type</text>
<text text-anchor="start" x="4.5" y="-82" font-family="Helvetica,sans-Serif" font-size="10.00">+</text>
<text text-anchor="start" x="17.5" y="-82" font-family="Helvetica,sans-Serif" font-size="10.00">exceptionPtr</text>
<text text-anchor="start" x="4.5" y="-67" font-family="Helvetica,sans-Serif" font-size="10.00">+</text>
<text text-anchor="start" x="17.5" y="-67" font-family="Helvetica,sans-Serif" font-size="10.00">get_return_object()</text>
<text text-anchor="start" x="4.5" y="-52" font-family="Helvetica,sans-Serif" font-size="10.00">+</text>
<text text-anchor="start" x="17.5" y="-52" font-family="Helvetica,sans-Serif" font-size="10.00">yield_value()</text>
<text text-anchor="start" x="4.5" y="-37" font-family="Helvetica,sans-Serif" font-size="10.00">+</text>
<text text-anchor="start" x="17.5" y="-37" font-family="Helvetica,sans-Serif" font-size="10.00">unhandled_exception()</text>
<text text-anchor="start" x="4.5" y="-22" font-family="Helvetica,sans-Serif" font-size="10.00">+</text>
<text text-anchor="start" x="17.5" y="-22" font-family="Helvetica,sans-Serif" font-size="10.00">initial_suspend()</text>
<text text-anchor="start" x="4.5" y="-7" font-family="Helvetica,sans-Serif" font-size="10.00">+</text>
<text text-anchor="start" x="17.5" y="-7" font-family="Helvetica,sans-Serif" font-size="10.00">final_suspend()</text>
<polygon fill="#666666" stroke="#666666" points="0.5,-92 0.5,-92 133.5,-92 133.5,-92 0.5,-92"/>
<polygon fill="#666666" stroke="#666666" points="0.5,-77 0.5,-77 15.5,-77 15.5,-77 0.5,-77"/>
<polygon fill="#666666" stroke="#666666" points="15.5,-77 15.5,-77 133.5,-77 133.5,-77 15.5,-77"/>
<polygon fill="none" stroke="#666666" points="0,0 0,-120 133,-120 133,0 0,0"/>
</a>
</g>
</g>
<!-- Node2 -->
<g id="node2" class="node">
<title>Node2</title>
<g id="a_node2"><a xlink:href="classCXXIter_1_1IterValue.html" target="_top" xlink:title=" ">
<polygon fill="white" stroke="transparent" points="129,-366 4,-366 4,-167 129,-167 129,-366"/>
<text text-anchor="start" x="9.5" y="-353.5" font-family="Helvetica,sans-Serif" font-size="10.00">CXXIter::IterValue&lt; T &gt;</text>
<text text-anchor="start" x="65" y="-338.5" font-family="Helvetica,sans-Serif" font-size="10.00"> </text>
<text text-anchor="start" x="18" y="-323.5" font-family="Helvetica,sans-Serif" font-size="10.00">+</text>
<text text-anchor="start" x="40.5" y="-323.5" font-family="Helvetica,sans-Serif" font-size="10.00">IterValue()</text>
<text text-anchor="start" x="18" y="-308.5" font-family="Helvetica,sans-Serif" font-size="10.00">+</text>
<text text-anchor="start" x="40.5" y="-308.5" font-family="Helvetica,sans-Serif" font-size="10.00">IterValue()</text>
<text text-anchor="start" x="18" y="-293.5" font-family="Helvetica,sans-Serif" font-size="10.00">+</text>
<text text-anchor="start" x="40.5" y="-293.5" font-family="Helvetica,sans-Serif" font-size="10.00">IterValue()</text>
<text text-anchor="start" x="18" y="-278.5" font-family="Helvetica,sans-Serif" font-size="10.00">+</text>
<text text-anchor="start" x="40.5" y="-278.5" font-family="Helvetica,sans-Serif" font-size="10.00">IterValue()</text>
<text text-anchor="start" x="18" y="-263.5" font-family="Helvetica,sans-Serif" font-size="10.00">+</text>
<text text-anchor="start" x="40.5" y="-263.5" font-family="Helvetica,sans-Serif" font-size="10.00">IterValue()</text>
<text text-anchor="start" x="18" y="-248.5" font-family="Helvetica,sans-Serif" font-size="10.00">+</text>
<text text-anchor="start" x="40.5" y="-248.5" font-family="Helvetica,sans-Serif" font-size="10.00">operator=()</text>
<text text-anchor="start" x="18" y="-233.5" font-family="Helvetica,sans-Serif" font-size="10.00">+</text>
<text text-anchor="start" x="40.5" y="-233.5" font-family="Helvetica,sans-Serif" font-size="10.00">operator=()</text>
<text text-anchor="start" x="18" y="-218.5" font-family="Helvetica,sans-Serif" font-size="10.00">+</text>
<text text-anchor="start" x="40.5" y="-218.5" font-family="Helvetica,sans-Serif" font-size="10.00">value()</text>
<text text-anchor="start" x="18" y="-203.5" font-family="Helvetica,sans-Serif" font-size="10.00">+</text>
<text text-anchor="start" x="40.5" y="-203.5" font-family="Helvetica,sans-Serif" font-size="10.00">value()</text>
<text text-anchor="start" x="18" y="-188.5" font-family="Helvetica,sans-Serif" font-size="10.00">+</text>
<text text-anchor="start" x="40.5" y="-188.5" font-family="Helvetica,sans-Serif" font-size="10.00">value_or()</text>
<text text-anchor="start" x="40.5" y="-173.5" font-family="Helvetica,sans-Serif" font-size="10.00">and 7 more...</text>
<polygon fill="#666666" stroke="#666666" points="4.5,-348.5 4.5,-348.5 129.5,-348.5 129.5,-348.5 4.5,-348.5"/>
<polygon fill="#666666" stroke="#666666" points="4.5,-333.5 4.5,-333.5 129.5,-333.5 129.5,-333.5 4.5,-333.5"/>
<polygon fill="none" stroke="#666666" points="4,-167 4,-366 129,-366 129,-167 4,-167"/>
</a>
</g>
</g>
<!-- Node2&#45;&gt;Node1 -->
<g id="edge1" class="edge">
<title>Node2&#45;&gt;Node1</title>
<path fill="none" stroke="#63b8ff" d="M66.5,-166.84C66.5,-155.27 66.5,-143.63 66.5,-132.52"/>
<polygon fill="none" stroke="#63b8ff" points="66.5,-132.24 62.5,-126.24 66.5,-120.24 70.5,-126.24 66.5,-132.24"/>
<text text-anchor="middle" x="101" y="-141" font-family="Helvetica,sans-Serif" font-size="10.00" fill="grey"> +currentItem</text>
</g>
</g>
</svg>
