<?xml version="1.0" encoding="UTF-8" standalone="no"?>
<!DOCTYPE svg PUBLIC "-//W3C//DTD SVG 1.1//EN"
 "http://www.w3.org/Graphics/SVG/1.1/DTD/svg11.dtd">
<!-- Generated by graphviz version 2.43.0 (0)
 -->
<!-- Title: CXXIter::trait::Source::skipNBack Pages: 1 -->
<svg width="282pt" height="57pt"
 viewBox="0.00 0.00 282.00 57.00" xmlns="http://www.w3.org/2000/svg" xmlns:xlink="http://www.w3.org/1999/xlink">
<g id="graph0" class="graph" transform="scale(1 1) rotate(0) translate(4 53)">
<title>CXXIter::trait::Source::skipNBack</title>
<!-- Node1 -->
<g id="node1" class="node">
<title>Node1</title>
<g id="a_node1"><a xlink:title="Skip the next n elements from the back of this iterator.">
<polygon fill="#bfbfbf" stroke="black" points="0,-0.5 0,-30.5 119,-30.5 119,-0.5 0,-0.5"/>
<text text-anchor="start" x="8" y="-18.5" font-family="Helvetica,sans-Serif" font-size="10.00">CXXIter::trait::Source</text>
<text text-anchor="middle" x="59.5" y="-7.5" font-family="Helvetica,sans-Serif" font-size="10.00">::skipNBack</text>
</a>
</g>
</g>
<!-- Node2 -->
<g id="node2" class="node">
<title>Node2</title>
<g id="a_node2"><a xlink:href="structCXXIter_1_1trait_1_1Source.html#a2bbe5bd30cf5dd5a90ffe54ce2c248f8" target="_top" xlink:title="Skip the next n elements from the container.">
<polygon fill="none" stroke="black" points="155,-0.5 155,-30.5 274,-30.5 274,-0.5 155,-0.5"/>
<text text-anchor="start" x="163" y="-18.5" font-family="Helvetica,sans-Serif" font-size="10.00">CXXIter::trait::Source</text>
<text text-anchor="middle" x="214.5" y="-7.5" font-family="Helvetica,sans-Serif" font-size="10.00">::skipN</text>
</a>
</g>
</g>
<!-- Node1&#45;&gt;Node2 -->
<g id="edge1" class="edge">
<title>Node1&#45;&gt;Node2</title>
<path fill="none" stroke="midnightblue" d="M119.22,-15.5C127.54,-15.5 136.17,-15.5 144.67,-15.5"/>
<polygon fill="midnightblue" stroke="midnightblue" points="144.94,-19 154.94,-15.5 144.94,-12 144.94,-19"/>
</g>
<!-- Node2&#45;&gt;Node2 -->
<g id="edge2" class="edge">
<title>Node2&#45;&gt;Node2</title>
<path fill="none" stroke="midnightblue" d="M187.66,-30.66C181.19,-40.06 190.14,-49 214.5,-49 229.35,-49 238.47,-45.68 241.86,-40.96"/>
<polygon fill="midnightblue" stroke="midnightblue" points="245.34,-40.47 241.34,-30.66 238.35,-40.82 245.34,-40.47"/>
</g>
</g>
</svg>
